<?xml version="1.0" encoding="UTF-8" standalone="no"?>
<svg width="402px" height="330px" viewBox="0 0 402 330" version="1.1" xmlns="http://www.w3.org/2000/svg" xmlns:xlink="http://www.w3.org/1999/xlink" xmlns:sketch="http://www.bohemiancoding.com/sketch/ns">
    <!-- Generator: Sketch 3.3.1 (12005) - http://www.bohemiancoding.com/sketch -->
    <title>artist</title>
    <desc>Created with Sketch.</desc>
    <defs></defs>
    <g id="Page-12" stroke="none" stroke-width="1" fill="none" fill-rule="evenodd" sketch:type="MSPage">
        <g id="artist" sketch:type="MSLayerGroup" transform="translate(0.455392, 0.220001)">
            <path d="M323.919308,20.7951892 L310.662344,18.4371364 L270.893372,238.530452 L281.810458,238.530452 L323.919308,20.7951892" id="Fill-1" fill="#F6BA61" sketch:type="MSShapeGroup"></path>
            <path d="M323.645817,20.7417784 L281.268012,238.530452 L331.10426,226.83404 L361.959654,33.6236331 L323.645817,20.7417784" id="Fill-2" fill="#B48B49" sketch:type="MSShapeGroup"></path>
            <path d="M325.072046,127.765639 L316.146946,124.45067 L280.115274,316.384085 L288.380399,318.040602 L325.072046,127.765639" id="Fill-3" fill="#F6BA61" sketch:type="MSShapeGroup"></path>
            <path d="M317.002882,124.764439 L325.661526,124.45067 L331.988473,127.593865 L325.994625,127.907634 L317.002882,124.764439" id="Fill-4" fill="#826534" sketch:type="MSShapeGroup"></path>
            <path d="M268.587896,133.66892 C268.587896,141.94268 261.878102,148.649412 253.601987,148.649412 C245.325872,148.649412 238.616715,141.94268 238.616715,133.66892 C238.616715,125.395797 245.325872,118.689065 253.601987,118.689065 C261.878102,118.689065 268.587896,125.395797 268.587896,133.66892" id="Fill-5" fill="#E8CAA1" sketch:type="MSShapeGroup"></path>
            <path d="M76.0806916,195.894255 C76.0806916,204.168016 69.370897,210.874747 61.094782,210.874747 C52.818667,210.874747 46.1095101,204.168016 46.1095101,195.894255 C46.1095101,187.62177 52.818667,180.914401 61.094782,180.914401 C69.370897,180.914401 76.0806916,187.62177 76.0806916,195.894255" id="Fill-6" fill="#E8CAA1" sketch:type="MSShapeGroup"></path>
            <path d="M92.5081629,39.3529502 C80.7990447,30.3449664 67.550838,29.0861975 71.8349118,40.4741629 C66.9196964,36.4162553 60.443607,48.0721958 66.8895811,51.0971343 C59.9944393,49.6476035 58.7500972,63.0625761 65.9021809,63.2202467 C58.2567174,64.3985582 60.9709467,79.3136719 67.9045336,78.2683747 C62.5523248,81.2569775 65.4722357,91.905254 71.6305117,91.9993372 C68.1172636,95.6400343 74.5318407,103.895352 78.6948122,101.128656 C76.8263768,105.704995 81.9293328,110.320913 87.6973902,107.408226 C93.8050467,104.527981 97.4695125,100.361067 100.288184,95.6075918" id="Fill-7" fill="#000414" sketch:type="MSShapeGroup"></path>
            <path d="M92.5081629,39.3529502 C80.7990447,30.3449664 67.550838,29.0861975 71.8349118,40.4741629 C66.9196964,36.4162553 60.443607,48.0721958 66.8895811,51.0971343 C59.9944393,49.6476035 58.7500972,63.0625761 65.9021809,63.2202467 C58.2567174,64.3985582 60.9709467,79.3136719 67.9045336,78.2683747 C62.5523248,81.2569775 65.4722357,91.905254 71.6305117,91.9993372 C68.1172636,95.6400343 74.5318407,103.895352 78.6948122,101.128656 C76.8263768,105.704995 81.9293328,110.320913 87.6973902,107.408226 C93.8050467,104.527981 97.4695125,100.361067 100.288184,95.6075918" id="Stroke-8" stroke="#000414" stroke-width="0.689" stroke-linecap="round" stroke-linejoin="round" sketch:type="MSShapeGroup"></path>
            <path d="M176.537988,41.9685198 C188.247747,32.9556959 206.800747,29.0436252 202.517314,40.4377095 C207.431889,36.3776216 213.907978,48.0398249 207.462004,51.0663887 C214.357146,49.6160791 215.601488,63.0382598 208.449404,63.196015 C216.094227,64.3749597 213.381279,79.2980875 206.447051,78.2522285 C211.79926,81.2424372 208.87999,91.8964351 202.721073,91.9905689 C206.234321,95.6332222 199.819104,103.892976 195.656773,101.124793 C197.525208,105.703591 192.422893,110.321989 186.654836,107.407737 C180.545898,104.525944 176.882713,100.356791 174.063401,95.6007623" id="Fill-9" fill="#000414" sketch:type="MSShapeGroup"></path>
            <path d="M176.537988,41.9685198 C188.247747,32.9556959 206.800747,29.0436252 202.517314,40.4377095 C207.431889,36.3776216 213.907978,48.0398249 207.462004,51.0663887 C214.357146,49.6160791 215.601488,63.0382598 208.449404,63.196015 C216.094227,64.3749597 213.381279,79.2980875 206.447051,78.2522285 C211.79926,81.2424372 208.87999,91.8964351 202.721073,91.9905689 C206.234321,95.6332222 199.819104,103.892976 195.656773,101.124793 C197.525208,105.703591 192.422893,110.321989 186.654836,107.407737 C180.545898,104.525944 176.882713,100.356791 174.063401,95.6007623" id="Stroke-10" stroke="#000414" stroke-width="0.689" stroke-linecap="round" stroke-linejoin="round" sketch:type="MSShapeGroup"></path>
            <path d="M331.988473,127.907634 L295.618092,316.200176 L289.337176,319.192923 L326.037623,128.239729 L331.988473,127.907634" id="Fill-11" fill="#826534" sketch:type="MSShapeGroup"></path>
            <path d="M336.696228,126.755313 L314.697406,309.798882 L320.36429,311.126676 L342.363112,129.080568 L336.696228,126.755313" id="Fill-12" fill="#F6BA61" sketch:type="MSShapeGroup"></path>
            <path d="M336.599424,127.042972 L342.478857,129.059955 L350.432277,128.772295 L345.936398,126.755313 L336.599424,127.042972" id="Fill-13" fill="#826534" sketch:type="MSShapeGroup"></path>
            <path d="M114.889529,247.74902 L112.9683,271.666708 L159.07781,274.252403 L159.07781,248.395444 L114.889529,247.74902" id="Fill-14" fill="#537F6C" sketch:type="MSShapeGroup"></path>
            <path d="M349.279539,129.059955 L327.053446,307.810916 L319.308357,311.126676 L341.53445,129.391014 L349.279539,129.059955" id="Fill-15" fill="#826534" sketch:type="MSShapeGroup"></path>
            <path d="M321.255884,160.073192 L320.461095,167.086548 L339.792707,165.332868 L340.057637,159.020301 L321.255884,160.073192" id="Fill-16" fill="#826534" sketch:type="MSShapeGroup"></path>
            <path d="M329.682997,159.020301 L394.002011,329.563813 L400,327.236852 L333.015646,159.35217 L329.682997,159.020301" id="Fill-17" fill="#826534" sketch:type="MSShapeGroup"></path>
            <path d="M393.083573,329.563813 L329.359015,159.020301 L327.377522,166.666214 L385.819381,326.904337 L393.083573,329.563813" id="Fill-18" fill="#F6BA61" sketch:type="MSShapeGroup"></path>
            <path d="M190.201729,124.188604 L251.29683,118.689065 L249.46208,159.020301 L191.120394,153.979701" id="Fill-19" fill="#537F6C" sketch:type="MSShapeGroup"></path>
            <path d="M152.004798,236.22581 L124.410874,236.22581 C104.085261,236.22581 87.6080692,219.589795 87.6080692,199.068115 L87.6080692,67.1186893 C87.6080692,46.596361 104.085261,29.9603466 124.410874,29.9603466 L153.314121,29.9603466" id="Fill-20" fill="#E8CAA1" sketch:type="MSShapeGroup"></path>
            <path d="M153.468262,29.9603466 C173.755294,29.9603466 190.201729,46.596361 190.201729,67.1186893 L190.201729,199.068115 C190.201729,219.589795 173.755294,236.22581 153.468262,236.22581 L152.161383,236.22581" id="Fill-21" fill="#D6BB95" sketch:type="MSShapeGroup"></path>
            <path d="M110.358995,84.1194347 C99.4159937,94.1720266 95.7683266,107.167681 107.684039,104.960222 C102.820483,109.129289 113.033951,117.711326 117.167974,111.82585 C114.493018,118.445628 127.380796,122.124944 128.839863,115.014114 C128.596685,122.859897 143.673709,122.859897 143.916887,115.749067 C145.86231,121.633892 156.805311,120.653738 158.0212,114.523062 C160.939334,118.691479 170.18009,113.787459 168.234668,109.129289 C172.36869,111.82585 177.812132,107.57093 176.016358,101.283507 C174.314113,94.663079 170.909624,90.2488101 166.775601,86.5707946" id="Fill-22" fill="#000414" sketch:type="MSShapeGroup"></path>
            <path d="M110.358995,84.1194347 C99.4159937,94.1720266 95.7683266,107.167681 107.684039,104.960222 C102.820483,109.129289 113.033951,117.711326 117.167974,111.82585 C114.493018,118.445628 127.380796,122.124944 128.839863,115.014114 C128.596685,122.859897 143.673709,122.859897 143.916887,115.749067 C145.86231,121.633892 156.805311,120.653738 158.0212,114.523062 C160.939334,118.691479 170.18009,113.787459 168.234668,109.129289 C172.36869,111.82585 177.812132,107.57093 176.016358,101.283507 C174.314113,94.663079 170.909624,90.2488101 166.775601,86.5707946" id="Stroke-23" stroke="#000414" stroke-width="0.689" stroke-linecap="round" stroke-linejoin="round" sketch:type="MSShapeGroup"></path>
            <path d="M113.336269,76.8544808 C94.7915682,112.883832 179.285432,118.767888 165.650058,76.0531875" id="Fill-24" fill="#E8CAA1" sketch:type="MSShapeGroup"></path>
            <path d="M113.336269,76.8544808 C94.7915682,112.883832 179.285432,118.767888 165.650058,76.0531875" id="Stroke-25" stroke="#000414" stroke-width="0.689" sketch:type="MSShapeGroup"></path>
            <path d="M124.495677,62.8018171 C124.495677,65.6646582 122.173198,67.9869404 119.308036,67.9869404 C116.443516,67.9869404 114.121037,65.6646582 114.121037,62.8018171 C114.121037,59.9376906 116.443516,57.6160512 119.308036,57.6160512 C122.173198,57.6160512 124.495677,59.9376906 124.495677,62.8018171" id="Fill-26" fill="#000414" sketch:type="MSShapeGroup"></path>
            <path d="M119.884726,60.4968537 C119.884726,62.0878237 118.594427,63.3776563 117.002882,63.3776563 C115.411925,63.3776563 114.121037,62.0878237 114.121037,60.4968537 C114.121037,58.9052956 115.411925,57.6160512 117.002882,57.6160512 C118.594427,57.6160512 119.884726,58.9052956 119.884726,60.4968537" id="Fill-27" fill="#FFFFFF" sketch:type="MSShapeGroup"></path>
            <path d="M164.841499,62.8018171 C164.841499,65.6646582 162.51902,67.9869404 159.6545,67.9869404 C156.789981,67.9869404 154.466859,65.6646582 154.466859,62.8018171 C154.466859,59.9376906 156.789981,57.6160512 159.6545,57.6160512 C162.51902,57.6160512 164.841499,59.9376906 164.841499,62.8018171" id="Fill-28" fill="#000414" sketch:type="MSShapeGroup"></path>
            <path d="M160.230548,60.4968537 C160.230548,62.0878237 158.93966,63.3776563 157.348703,63.3776563 C155.757158,63.3776563 154.466859,62.0878237 154.466859,60.4968537 C154.466859,58.9052956 155.757158,57.6160512 157.348703,57.6160512 C158.93966,57.6160512 160.230548,58.9052956 160.230548,60.4968537" id="Fill-29" fill="#FFFFFF" sketch:type="MSShapeGroup"></path>
            <path d="M260.731436,100.251929 C264.538981,107.843275 263.865102,146.476163 252.674426,164.781906 C251.331695,152.882306 256.25504,112.609157 260.731436,100.251929" id="Fill-30" fill="#F6BA61" sketch:type="MSShapeGroup"></path>
            <path d="M154.943623,165.934227 L89.9135447,160.134656 L92.6692049,123.298349 L160.230548,125.235638" id="Fill-31" fill="#62957F" sketch:type="MSShapeGroup"></path>
            <path d="M153.314121,124.45067 L187.896254,125.469016 L187.896254,168.238869 L154.890407,165.249658" id="Fill-32" fill="#537F6C" sketch:type="MSShapeGroup"></path>
            <path d="M140.705478,34.146682 C162.759655,26.3815134 157.313941,-6.84413404 112.961913,6.64139706 C112.961913,6.64139706 101.127291,9.09895208 96.1779279,11.0137943 C86.2849884,15.9073526 63.9884232,28.338153 73.9951633,45.9021936 C91.2671414,60.851939 100.015002,44.2773207 115.610832,32.9783147 C126.008481,36.5023559 134.459945,36.3456157 140.705478,34.146682" id="Fill-33" fill="#F6BA61" sketch:type="MSShapeGroup"></path>
            <path d="M94.5244957,279.941989 L94.5244957,327.259171 L107.204611,327.259171 L107.204611,275.404725 L94.5244957,279.941989" id="Fill-34" fill="#F6BA61" sketch:type="MSShapeGroup"></path>
            <path d="M112.094388,11.7132987 C110.07917,15.6857465 105.224563,17.273035 101.250719,15.2591749 C97.2768759,13.2453149 95.6890299,8.39111241 97.7035974,4.41931484 C99.7188154,0.44621675 104.573422,-1.14042144 108.547266,0.873438591 C112.521109,2.88794888 114.109606,7.74085086 112.094388,11.7132987" id="Fill-35" fill="#D7A557" sketch:type="MSShapeGroup"></path>
            <path d="M100.288184,279.941989 L100.288184,327.259171 L112.9683,327.259171 L112.9683,275.404725 L100.288184,279.941989" id="Fill-36" fill="#B48B49" sketch:type="MSShapeGroup"></path>
            <path d="M163.688761,279.941989 L163.688761,327.259171 L176.368876,327.259171 L176.368876,275.404725 L163.688761,279.941989" id="Fill-37" fill="#F6BA61" sketch:type="MSShapeGroup"></path>
            <path d="M169.45245,279.941989 L169.45245,327.259171 L182.132565,327.259171 L182.132565,275.404725 L169.45245,279.941989" id="Fill-38" fill="#B48B49" sketch:type="MSShapeGroup"></path>
            <path d="M82.3784448,140.097822 L70.3170029,252.630435 L205.18732,258.119909 L193.125233,148.331711 L190.932713,120.466345 L181.612243,122.113123 L179.418433,147.234074 L97.7293122,145.587943 L94.4398867,120.335843 L85.1194176,118.689065 L82.3784448,140.097822" id="Fill-39" fill="#CBCCCB" sketch:type="MSShapeGroup"></path>
            <path d="M84.1498559,120.993707 L46.1095101,181.366388 L74.8717069,209.722426 L84.1498559,120.993707" id="Fill-40" fill="#62957F" sketch:type="MSShapeGroup"></path>
            <path d="M260.90353,100.251929 C259.02505,97.0108663 256.406246,92.6270271 260.013788,89.4754436 C260.859873,88.7359623 263.308968,85.8790209 262.485019,82.9671137 C271.877418,97.0108663 265.912399,97.6698164 260.90353,100.251929" id="Fill-41" fill="#F6BA61" sketch:type="MSShapeGroup"></path>
            <path d="M260.518732,132.51626 C260.518732,135.69866 258.454022,138.278523 255.907781,138.278523 C253.360901,138.278523 251.29683,135.69866 251.29683,132.51626 C251.29683,129.335175 253.360901,126.755313 255.907781,126.755313 C258.454022,126.755313 260.518732,129.335175 260.518732,132.51626" id="Fill-42" fill="#E8CAA1" sketch:type="MSShapeGroup"></path>
            <path d="M260.518732,89.2901148 C261.440692,88.5716907 264.10942,85.7961025 263.21158,82.9671137 C266.894732,87.8768623 268.410338,91.1032507 268.587896,93.3380029 C263.010571,92.4519258 265.955351,88.9051339 260.518732,89.2901148" id="Fill-43" fill="#CE4530" sketch:type="MSShapeGroup"></path>
            <path d="M128.212558,187.828327 C131.16302,192.200204 133.675742,216.020587 128.086763,228.159563 C126.345964,220.944236 126.358671,195.780631 128.212558,187.828327" id="Fill-44" fill="#F6BA61" sketch:type="MSShapeGroup"></path>
            <path d="M128.986204,187.828327 C127.596354,186.050091 125.668044,183.65147 127.648917,181.505917 C128.114034,181.003466 129.406093,179.120195 128.687331,177.457438 C135.478893,185.06423 131.869195,185.913115 128.986204,187.828327" id="Fill-45" fill="#F6BA61" sketch:type="MSShapeGroup"></path>
            <path d="M118.905647,190.132969 C122.102656,194.163062 126.945028,217.683974 123.041593,230.464205 C120.666078,223.452488 118.024245,198.297615 118.905647,190.132969" id="Fill-46" fill="#F6BA61" sketch:type="MSShapeGroup"></path>
            <path d="M119.349675,188.980648 C117.621391,187.357831 115.232234,185.174225 117.116057,182.792109 C117.557974,182.233801 118.726852,180.195355 117.740883,178.609759 C121.230828,181.758618 122.240829,186.726322 119.349675,188.980648" id="Fill-47" fill="#F6BA61" sketch:type="MSShapeGroup"></path>
            <path d="M113.107148,197.046895 C115.664907,200.040498 119.538628,217.513847 116.41607,227.007242 C114.515659,221.799473 112.402259,203.112173 113.107148,197.046895" id="Fill-48" fill="#F6BA61" sketch:type="MSShapeGroup"></path>
            <path d="M97.9827089,209.889648 L138.298694,208.570105 C139.578567,243.537998 99.2625815,246.836856 97.9827089,209.889648" id="Fill-49" fill="#A7A8A7" sketch:type="MSShapeGroup"></path>
            <path d="M112.474104,195.894574 L110.662824,192.074107 L111.15702,188.980648 L112.9683,191.892515 L112.474104,195.894574" id="Fill-50" fill="#F6BA61" sketch:type="MSShapeGroup"></path>
            <path d="M68.1131598,193.74625 C78.1876839,194.417821 84.4360399,195.551216 80.79986,184.816992 C72.268426,162.340225 20.51179,153.554004 3.05928545,179.537434 C-2.15411817,189.439732 -1.81535964,200.197689 12.9257887,209.852398 C30.6571572,221.038185 52.4787452,225.204231 71.4608154,211.255833 C74.5354033,207.419478 72.3547257,205.201435 69.399927,203.9962 C64.3861719,201.465784 61.5260453,195.437685 68.1131598,193.74625 L68.1131598,193.74625 Z M55.2815534,207.932617 C52.1528672,207.587531 49.8961944,204.78002 50.2426813,201.663984 C50.5891681,198.546023 53.4080771,196.298475 56.5374073,196.643561 C59.6673815,196.989288 61.9240543,199.796158 61.5769234,202.914118 C61.2304366,206.030154 58.4121717,208.278344 55.2815534,207.932617 L55.2815534,207.932617 Z" id="Fill-51" fill="#F6BA61" sketch:type="MSShapeGroup"></path>
            <path d="M65.7060519,204.536645 C65.7060519,206.765203 63.8998238,208.570105 61.6711334,208.570105 C59.4431157,208.570105 57.6368876,206.765203 57.6368876,204.536645 C57.6368876,202.309433 59.4431157,200.503858 61.6711334,200.503858 C63.8998238,200.503858 65.7060519,202.309433 65.7060519,204.536645" id="Fill-52" fill="#E8CAA1" sketch:type="MSShapeGroup"></path>
            <path d="M145.244957,255.7026 L205.18732,258.119909 L193.025403,148.458231 L190.814737,118.689065 L181.417129,120.333945 L179.205161,147.36186 L153.393454,146.821095" id="Fill-53" fill="#AEAFAD" sketch:type="MSShapeGroup"></path>
            <path d="M21.9020173,198.775376 C21.9020173,201.002902 20.0957659,202.8085 17.8674352,202.8085 C15.6391044,202.8085 13.832853,201.002902 13.832853,198.775376 C13.832853,196.547851 15.6391044,194.742253 17.8674352,194.742253 C20.0957659,194.742253 21.9020173,196.547851 21.9020173,198.775376" id="Fill-54" fill="#CE4530" sketch:type="MSShapeGroup"></path>
            <path d="M193.659942,214.907871 C193.659942,216.498791 192.369593,217.788673 190.778098,217.788673 C189.186603,217.788673 187.896254,216.498791 187.896254,214.907871 C187.896254,213.316951 189.186603,212.027068 190.778098,212.027068 C192.369593,212.027068 193.659942,213.316951 193.659942,214.907871" id="Fill-55" fill="#B13C2C" sketch:type="MSShapeGroup"></path>
            <path d="M187.896254,228.159563 C187.896254,230.704537 185.831885,232.768847 183.285303,232.768847 C180.73872,232.768847 178.674352,230.704537 178.674352,228.159563 C178.674352,225.614589 180.73872,223.550278 183.285303,223.550278 C185.831885,223.550278 187.896254,225.614589 187.896254,228.159563" id="Fill-56" fill="#B13C2C" sketch:type="MSShapeGroup"></path>
            <path d="M27.6657061,186.099845 C27.6657061,188.32737 25.8594547,190.132969 23.6311239,190.132969 C21.4027932,190.132969 19.5965418,188.32737 19.5965418,186.099845 C19.5965418,183.87232 21.4027932,182.066722 23.6311239,182.066722 C25.8594547,182.066722 27.6657061,183.87232 27.6657061,186.099845" id="Fill-57" fill="#62957F" sketch:type="MSShapeGroup"></path>
            <path d="M30.2114467,208.280186 C30.2030457,205.712123 31.2227981,204.184431 30.1390689,202.048584 C29.3422662,200.479064 26.8646168,200.110586 27.925728,197.235789 C28.7244694,195.072057 32.1120119,194.279994 34.1586252,195.003009 C36.8908896,195.96902 36.2045923,197.695226 36.673756,200.394746 C37.2928452,203.956041 38.7184306,203.261575 40.4781174,205.682247 C42.2416816,208.110885 41.7007863,210.724759 38.9995411,212.20664 C33.9169349,214.993135 29.5542299,211.16295 30.2114467,208.612149" id="Fill-58" fill="#CE4530" sketch:type="MSShapeGroup"></path>
            <path d="M194.81268,273.269309 C194.81268,278.26709 190.835795,282.318651 185.930129,282.318651 L91.8796688,282.318651 C86.9740034,282.318651 82.9971182,278.26709 82.9971182,273.269309 L82.9971182,272.930856 C82.9971182,267.933075 86.9740034,263.881514 91.8796688,263.881514 L185.930129,263.881514 C190.835795,263.881514 194.81268,267.933075 194.81268,272.930856 L194.81268,273.269309" id="Fill-59" fill="#F6BA61" sketch:type="MSShapeGroup"></path>
            <path d="M152.161383,103.708892 C162.287564,99.8152836 169.116139,90.8523596 164.547161,76.0531875 L152.902551,76.279359 L152.161383,103.708892" id="Fill-60" fill="#D6BB95" sketch:type="MSShapeGroup"></path>
            <path d="M134.870317,34.5696307 C136.962327,34.347036 138.885678,33.9524363 140.634006,33.4173097" id="Fill-61" fill="#F6BA61" sketch:type="MSShapeGroup"></path>
            <path d="M121.037464,4.78036991 C159.003495,-3.06871205 162.714737,26.2580747 141.813838,33.4173097 C145.572825,21.9411115 141.873842,4.63691743 121.037464,4.78036991" id="Fill-62" fill="#B48B49" sketch:type="MSShapeGroup"></path>
        </g>
    </g>
</svg>