<?xml version="1.0" encoding="UTF-8" standalone="no"?>
<svg width="24px" height="24px" viewBox="0 0 24 24" version="1.1" xmlns="http://www.w3.org/2000/svg" xmlns:xlink="http://www.w3.org/1999/xlink" xmlns:sketch="http://www.bohemiancoding.com/sketch/ns">
    <!-- Generator: Sketch 3.3.1 (12005) - http://www.bohemiancoding.com/sketch -->
    <title>avatar</title>
    <desc>Created with Sketch.</desc>
    <defs>
        <path id="path-1" d="M23.8242564,14.0350057 C22.7002505,20.5652895 16.4952256,24.9481026 9.96471934,23.824219 C3.43472544,22.7002073 -0.948193045,16.4952784 0.17581285,9.9648664 C1.29969065,3.43471063 7.50471556,-0.948102431 14.0348376,0.175781184 C20.5652157,1.29979289 24.9480061,7.50484989 23.8242564,14.0350057"></path>
    </defs>
    <g id="avatar" stroke="none" stroke-width="1" fill="none" fill-rule="evenodd" sketch:type="MSPage">
        <g id="Group-183-Copy-2" sketch:type="MSLayerGroup">
            <mask id="mask-2" sketch:name="Clip 161" fill="white">
                <use xlink:href="#path-1"></use>
            </mask>
            <g id="Clip-161"></g>
            <path d="M9.96471934,23.824219 C3.43472544,22.7002073 -0.948193045,16.4951503 0.17581285,9.9648664 C1.29969065,3.43471063 7.50471556,-0.948102431 14.0348376,0.175781184 C20.5652157,1.29979289 24.9480061,7.50484989 23.8242564,14.0350057 C22.7002505,20.5652895 16.4952256,24.9481026 9.96471934,23.824219 Z" id="Fill-160" fill="#FFEB77" sketch:type="MSShapeGroup" mask="url(#mask-2)"></path>
            <path d="M7.57481489,25.2086331 L7.94244604,21.9280576 L6.04316547,24.9909658 L6.21796986,25.1214624 L6.15646694,25.2086331 L7.57481489,25.2086331" id="Fill-162" fill="#65B2B0" sketch:type="MSShapeGroup" mask="url(#mask-2)"></path>
            <path d="M18.6650712,25.1243167 L18.8201439,25.0164117 L18.5985742,24.6384934 L16.9208633,22.1007194 L17.1703905,24.1924444 C17.2081462,24.5090075 17.2404148,24.8507901 17.2675885,25.2086331 L18.7288248,25.2086331 L18.6650712,25.1243167" id="Fill-163" fill="#65B2B0" sketch:type="MSShapeGroup" mask="url(#mask-2)"></path>
            <path d="M5.22892845,23.1366906 L19.2370373,22.9932856 C19.2370373,22.9932856 25.1637272,3.10791367 11.8021524,3.10791367 C-1.23666793,3.10791367 5.22892845,23.1366906 5.22892845,23.1366906" id="Fill-164" fill="#3D1F17" sketch:type="MSShapeGroup" mask="url(#mask-2)"></path>
            <path d="M7.07961618,24.3453237 C7.31519733,23.9008133 7.58653861,23.4753588 7.8868469,23.074405 C8.93734911,21.6713905 10.072317,20.9331324 10.0929528,20.9196506 C10.5310466,20.6411996 10.6639615,20.0561673 10.3895441,19.6120457 C10.1144858,19.1671464 9.53514587,19.0319395 9.09538586,19.3100016 C9.03898994,19.3455209 7.69881777,20.2027818 6.43785623,21.8627283 C5.86607849,22.6156349 5.38235529,23.4573399 5.00719424,24.3453237 L7.07961618,24.3453237" id="Fill-165" fill="#F0A77A" sketch:type="MSShapeGroup" mask="url(#mask-2)"></path>
            <path d="M14.4265045,20.9197764 C14.4472053,20.932999 15.5857471,21.6713875 16.6395573,23.0742739 C16.9424827,23.4773024 17.2122355,23.9021091 17.4458583,24.3453237 L19.5107914,24.3453237 C19.1489781,23.4666725 18.6796751,22.6327445 18.0929821,21.8628552 C16.8281785,20.2026477 15.4837862,19.3457747 15.4273413,19.3099961 C14.9859394,19.0319337 14.4047752,19.1671407 14.1289793,19.6121702 C13.8535692,20.0562922 13.9869027,20.6411955 14.4265045,20.9197764" id="Fill-166" fill="#F4BB8C" sketch:type="MSShapeGroup" mask="url(#mask-2)"></path>
            <path d="M16.9208633,24.3453237 C16.6835937,21.1547579 16.0182184,20.1920302 15.4503022,19.5629082 C14.9206553,18.9758918 13.1170239,18.0899906 12.1703693,18.3481949 C11.2237148,18.0899906 9.42008333,18.9758918 8.89043642,19.5629082 C8.32277535,20.1920302 7.88357152,21.1547579 7.76978417,24.3453237 L16.9208633,24.3453237" id="Fill-167" fill="#EB8E5A" sketch:type="MSShapeGroup" mask="url(#mask-2)"></path>
            <path d="M16.9208633,24.1726619 C16.8884758,23.5348859 16.8340698,22.9888736 16.7509888,22.52141 C16.7509888,22.52141 16.0312942,21.6901028 12.155671,21.7595122 C8.8187307,21.8192883 7.8826925,22.52141 7.8826925,22.52141 C7.83174294,22.9888736 7.79372279,23.5348859 7.76978417,24.1726619 L16.9208633,24.1726619" id="Fill-168" fill="#DA3331" sketch:type="MSShapeGroup" mask="url(#mask-2)"></path>
            <path d="M7.19326122,24.3453237 L7.77151804,23.4573267 L7.66683919,24.3453237 L9.66906475,24.3453237 L9.66906475,19.1654676 C9.66906475,19.1654676 7.1299881,19.7342575 5.35251799,23.1827603 L6.89138761,24.3453237 L7.19326122,24.3453237" id="Fill-169" fill="#3B7A90" sketch:type="MSShapeGroup" mask="url(#mask-2)"></path>
            <path d="M7.55175026,24.3453237 L7.5971223,24.2819889 L5.33503828,22.618705 L4.6618705,23.5590135 L5.73098926,24.3453237 L7.55175026,24.3453237" id="Fill-170" fill="#418EAF" sketch:type="MSShapeGroup" mask="url(#mask-2)"></path>
            <path d="M10.0143885,24.3453237 L10.0143885,18.647482 L9.15107914,18.9706103 L9.15107914,24.3453237 L10.0143885,24.3453237" id="Fill-171" fill="#418EAF" sketch:type="MSShapeGroup" mask="url(#mask-2)"></path>
            <path d="M17.0235495,24.3453237 L16.9192588,23.4573267 L17.4975157,24.3453237 L17.7993893,24.3453237 L19.3381295,23.1827603 C17.5606594,19.7342575 15.0215827,19.1654676 15.0215827,19.1654676 L15.0215827,24.3453237 L17.0235495,24.3453237" id="Fill-172" fill="#3B7A90" sketch:type="MSShapeGroup" mask="url(#mask-2)"></path>
            <path d="M18.9595304,24.3453237 L20.028777,23.5590135 L19.3553536,22.618705 L17.0935252,24.2819889 L17.1388972,24.3453237 L18.9595304,24.3453237" id="Fill-173" fill="#418EAF" sketch:type="MSShapeGroup" mask="url(#mask-2)"></path>
            <path d="M15.3669065,24.3453237 L15.3669065,18.9706103 L14.5035971,18.647482 L14.5035971,24.3453237 L15.3669065,24.3453237" id="Fill-174" fill="#418EAF" sketch:type="MSShapeGroup" mask="url(#mask-2)"></path>
            <path d="M12.2589928,6.04316547 C10.639281,6.11789126 8.95883329,6.56256056 7.75215185,7.38301927 C5.97409266,8.59172168 5.32028748,11.116386 5.57994664,13.0471836 C6.26297146,18.1282833 11.1542611,19.2495515 12.2589928,19.3381295 L12.2589928,6.04316547" id="Fill-175" fill="#F4BB8C" sketch:type="MSShapeGroup" mask="url(#mask-2)"></path>
            <path d="M12.2589928,6.04316547 C13.8806155,6.11789126 15.45599,6.56256056 16.664318,7.38301927 C18.4443597,8.59172168 18.7442059,11.1027879 18.6242419,13.0471836 C18.4618624,15.6798698 15.596523,19.2423076 12.2589928,19.3381295 L12.2589928,6.04316547" id="Fill-176" fill="#F4BB8C" sketch:type="MSShapeGroup" mask="url(#mask-2)"></path>
            <path d="M9.66906475,13.1222389 C9.66906475,13.5038009 9.36004257,13.8129496 8.97848056,13.8129496 C8.59691856,13.8129496 8.28776978,13.5038009 8.28776978,13.1222389 C8.28776978,12.7408035 8.59691856,12.4316547 8.97848056,12.4316547 C9.36004257,12.4316547 9.66906475,12.7408035 9.66906475,13.1222389" id="Fill-177" fill="#262A28" sketch:type="MSShapeGroup" mask="url(#mask-2)"></path>
            <path d="M16.057554,13.1222389 C16.057554,13.5038009 15.7482786,13.8129496 15.3668432,13.8129496 C14.9854078,13.8129496 14.676259,13.5038009 14.676259,13.1222389 C14.676259,12.7408035 14.9854078,12.4316547 15.3668432,12.4316547 C15.7482786,12.4316547 16.057554,12.7408035 16.057554,13.1222389" id="Fill-178" fill="#262A28" sketch:type="MSShapeGroup" mask="url(#mask-2)"></path>
            <path d="M13.294964,14.8489825 C13.294964,15.135048 13.0357402,15.3669065 12.7160661,15.3669065 L11.8017875,15.3669065 C11.4819814,15.3669065 11.2230216,15.135048 11.2230216,14.8489825 C11.2230216,14.5627937 11.4819814,14.3309353 11.8017875,14.3309353 L12.7160661,14.3309353 C13.0357402,14.3309353 13.294964,14.5627937 13.294964,14.8489825" id="Fill-179" fill="#EB8E5A" sketch:type="MSShapeGroup" mask="url(#mask-2)"></path>
            <path d="M13.7048681,16.0600644 C13.5300051,16.0381184 13.3708886,16.1624791 13.3473958,16.3383037 C13.3353319,16.4224942 13.2054227,17.0912696 12.2591052,17.13683 C11.3126608,17.0912696 11.1828786,16.4224942 11.1705608,16.3383037 C11.1471949,16.1624791 10.9882054,16.0381184 10.8132154,16.0600644 C10.6377175,16.0822671 10.5130149,16.2441028 10.5348569,16.4214675 C10.5928906,16.8897771 11.0290957,17.7283451 12.2411999,17.7816059 L12.2411999,17.7841727 L12.2591052,17.7830176 L12.2768836,17.7841727 L12.2768836,17.7816059 C13.4889878,17.7283451 13.925193,16.8897771 13.9830997,16.4214675 C14.0050687,16.2441028 13.880493,16.0822671 13.7048681,16.0600644" id="Fill-180" fill="#DA3331" sketch:type="MSShapeGroup" mask="url(#mask-2)"></path>
            <path d="M9.0299528,8.93046756 C9.0299528,8.93046756 13.3292535,12.918615 18.8113156,12.1639724 C18.8113156,12.1639724 19.3486324,4.83453237 12.0395144,4.83453237 C4.73039647,4.83453237 5.74585352,10.9515203 5.74585352,10.9515203 C5.74585352,10.9515203 7.09502464,10.6550719 9.0299528,8.93046756" id="Fill-181" fill="#5B2E1C" sketch:type="MSShapeGroup" mask="url(#mask-2)"></path>
            <path d="M9.32374101,8.22606031 L7.97201624,5.17985612 L6.58193084,7.10816939 L6.53966912,7.04421594 L4.14388489,6.83617301 L5.58442428,9.84172662 L6.96306651,7.88104823 L9.32374101,8.22606031" id="Fill-182" fill="#DA3331" sketch:type="MSShapeGroup" mask="url(#mask-2)"></path>
        </g>
    </g>
</svg>