<?xml version="1.0" encoding="UTF-8" standalone="no"?>
<svg width="91px" height="150px" viewBox="0 0 91 150" version="1.1" xmlns="http://www.w3.org/2000/svg" xmlns:xlink="http://www.w3.org/1999/xlink" xmlns:sketch="http://www.bohemiancoding.com/sketch/ns">
    <!-- Generator: Sketch 3.3.1 (12005) - http://www.bohemiancoding.com/sketch -->
    <title>beard-man</title>
    <desc>Created with Sketch.</desc>
    <defs>
        <path d="M8.92434498,13.0126638 C6.3481441,13.0126638 4.37882096,10.3644105 4.56386463,7.94181223 C4.57434498,7.80524017 4.59334061,7.67325328 4.61430131,7.5419214 C5.64432314,8.95545852 7.17052402,9.96582969 8.95676856,9.96582969 C10.8546943,9.96582969 12.6605895,9.4231441 14.0024017,8.33449782 C14.0020742,8.44061135 14.0033843,8.54672489 13.9951965,8.65218341 C13.7888646,11.3629913 11.5018559,13.0126638 8.92434498,13.0126638 L8.92434498,13.0126638 Z M10.2622271,0.109061135 C4.65491266,0.109061135 0.109388646,4.65491266 0.109388646,10.2622271 C0.109388646,15.8695415 4.65491266,20.4150655 10.2622271,20.4150655 C15.8695415,20.4150655 20.4150655,15.8695415 20.4150655,10.2622271 C20.4150655,4.65491266 15.8695415,0.109061135 10.2622271,0.109061135 L10.2622271,0.109061135 Z" id="path-1"></path>
    </defs>
    <g id="credits" stroke="none" stroke-width="1" fill="none" fill-rule="evenodd" sketch:type="MSPage">
        <g id="beard-man" sketch:type="MSLayerGroup" transform="translate(7.712780, 0.000000)">
            <path d="M68.5591703,118.449236 C68.5591703,118.449236 20.7425764,114.518777 23.0351528,118.667686 C25.3277293,122.816594 33.8423581,126.419541 33.8423581,126.419541 L27.9353712,145.087664 L29.8293668,146.179258 L40.845524,128.281114 C40.845524,128.281114 44.7219432,128.806441 49.65131,128.449127 L48.5308952,127.293013 L49.65131,128.449127 C52.1819869,128.266048 54.989738,127.849454 57.6936681,127.011026 C62.1881004,125.616812 66.3943231,123.054694 68.5591703,118.449236" id="Fill-1" fill="#454C53" sketch:type="MSShapeGroup"></path>
            <path d="M49.65131,128.449127 L66.2836245,145.607424 L67.6650655,144.432642 L57.6936681,127.011026 C54.989738,127.849454 52.1819869,128.266048 49.65131,128.449127" id="Fill-2" fill="#454C53" sketch:type="MSShapeGroup"></path>
            <path d="M27.9353712,145.087664 C27.9353712,145.087664 23.3079694,143.286354 22.7076419,143.77762 C22.1069869,144.268886 28.2206332,148.9631 28.2206332,148.9631 L29.8293668,146.179258 L27.9353712,145.087664" id="Fill-3" fill="#869B97" sketch:type="MSShapeGroup"></path>
            <path d="M65.7694323,145.589083 C65.7694323,145.589083 62.221179,149.062991 62.4212882,149.812336 C62.6213974,150.562009 69.4182314,146.926638 69.4182314,146.926638 L67.544869,144.313428 L65.7694323,145.589083" id="Fill-4" fill="#869B97" sketch:type="MSShapeGroup"></path>
            <path d="M22.2707424,74.6724891 C22.2707424,74.6724891 12.3366812,93.7768559 23.0351528,118.667686 C23.0351528,118.667686 45.6334061,125.217904 68.5591703,118.449236 C68.5591703,118.449236 73.6028384,102.619651 69.3887555,74.235262 L22.2707424,74.6724891" id="Fill-5" fill="#CD944D" sketch:type="MSShapeGroup"></path>
            <path d="M35.69869,130.676856 L53.7117904,130.676856 L53.7117904,142.467249 L35.69869,142.467249 L35.69869,130.676856 Z" id="Fill-6" fill="#CAAF9A" sketch:type="MSShapeGroup"></path>
            <path d="M49.0902838,131.004367 L47.1252183,131.004367 C47.1252183,129.366812 45.9091703,128.293559 44.414083,128.293559 C42.9193231,128.293559 41.7032751,129.366812 41.7032751,131.004367 L39.7382096,131.004367 C39.7382096,128.384279 41.835917,126.328493 44.414083,126.328493 C46.9922489,126.328493 49.0902838,128.384279 49.0902838,131.004367" id="Fill-7" fill="#CAAF9A" sketch:type="MSShapeGroup"></path>
            <path d="M41.5938865,141.564301 C41.5938865,142.0631 41.3420306,142.467249 40.829476,142.467249 L40.7207424,142.467249 C40.2081878,142.467249 39.628821,142.0631 39.628821,141.564301 L39.628821,131.579803 C39.628821,131.081004 40.2081878,130.676856 40.7207424,130.676856 L40.829476,130.676856 C41.3420306,130.676856 41.5938865,131.081004 41.5938865,131.579803 L41.5938865,141.564301" id="Fill-8" fill="#D5BFAE" sketch:type="MSShapeGroup"></path>
            <path d="M49.4541485,141.564301 C49.4541485,142.0631 49.2022926,142.467249 48.689738,142.467249 L48.5810044,142.467249 C48.0684498,142.467249 47.489083,142.0631 47.489083,141.564301 L47.489083,131.579803 C47.489083,131.081004 48.0684498,130.676856 48.5810044,130.676856 L48.689738,130.676856 C49.2022926,130.676856 49.4541485,131.081004 49.4541485,131.579803 L49.4541485,141.564301" id="Fill-9" fill="#D5BFAE" sketch:type="MSShapeGroup"></path>
            <path d="M43.558952,135.262009 L45.8515284,135.262009 L45.8515284,137.554585 L43.558952,137.554585 L43.558952,135.262009 Z" id="Fill-10" fill="#FFFDFB" sketch:type="MSShapeGroup"></path>
            <path d="M35.69869,130.676856 L53.7117904,130.676856 L53.7117904,136.244541 L35.69869,136.244541 L35.69869,130.676856 Z" id="Fill-11" fill="#565347" sketch:type="MSShapeGroup"></path>
            <path d="M53.4353712,89.9937773 L45.8679039,124.707314 C46.1669214,124.905131 46.4253275,125.158297 46.6306769,125.452074 L53.5149563,89.956441 L53.4353712,89.9937773" id="Fill-12" fill="#565347" sketch:type="MSShapeGroup"></path>
            <path d="M45.8679039,124.707314 L45.8515284,124.781659 L42.6858079,124.781659 L42.691048,124.740393 C41.9512009,125.25262 41.4655022,126.106441 41.4655022,127.074563 C41.4655022,128.642031 42.7362445,129.912773 44.3037118,129.912773 C45.8715066,129.912773 47.1419214,128.642031 47.1419214,127.074563 C47.1419214,126.470633 46.9519651,125.9119 46.6306769,125.452074 C46.4253275,125.158297 46.1669214,124.905131 45.8679039,124.707314" id="Fill-13" fill="#FFD7CB" sketch:type="MSShapeGroup"></path>
            <path d="M45.8515284,124.781659 L45.8679039,124.707314 L53.5149563,89.6286026 L46.8340611,91.4849345 L42.691048,124.740393 L42.6858079,124.781659 L45.8515284,124.781659" id="Fill-14" fill="#CD944D" sketch:type="MSShapeGroup"></path>
            <path d="M67.3581878,51.6376638 C61.8995633,50.5460699 61.4629913,62.7730349 61.4629913,62.7730349 L58.6244541,62.3364629 C58.6244541,62.3364629 63.2672489,47.3921397 63.4280568,38.864738 C63.6465066,27.2924672 56.4386463,20.7422489 40.5022926,20.7422489 C32.6872271,20.7422489 25.7141921,20.6076419 19.9123362,19.1092795 C11.2395197,26.7953057 5.56768559,38.70131 5.56768559,55.349345 L22.2707424,55.349345 L22.2707424,58.8586245 C22.9637555,59.5169214 23.3626638,60.0438865 23.3626638,60.0438865 C28.4882096,55.5101528 36.0262009,58.9519651 37.1213974,66.7427948 C37.6418122,70.4472707 39.7663755,73.1197598 41.3947598,74.6724891 L69.4323144,74.6724891 C69.4323144,74.6724891 70.2887555,70.4299127 71.0574236,64.0899563 C70.9886463,64.306441 70.9231441,64.5206332 70.8524017,64.7381004 C70.8524017,64.7381004 72.8168122,52.7292576 67.3581878,51.6376638" id="Fill-15" fill="#FFD7CB" sketch:type="MSShapeGroup"></path>
            <path d="M22.2707424,67.7629913 L22.2707424,74.6724891 L29.3721616,74.6724891 C24.5037118,72.5898472 22.8029476,69.2351528 22.2707424,67.7629913" id="Fill-16" fill="#FFD7CB" sketch:type="MSShapeGroup"></path>
            <path d="M69.7598253,11.4628821 C70.4148472,7.75120087 76.0919214,2.94759825 76.0919214,2.94759825 C73.2537118,3.60262009 68.0132096,9.06124454 68.0132096,9.06124454 C67.9667031,8.99312227 67.9182314,8.92893013 67.8713974,8.86179039 C69.3399563,5.45829694 67.7947598,1.80131004 67.7947598,1.80131004 C67.904476,3.77783843 67.0575328,5.90043668 66.4873362,7.08504367 C55.1891921,-5.84934498 33.0710699,2.5889738 26.9652838,6.00425764 C14.0829694,13.2094978 6.00458515,8.62434498 6.00458515,8.62434498 C9.12019651,14.5218341 13.8835153,17.5519651 19.9123362,19.1092795 C25.7141921,20.6076419 32.6872271,20.7422489 40.5022926,20.7422489 C56.4386463,20.7422489 63.6465066,27.2924672 63.4280568,38.864738 C63.2672489,47.3921397 58.6244541,62.3364629 58.6244541,62.3364629 L61.4629913,62.7730349 C61.4629913,62.7730349 61.8995633,50.5460699 67.3581878,51.6376638 C72.8168122,52.7292576 70.8524017,64.7381004 70.8524017,64.7381004 C70.9231441,64.5206332 70.9886463,64.306441 71.0574236,64.0899563 C81.8299127,30.2207424 69.7598253,11.4628821 69.7598253,11.4628821" id="Fill-17" fill="#454C53" sketch:type="MSShapeGroup"></path>
            <path d="M37.1213974,66.7427948 C36.0262009,58.9519651 28.4882096,55.5101528 23.3626638,60.0438865 C23.3626638,60.0438865 22.9637555,59.5169214 22.2707424,58.8586245 C20.5179039,57.1945415 16.8792576,54.6923581 13.0149563,57.7477074 C7.62216157,62.0115721 6.78504367,66.2741266 0.218449782,67.5766376 C0.218449782,67.5766376 17.4674672,74.235917 22.0526201,67.0306769 C22.0526201,67.0306769 22.1056769,67.3067686 22.2707424,67.7629913 C22.8029476,69.2351528 24.5037118,72.5898472 29.3721616,74.6724891 C32.5264192,76.0218341 37.0087336,76.8373362 43.3667031,76.259607 C43.3667031,76.259607 42.493559,75.7208515 41.3947598,74.6724891 C39.7663755,73.1197598 37.6418122,70.4472707 37.1213974,66.7427948" id="Fill-18" fill="#454C53" sketch:type="MSShapeGroup"></path>
            <path d="M41.0528384,39.4418122 C39.2665939,39.4418122 37.740393,38.431441 36.7103712,37.0179039 C36.6894105,37.1492358 36.6704148,37.2812227 36.6599345,37.4177948 C36.4748908,39.840393 38.444214,42.4886463 41.0204148,42.4886463 C43.5979258,42.4886463 45.8849345,40.8389738 46.0912664,38.1281659 C46.0994541,38.0227074 46.0981441,37.9165939 46.0984716,37.8104803 C44.7566594,38.8991266 42.9507642,39.4418122 41.0528384,39.4418122" id="Fill-19" fill="#454C53" sketch:type="MSShapeGroup"></path>
            <g id="Group-22" transform="translate(32.096070, 29.475983)">
                <mask id="mask-2" sketch:name="Clip 21" fill="white">
                    <use xlink:href="#path-1"></use>
                </mask>
                <g id="Clip-21"></g>
                <path d="M0.109388646,0.109061135 L20.4150655,0.109061135 L20.4150655,20.4150655 L0.109388646,20.4150655 L0.109388646,0.109061135 Z" id="Fill-20" fill="#FFE6DE" sketch:type="MSShapeGroup" mask="url(#mask-2)"></path>
            </g>
            <path d="M36.7103712,37.0179039 C36.6894105,37.1492358 36.6704148,37.2812227 36.6599345,37.4177948 C36.4748908,39.840393 38.444214,42.4886463 41.0204148,42.4886463 C43.5979258,42.4886463 45.8849345,40.8389738 46.0912664,38.1281659 C46.0994541,38.0227074 46.0981441,37.9165939 46.0984716,37.8104803 C44.7566594,38.8991266 42.9507642,39.4418122 41.0528384,39.4418122 C39.2665939,39.4418122 37.740393,38.431441 36.7103712,37.0179039" id="Fill-23" fill="#8F9396" sketch:type="MSShapeGroup"></path>
            <path d="M42.3582969,50.8735808 C36.2181223,50.8735808 31.2229258,45.8780568 31.2229258,39.7382096 C31.2229258,33.5980349 36.2181223,28.6025109 42.3582969,28.6025109 C48.4984716,28.6025109 53.4936681,33.5980349 53.4936681,39.7382096 C53.4936681,45.8780568 48.4984716,50.8735808 42.3582969,50.8735808 L42.3582969,50.8735808 Z M42.3582969,30.5675764 C37.3015284,30.5675764 33.1879913,34.681441 33.1879913,39.7382096 C33.1879913,44.7946507 37.3015284,48.9085153 42.3582969,48.9085153 C47.414738,48.9085153 51.5286026,44.7946507 51.5286026,39.7382096 C51.5286026,34.681441 47.414738,30.5675764 42.3582969,30.5675764 L42.3582969,30.5675764 Z" id="Fill-24" fill="#454C53" sketch:type="MSShapeGroup"></path>
            <path d="M47.1419214,49.1855895 C47.0141921,49.1855895 46.8864629,49.1331878 46.7947598,49.0414847 C46.7030568,48.9530568 46.650655,48.8253275 46.650655,48.6943231 C46.650655,48.5665939 46.7030568,48.4388646 46.7947598,48.3471616 C46.9778384,48.1637555 47.3056769,48.1637555 47.489083,48.3471616 C47.580786,48.4388646 47.6331878,48.5665939 47.6331878,48.6943231 C47.6331878,48.8253275 47.580786,48.9497817 47.489083,49.0414847 C47.3973799,49.1331878 47.2696507,49.1855895 47.1419214,49.1855895" id="Fill-25" fill="#454C53" sketch:type="MSShapeGroup"></path>
            <path d="M67.7816594,71.3318777 C67.5131004,71.295524 67.3231441,71.0498908 67.3591703,70.7816594 C67.3915939,70.5098253 67.6408297,70.3231441 67.9093886,70.3555677 C68.1779476,70.3919214 68.3679039,70.6375546 68.3318777,70.9093886 C68.2991266,71.1550218 68.0891921,71.3351528 67.843559,71.3351528 L67.7816594,71.3318777 L67.7816594,71.3318777 Z M65.5611354,70.9650655 C65.2958515,70.9123362 65.1222707,70.650655 65.1779476,70.3853712 C65.2303493,70.1200873 65.489083,69.946179 65.7543668,70.0021834 C66.0196507,70.0542576 66.1929039,70.3129913 66.1408297,70.5786026 C66.0917031,70.8111354 65.8886463,70.9748908 65.6593886,70.9748908 C65.6266376,70.9748908 65.5938865,70.9716157 65.5611354,70.9650655 L65.5611354,70.9650655 Z M63.3700873,70.441048 L63.3700873,70.441048 C63.1080786,70.3657205 62.9574236,70.0971616 63.029476,69.8348253 C63.1015284,69.5731441 63.3733624,69.419214 63.6353712,69.494214 C63.8973799,69.5665939 64.0480349,69.8384279 63.9759825,70.1004367 C63.9134279,70.3165939 63.7172489,70.4574236 63.5040393,70.4574236 C63.4585153,70.4574236 63.4159389,70.4505459 63.3700873,70.441048 L63.3700873,70.441048 Z M61.2245633,69.7434498 C60.9694323,69.644869 60.8384279,69.3635371 60.9334061,69.1110262 C61.0283843,68.8558952 61.3133188,68.7281659 61.5651747,68.8231441 C61.8209607,68.9181223 61.9483624,69.1997817 61.8533843,69.4549127 C61.7816594,69.6517467 61.5946507,69.7729258 61.3951965,69.7729258 C61.3362445,69.7729258 61.2802402,69.7631004 61.2245633,69.7434498 L61.2245633,69.7434498 Z M59.1419214,68.8558952 L59.1419214,68.8558952 C58.8995633,68.7379913 58.7944323,68.5182314 58.9126638,68.2765284 C59.0305677,68.0308952 59.3253275,67.7947598 59.5676856,68.1222707 L59.5709607,68.1222707 C59.8133188,68.1222707 59.9148472,68.4560044 59.8002183,68.7016376 C59.7150655,68.878821 59.5382096,68.9426856 59.354476,68.9426856 C59.2827511,68.9426856 59.2106987,68.8886463 59.1419214,68.8558952 L59.1419214,68.8558952 Z M57.1539301,67.7718341 C56.9213974,67.6310044 56.849345,67.2658297 56.9901747,67.0365721 C57.1310044,66.8040393 57.4355895,66.8122271 57.6645197,66.8122271 L57.6681223,66.8122271 C57.8973799,66.8122271 57.9694323,67.3182314 57.8282751,67.5504367 C57.7368996,67.7014192 57.5731441,67.8134279 57.4093886,67.8134279 C57.3206332,67.8134279 57.2325328,67.8209607 57.1539301,67.7718341 L57.1539301,67.7718341 Z M55.2838428,66.4879913 L55.2838428,66.4879913 C55.0676856,66.3209607 55.0280568,66.0131004 55.1921397,65.7966157 C55.3591703,65.580786 55.6670306,65.5414847 55.8831878,65.7085153 C56.0960699,65.8722707 56.1350437,66.1798035 55.9712882,66.3959607 C55.87631,66.5240175 55.7292576,66.5891921 55.5818777,66.5891921 C55.4770742,66.5891921 55.3719432,66.5567686 55.2838428,66.4879913 L55.2838428,66.4879913 Z M53.5611354,65.0076419 C53.3643013,64.8176856 53.3580786,64.5065502 53.5480349,64.3097162 C53.7343886,64.1164847 54.045524,64.110262 54.2423581,64.2966157 C54.4388646,64.4836245 54.4454148,64.7980349 54.2554585,64.9912664 C54.1604803,65.0927948 54.029476,65.1415939 53.9017467,65.1415939 C53.7805677,65.1415939 53.6561135,65.0960699 53.5611354,65.0076419 L53.5611354,65.0076419 Z M52.0120087,63.3438865 C51.8384279,63.1375546 51.8643013,62.8264192 52.0742358,62.6528384 C52.2805677,62.4792576 52.5917031,62.5054585 52.7649563,62.7150655 C52.9388646,62.9246725 52.9126638,63.2322052 52.7030568,63.4061135 C52.6113537,63.4847162 52.5,63.5207424 52.3886463,63.5207424 C52.2478166,63.5207424 52.1069869,63.4617904 52.0120087,63.3438865 L52.0120087,63.3438865 Z M50.6492358,61.5258734 C50.4989083,61.3002183 50.5365721,60.9956332 50.7622271,60.8449782 C50.9885371,60.6939956 51.419214,60.7565502 51.419214,60.9825328 L51.419214,60.9792576 C51.419214,61.2052402 51.5325328,61.5127729 51.3098253,61.6637555 C51.2240175,61.7194323 51.1414847,61.7456332 51.0465066,61.7456332 C50.8896288,61.7456332 50.7445415,61.6703057 50.6492358,61.5258734 L50.6492358,61.5258734 Z M49.4898472,59.5775109 C49.3624454,59.3384279 49.4541485,59.040393 49.6932314,58.9126638 C49.9323144,58.7882096 50.2303493,58.87631 50.3580786,59.1189956 C50.4854803,59.3580786 50.3941048,59.655786 50.1517467,59.7805677 C50.0796943,59.8195415 50.0010917,59.8395197 49.9224891,59.8395197 C49.7485808,59.8395197 49.5786026,59.7445415 49.4898472,59.5775109 L49.4898472,59.5775109 Z M48.5272926,57.5240175 L48.5272926,57.5240175 C48.4224891,57.2718341 48.5436681,57.0687773 48.7958515,56.9639738 C49.0447598,56.8624454 49.3329694,56.9868996 49.4377729,57.3144105 L49.4341703,57.3144105 C49.5393013,57.3144105 49.4181223,57.7696507 49.169214,57.8744541 C49.1069869,57.900655 49.0447598,57.869214 48.9825328,57.869214 C48.7893013,57.869214 48.6058952,57.7139738 48.5272926,57.5240175 L48.5272926,57.5240175 Z M47.7641921,55.3919214 C47.6823144,55.1331878 47.8264192,54.8580786 48.0884279,54.779476 C48.3471616,54.6975983 48.6222707,54.8449782 48.7008734,55.1037118 C48.7827511,55.3624454 48.6353712,55.6375546 48.3766376,55.7161572 C48.3275109,55.7325328 48.2783843,55.7387555 48.2322052,55.7387555 C48.0229258,55.7387555 47.8264192,55.6048035 47.7641921,55.3919214 L47.7641921,55.3919214 Z M47.191048,53.2008734 L47.191048,53.2008734 C47.1320961,52.9355895 47.3024017,52.6768559 47.5676856,52.6179039 C47.8329694,52.5622271 48.0949782,52.7292576 48.1503275,52.9945415 C48.209607,53.2598253 48.0393013,53.5218341 47.7740175,53.5775109 C47.7409389,53.5873362 47.7052402,53.5906114 47.6724891,53.5906114 C47.4429039,53.5906114 47.2401747,53.4330786 47.191048,53.2008734 L47.191048,53.2008734 Z M46.8111354,50.9672489 C46.7783843,50.69869 46.9683406,50.4121179 47.2368996,50.3793668 C47.5054585,50.3466157 47.7510917,50.4366812 47.7835153,50.7641921 L47.7871179,50.7641921 C47.819869,50.7641921 47.6266376,51.3189956 47.3580786,51.3553493 L47.2958515,51.3789301 C47.0534934,51.3789301 46.8406114,51.2161572 46.8111354,50.9672489 L46.8111354,50.9672489 Z" id="Fill-26" fill="#454C53" sketch:type="MSShapeGroup"></path>
            <path d="M70.0709607,71.5578603 C69.9432314,71.5578603 69.8155022,71.5054585 69.7237991,71.4137555 C69.6317686,71.3217249 69.5796943,71.1975983 69.5796943,71.0665939 C69.5796943,70.9388646 69.6317686,70.8111354 69.7237991,70.7194323 C69.9039301,70.5393013 70.2347162,70.5360262 70.4181223,70.7194323 C70.5098253,70.8111354 70.5622271,70.9388646 70.5622271,71.0665939 C70.5622271,71.1975983 70.5098253,71.3217249 70.4181223,71.4137555 C70.3264192,71.5054585 70.19869,71.5578603 70.0709607,71.5578603" id="Fill-27" fill="#454C53" sketch:type="MSShapeGroup"></path>
        </g>
    </g>
</svg>