<svg class="nc-icon outline" xmlns="http://www.w3.org/2000/svg" xmlns:xlink="http://www.w3.org/1999/xlink" x="0px" y="0px" width="32px" height="32px" viewBox="0 0 32 32">
<g transform="translate(0, 0)">
<path data-cap="butt" fill="none" stroke="#e93d3a" stroke-width="2" stroke-miterlimit="10" d="M27.8,23.8c1.2-1.1,2.1-2.7,2.2-4.5
	c-3.4-0.7-6-4-6-7.3" stroke-linejoin="miter" stroke-linecap="butt"></path>
<path data-cap="butt" fill="none" stroke="#e93d3a" stroke-width="2" stroke-miterlimit="10" d="M4.2,23.8C3,22.7,2.2,21.1,2,19.3
	c3.4-0.7,6-4,6-7.3" stroke-linejoin="miter" stroke-linecap="butt"></path>
<path data-cap="butt" data-color="color-2" fill="none" stroke="#e93d3a" stroke-width="2" stroke-miterlimit="10" d="M11.7,19.7l-7.6,4.1
	c-1.3,0.7-2.1,2-2.1,3.5V31h28v-3.6c0-1.5-0.8-2.8-2.1-3.5l-7.6-4.1" stroke-linejoin="miter" stroke-linecap="butt"></path>
<path fill="none" stroke="#e93d3a" stroke-width="2" stroke-linecap="square" stroke-miterlimit="10" d="M16,21L16,21
	c-4.4,0-8-3.6-8-8V9c0-4.4,3.6-8,8-8h0c4.4,0,8,3.6,8,8v4C24,17.4,20.4,21,16,21z" stroke-linejoin="miter"></path>
<polyline fill="none" stroke="#e93d3a" stroke-width="2" stroke-linecap="square" stroke-miterlimit="10" points="8,10 11,10 13,7 
	15,10 24,10 " stroke-linejoin="miter"></polyline>
</g>
</svg>