<svg class="nc-icon outline" xmlns="http://www.w3.org/2000/svg" xmlns:xlink="http://www.w3.org/1999/xlink" x="0px" y="0px" width="32px" height="32px" viewBox="0 0 32 32"><g transform="translate(0, 0)">
<polyline data-cap="butt" fill="none" stroke="#b5b5b5" stroke-width="2" stroke-miterlimit="10" points="28.6,4 31,4 31,28 1,28 1,4 
	22.6,4 " stroke-linejoin="miter" stroke-linecap="butt"></polyline>
<line data-cap="butt" fill="none" stroke="#b5b5b5" stroke-width="2" stroke-miterlimit="10" x1="24.7" y1="8" x2="31" y2="8" stroke-linejoin="miter" stroke-linecap="butt"></line>
<line data-cap="butt" fill="none" stroke="#b5b5b5" stroke-width="2" stroke-miterlimit="10" x1="1" y1="8" x2="18.6" y2="8" stroke-linejoin="miter" stroke-linecap="butt"></line>
<line fill="none" stroke="#b5b5b5" stroke-width="2" stroke-linecap="square" stroke-miterlimit="10" x1="5" y1="4" x2="5" y2="8" stroke-linejoin="miter"></line>
<path data-color="color-2" fill="none" stroke="#b5b5b5" stroke-width="2" stroke-linecap="square" stroke-miterlimit="10" d="M18.6,14
	l-3-3L25,1.7c0.8-0.8,2.2-0.8,3,0l0,0c0.8,0.8,0.8,2.2,0,3L18.6,14z" stroke-linejoin="miter"></path>
<path data-color="color-2" fill="none" stroke="#b5b5b5" stroke-width="2" stroke-linecap="square" stroke-miterlimit="10" d="M14.9,14.4
	c-1-1-2.7-1-3.8,0c-0.7,0.7-0.8,1.5-0.8,2.2c0,0.7-0.5,1.3-1.7,1.3c1.7,1.7,4.6,1.9,6.2,0.3C16,17.1,15.8,15.4,14.9,14.4z" stroke-linejoin="miter"></path>
</g></svg>