<svg class="nc-icon outline" xmlns="http://www.w3.org/2000/svg" xmlns:xlink="http://www.w3.org/1999/xlink" x="0px" y="0px" width="32px" height="32px" viewBox="0 0 32 32"><g transform="translate(0, 0)">
<path fill="none" stroke="#b5b5b5" stroke-width="2" stroke-linecap="square" stroke-miterlimit="10" d="M1,15
	C1,9.9,3.5,5.4,7.4,2.7c1.4-1,3.6-1.2,4.6,0c1.3,1.7-1,4.1,0,5.5c2.7,3.3,8.4-3.2,15.1,0c4.8,2.4,4.1,8.7,3.5,11
	c-1.8,6.3-7.6,11-14.5,11C7.8,30.1,1,23.4,1,15z" stroke-linejoin="miter"></path>
<circle data-color="color-2" fill="none" stroke="#b5b5b5" stroke-width="2" stroke-linecap="square" stroke-miterlimit="10" cx="23" cy="14" r="3" stroke-linejoin="miter"></circle>
<circle data-color="color-2" fill="none" stroke="#b5b5b5" stroke-width="2" stroke-linecap="square" stroke-miterlimit="10" cx="7" cy="14" r="2" stroke-linejoin="miter"></circle>
<circle data-color="color-2" fill="none" stroke="#b5b5b5" stroke-width="2" stroke-linecap="square" stroke-miterlimit="10" cx="9" cy="21" r="2" stroke-linejoin="miter"></circle>
<circle data-color="color-2" fill="none" stroke="#b5b5b5" stroke-width="2" stroke-linecap="square" stroke-miterlimit="10" cx="16" cy="24" r="2" stroke-linejoin="miter"></circle>
</g></svg>