<svg class="nc-icon outline" xmlns="http://www.w3.org/2000/svg" xmlns:xlink="http://www.w3.org/1999/xlink" x="0px" y="0px" width="32px" height="32px" viewBox="0 0 32 32"><g transform="translate(0, 0)">
<path fill="none" stroke="#e93d3a" stroke-width="2" stroke-linecap="square" stroke-miterlimit="10" d="M1,4c0-1.7,1.3-3,3-3
	s3,1.3,3,3v2H1V4z" stroke-linejoin="miter"></path>
<path data-cap="butt" fill="none" stroke="#e93d3a" stroke-width="2" stroke-miterlimit="10" d="M26,26V4c0-1.7-1.3-3-3-3H4
	c1.7,0,3,1.3,3,3v24c0,1.7,1.3,3,3,3h16" stroke-linejoin="miter" stroke-linecap="butt"></path>
<path fill="none" stroke="#e93d3a" stroke-width="2" stroke-linecap="square" stroke-miterlimit="10" d="M13,28c0,1.7-1.3,3-3,3h18
	c1.7,0,3-1.3,3-3v-2H13V28z" stroke-linejoin="miter"></path>
<line data-color="color-2" fill="none" stroke="#e93d3a" stroke-width="2" stroke-linecap="square" stroke-miterlimit="10" x1="12" y1="9" x2="21" y2="9" stroke-linejoin="miter"></line>
<line data-color="color-2" fill="none" stroke="#e93d3a" stroke-width="2" stroke-linecap="square" stroke-miterlimit="10" x1="12" y1="14" x2="21" y2="14" stroke-linejoin="miter"></line>
<line data-color="color-2" fill="none" stroke="#e93d3a" stroke-width="2" stroke-linecap="square" stroke-miterlimit="10" x1="12" y1="19" x2="21" y2="19" stroke-linejoin="miter"></line>
</g></svg>