<?xml version="1.0" encoding="UTF-8" standalone="no"?>
<svg width="961px" height="414px" viewBox="0 0 961 414" version="1.1" xmlns="http://www.w3.org/2000/svg" xmlns:xlink="http://www.w3.org/1999/xlink" xmlns:sketch="http://www.bohemiancoding.com/sketch/ns">
    <!-- Generator: Sketch 3.3.1 (12005) - http://www.bohemiancoding.com/sketch -->
    <title>scene</title>
    <desc>Created with Sketch.</desc>
    <defs>
        <path id="path-1" d="M5.97902142,8.79175742 L1.98589618,8.79175742 C1.98589618,8.79175742 1.64457028,7.91102973 1.64457028,6.7373728 C1.64457028,5.01859586 2.37570588,2.67128199 5.97902142,1.51896427 L5.97902142,8.79175742 L5.97902142,8.79175742 Z"></path>
        <path id="path-3" d="M25.5432018,8.50852781 C25.5432018,12.7395126 21.8409793,16.1712467 17.2718666,16.1712467 L9.27979808,16.1712467 C4.71068538,16.1712467 1.00652355,12.7395126 1.00652355,8.50852781 C1.00652355,4.27754305 4.71068538,0.849688824 9.27979808,0.849688824 L17.2718666,0.849688824 C21.8409793,0.849688824 25.5432018,4.27754305 25.5432018,8.50852781"></path>
        <path id="path-5" d="M1.91607952,7.36396981 C1.91607952,11.2224882 5.29443025,14.3515934 9.45821844,14.3515934 L16.7463023,14.3515934 C20.9139692,14.3515934 24.2903806,11.2224882 24.2903806,7.36396981 C24.2903806,3.50545138 20.9139692,0.380226049 16.7463023,0.380226049 L9.45821844,0.380226049 C5.29443025,0.380226049 1.91607952,3.50545138 1.91607952,7.36396981"></path>
        <path id="path-7" d="M19.9248998,6.83048938 C19.9248998,10.1885062 16.9867819,12.9141062 13.3601941,12.9141062 L7.01463525,12.9141062 C3.38804749,12.9141062 0.4460509,10.1885062 0.4460509,6.83048938 C0.4460509,3.47053266 3.38804749,0.748812525 7.01463525,0.748812525 L13.3601941,0.748812525 C16.9867819,0.748812525 19.9248998,3.47053266 19.9248998,6.83048938"></path>
    </defs>
    <g id="Page-12" stroke="none" stroke-width="1" fill="none" fill-rule="evenodd" sketch:type="MSPage">
        <g id="Group-Copy-2" sketch:type="MSLayerGroup" transform="translate(-0.544608, -0.071943)">
            <g id="Group" transform="translate(0.189294, 0.218386)">
                <path d="M472.751542,313.96196 L376.259097,184.293238 L279.766651,313.96196 L472.751542,313.96196" id="Fill-778" fill="#3A8C86" sketch:type="MSShapeGroup"></path>
                <path d="M376.612059,184.293238 L349.583313,220.618405 L351.076614,221.815341 L359.276193,215.219583 L367.475773,221.815341 L375.677291,215.219583 L383.87881,221.815341 L392.080328,215.219583 L400.281847,221.815341 L402.942637,219.6756 L376.612059,184.293238" id="Fill-779" fill="#C8E6DE" sketch:type="MSShapeGroup"></path>
                <path d="M326.355698,252.357581 L326.311092,252.297443 L354.670233,214.307817 L326.355698,252.357581 M377.079442,184.566768 L376.976657,184.427093 L377.077503,184.293238 L377.079442,184.566768" id="Fill-780" fill="#6CACAD" sketch:type="MSShapeGroup"></path>
                <path d="M377.806699,280.812457 C371.540654,270.447417 362.567273,261.199776 349.868398,254.514781 C344.399426,257.393636 339.624742,260.743893 335.457075,264.456917 L326.311092,252.167468 L354.625628,214.117704 L355.166707,213.39217 L349.868398,220.515589 L351.361699,221.712525 L359.561278,215.116767 L367.760857,221.712525 L375.962376,215.116767 L377.290832,216.183728 L377.806699,280.812457" id="Fill-781" fill="#37807A" sketch:type="MSShapeGroup"></path>
                <path d="M367.475773,221.768783 L359.276193,215.173025 L351.076614,221.768783 L349.583313,220.571847 L354.881622,213.448428 L376.646967,184.293238 L376.749753,184.432913 L377.005747,216.239986 L375.677291,215.173025 L367.475773,221.768783" id="Fill-782" fill="#B1CBC5" sketch:type="MSShapeGroup"></path>
                <path d="M838.577279,333.176955 L713.349459,164.89395 L588.123578,333.176955 L838.577279,333.176955" id="Fill-783" fill="#2E7B79" sketch:type="MSShapeGroup"></path>
                <path d="M712.412752,164.89395 L677.333758,212.03616 L679.27117,213.591983 L689.914332,205.033017 L700.555555,213.591983 L711.200657,205.033017 L721.84188,213.591983 L732.488921,205.033017 L743.130144,213.591983 L746.586069,210.814005 L712.412752,164.89395" id="Fill-784" fill="#C8E6DE" sketch:type="MSShapeGroup"></path>
                <path d="M638.569995,264.480196 C638.564177,264.478256 638.552541,264.472436 638.546723,264.468556 L712.676504,164.89395 L638.569995,264.480196" id="Fill-785" fill="#6CACAD" sketch:type="MSShapeGroup"></path>
                <path d="M687.536687,289.406341 C685.339402,288.153147 683.126601,286.909653 680.888589,285.671978 C683.462109,284.925106 685.341341,282.548693 685.341341,279.733856 L685.341341,270.495915 C685.341341,267.08164 682.573886,264.313362 679.162566,264.313362 C675.747368,264.313362 672.981852,267.08164 672.981852,270.495915 L672.981852,279.733856 C672.981852,280.354633 673.073002,280.952131 673.243665,281.516651 C661.964395,275.497052 650.31277,269.754862 638.546723,264.480196 L712.653232,164.89395 L677.574237,212.03616 L679.51165,213.591983 L690.154812,205.033017 L700.796035,213.591983 L711.441137,205.033017 L712.942195,206.241593 L713.390185,270.327141 C709.210882,275.083847 705.815077,280.253757 703.067016,285.654519 C697.916098,286.744759 692.736089,288.001833 687.536687,289.406341" id="Fill-786" fill="#286F6E" sketch:type="MSShapeGroup"></path>
                <path d="M700.555555,213.591983 L689.914332,205.033017 L679.27117,213.591983 L677.333758,212.03616 L712.412752,164.89395 L712.701715,206.241593 L711.200657,205.033017 L700.555555,213.591983" id="Fill-787" fill="#B1CBC5" sketch:type="MSShapeGroup"></path>
                <path d="M284.211645,209.423076 L272.94789,218.480604 L261.684135,209.423076 L250.42038,218.480604 L239.156625,209.423076 L227.890931,218.480604 L225.841036,216.833604 L262.966047,166.940575 L299.133017,215.541611 L295.4754,218.480604 L284.211645,209.423076 M262.966047,166.833879 L130.436567,344.934864 L395.497466,344.934864 L262.966047,166.833879" id="Fill-788" fill="#2E7B79" sketch:type="MSShapeGroup"></path>
                <path d="M262.589812,166.833879 L225.464802,216.726908 L227.514697,218.373908 L238.780391,209.31638 L250.044146,218.373908 L261.307901,209.31638 L272.571656,218.373908 L283.835411,209.31638 L295.099166,218.373908 L298.756783,215.434915 L262.589812,166.833879" id="Fill-789" fill="#C8E6DE" sketch:type="MSShapeGroup"></path>
                <path d="M246.886881,290.962164 C240.589806,288.07943 234.26752,285.412028 228.007292,283.031735 L228.007292,279.877411 C228.007292,275.646426 224.576579,272.214692 220.346853,272.214692 C216.819172,272.214692 213.850024,274.596925 212.957923,277.838546 C206.251644,275.776401 199.717968,274.127462 193.467438,272.977084 L190.556471,263.112546 L262.205821,166.833879 L225.08081,216.726908 L227.130705,218.373908 L238.396399,209.31638 L249.660154,218.373908 L260.923909,209.31638 L262.556843,210.631652 L263.169679,286.866974 C257.768584,288.060031 252.33452,289.43156 246.886881,290.962164" id="Fill-790" fill="#286F6E" sketch:type="MSShapeGroup"></path>
                <path d="M250.044146,218.373908 L238.780391,209.31638 L227.514697,218.373908 L225.464802,216.726908 L262.589812,166.833879 L262.940835,210.631652 L261.307901,209.31638 L250.044146,218.373908" id="Fill-791" fill="#B1CBC5" sketch:type="MSShapeGroup"></path>
                <path d="M120.739808,11.3582832 L127.296756,0 L133.849826,11.3582832 L120.739808,11.3582832" id="Fill-792" fill="#CEBF69" sketch:type="MSShapeGroup"></path>
                <path d="M91.1666332,30.1290345 L87.7708283,17.4593594 L100.436735,20.8561748 L91.1666332,30.1290345" id="Fill-793" fill="#CEBF69" sketch:type="MSShapeGroup"></path>
                <path d="M83.6128582,61.6101994 L72.2560144,55.05324 L83.6128582,48.4982205 L83.6128582,61.6101994" id="Fill-794" fill="#CEBF69" sketch:type="MSShapeGroup"></path>
                <path d="M100.436735,90.7479303 L87.7708283,94.1447457 L91.1666332,81.4770105 L100.436735,90.7479303" id="Fill-795" fill="#CEBF69" sketch:type="MSShapeGroup"></path>
                <path d="M133.849826,96.9964411 L127.296756,108.356664 L120.739808,96.9964411 L133.849826,96.9964411" id="Fill-796" fill="#CEBF69" sketch:type="MSShapeGroup"></path>
                <path d="M161.039537,81.4770105 L164.433403,94.1447457 L151.769436,90.7479303 L161.039537,81.4770105" id="Fill-797" fill="#CEBF69" sketch:type="MSShapeGroup"></path>
                <path d="M169.223601,48.4982205 L180.580445,55.05324 L169.223601,61.6101994 L169.223601,48.4982205" id="Fill-798" fill="#CEBF69" sketch:type="MSShapeGroup"></path>
                <path d="M151.769436,20.8561748 L164.433403,17.4593594 L161.039537,30.1290345 L151.769436,20.8561748" id="Fill-799" fill="#CEBF69" sketch:type="MSShapeGroup"></path>
                <path d="M158.553288,55.7690738 C158.553288,73.7134153 144.013968,88.2590016 126.071086,88.2590016 C108.132082,88.2590016 93.5888836,73.7134153 93.5888836,55.7690738 C93.5888836,37.8266721 108.132082,23.2791459 126.071086,23.2791459 C144.013968,23.2791459 158.553288,37.8266721 158.553288,55.7690738" id="Fill-800" fill="#CEBF69" sketch:type="MSShapeGroup"></path>
                <path d="M663.853324,144.051355 L570.845893,144.051355 C565.394375,144.051355 560.972653,139.841709 560.972653,134.650459 C560.972653,129.46115 565.394375,125.253444 570.845893,125.253444 L604.09026,125.253444 C605.597137,125.253444 606.816989,124.029349 606.816989,122.523964 C606.816989,121.01664 605.597137,119.796424 604.09026,119.796424 L602.800592,119.796424 C598.115118,119.796424 594.313988,115.994164 594.313988,111.305356 C594.313988,106.616548 598.115118,102.816228 602.800592,102.816228 L655.843801,102.816228 C660.533153,102.816228 664.332344,106.616548 664.332344,111.305356 C664.332344,115.994164 660.533153,119.796424 655.843801,119.796424 L656.035797,119.796424 C654.52892,119.796424 653.307129,121.01664 653.307129,122.523964 C653.307129,124.029349 654.52892,125.253444 656.035797,125.253444 L663.853324,125.253444 C669.30872,125.253444 673.728503,129.46115 673.728503,134.650459 C673.728503,139.841709 669.30872,144.051355 663.853324,144.051355" id="Fill-801" fill="#ECF7F4" sketch:type="MSShapeGroup"></path>
                <path d="M384.896969,165.260596 L319.97717,165.260596 C314.122267,165.260596 309.378612,160.509711 309.378612,154.655005 C309.378612,148.79836 314.122267,144.051355 319.97717,144.051355 L384.896969,144.051355 C390.751872,144.051355 395.497466,148.79836 395.497466,154.655005 C395.497466,160.509711 390.751872,165.260596 384.896969,165.260596" id="Fill-802" fill="#ECF7F4" sketch:type="MSShapeGroup"></path>
                <path d="M444.717834,107.206935 L394.082118,107.206935 C389.51545,107.206935 385.814013,103.504397 385.814013,98.9348568 C385.814013,94.3668295 389.51545,90.6658044 394.082118,90.6658044 L444.717834,90.6658044 C449.284502,90.6658044 452.985939,94.3668295 452.985939,98.9348568 C452.985939,103.504397 449.284502,107.206935 444.717834,107.206935" id="Fill-803" fill="#ECF7F4" sketch:type="MSShapeGroup"></path>
                <path d="M894.644908,137.611761 L829.723169,137.611761 C823.870205,137.611761 819.122672,132.862815 819.122672,127.00617 C819.122672,121.149525 823.870205,116.402519 829.723169,116.402519 L894.644908,116.402519 C900.499811,116.402519 905.245405,121.149525 905.245405,127.00617 C905.245405,132.862815 900.499811,137.611761 894.644908,137.611761" id="Fill-804" fill="#ECF7F4" sketch:type="MSShapeGroup"></path>
                <path d="M169.5882,175.227951 L71.8933556,175.227951 C66.16645,175.227951 61.5217025,170.808793 61.5217025,165.357593 C61.5217025,159.902513 66.16645,155.483355 71.8933556,155.483355 L80.1084496,155.483355 C81.6909606,155.483355 82.9728721,154.199122 82.9728721,152.61614 C82.9728721,151.033158 81.6909606,149.750865 80.1084496,149.750865 L80.3062635,149.750865 C75.3822494,149.750865 71.3910635,145.758492 71.3910635,140.833013 C71.3910635,135.907533 75.3822494,131.91516 80.3062635,131.91516 L136.0219,131.91516 C140.945914,131.91516 144.9371,135.907533 144.9371,140.833013 C144.9371,145.758492 140.945914,149.750865 136.0219,149.750865 L134.670172,149.750865 C133.08766,149.750865 131.80381,151.033158 131.80381,152.61614 C131.80381,154.199122 133.08766,155.483355 134.670172,155.483355 L169.5882,155.483355 C175.313166,155.483355 179.957913,159.902513 179.957913,165.357593 C179.957913,170.808793 175.313166,175.227951 169.5882,175.227951" id="Fill-805" fill="#ECF7F4" sketch:type="MSShapeGroup"></path>
                <path d="M290.483704,81.4770105 L221.723818,81.4770105 C217.691564,81.4770105 214.423719,78.3665817 214.423719,74.529749 C214.423719,70.6901854 217.691564,67.5797566 221.723818,67.5797566 L227.504655,67.5797566 C228.618507,67.5797566 229.520782,66.675848 229.520782,65.5616645 C229.520782,64.4488465 228.618507,63.5449378 227.504655,63.5449378 L227.645251,63.5449378 C224.179479,63.5449378 221.370279,60.7349016 221.370279,57.268098 C221.370279,53.8012943 224.179479,50.9912581 227.645251,50.9912581 L266.860759,50.9912581 C270.325167,50.9912581 273.134367,53.8012943 273.134367,57.268098 C273.134367,60.7349016 270.325167,63.5449378 266.860759,63.5449378 L265.909344,63.5449378 C264.795492,63.5449378 263.890487,64.4488465 263.890487,65.5616645 C263.890487,66.675848 264.795492,67.5797566 265.909344,67.5797566 L290.483704,67.5797566 C294.517322,67.5797566 297.785168,70.6901854 297.785168,74.529749 C297.785168,78.3665817 294.517322,81.4770105 290.483704,81.4770105" id="Fill-806" fill="#ECF7F4" sketch:type="MSShapeGroup"></path>
                <path d="M788.72574,102.23538 L723.654586,102.23538 C719.838649,102.23538 716.746112,99.2918152 716.746112,95.6595232 C716.746112,92.0259391 719.838649,89.0836663 723.654586,89.0836663 L729.125301,89.0836663 C730.180691,89.0836663 731.034561,88.2282492 731.034561,87.1751301 C731.034561,86.1194266 730.180691,85.2665939 729.125301,85.2665939 L729.257063,85.2665939 C725.97851,85.2665939 723.320013,82.6060143 723.320013,79.3251928 C723.320013,76.0443712 725.97851,73.386376 729.257063,73.386376 L766.370086,73.386376 C769.648639,73.386376 772.305844,76.0443712 772.305844,79.3251928 C772.305844,82.6060143 769.648639,85.2665939 766.370086,85.2665939 L765.467127,85.2665939 C764.414321,85.2665939 763.559158,86.1194266 763.559158,87.1751301 C763.559158,88.2282492 764.414321,89.0836663 765.467127,89.0836663 L788.72574,89.0836663 C792.544261,89.0836663 795.634214,92.0259391 795.634214,95.6595232 C795.634214,99.2918152 792.544261,102.23538 788.72574,102.23538" id="Fill-807" fill="#ECF7F4" sketch:type="MSShapeGroup"></path>
                <path d="M531.882377,362.524198 C586.447978,329.76656 674.011648,281.289679 745.527183,281.289679 C817.0369,281.289679 944.190497,337.632972 959.166171,362.524198 L531.882377,362.524198" id="Fill-808" fill="#6CAF45" sketch:type="MSShapeGroup"></path>
                <path d="M849.936063,298.749038 L852.079046,298.749038 L852.079046,310.662141 L849.936063,310.662141 L849.936063,298.749038 Z" id="Fill-809" fill="#9B6152" sketch:type="MSShapeGroup"></path>
                <path d="M859.080106,280.044245 C859.080106,275.374836 855.29837,271.590035 850.634229,271.590035 C845.96427,271.590035 842.178656,275.374836 842.178656,280.044245 L842.178656,292.679001 C842.178656,297.34841 845.96427,301.131271 850.634229,301.131271 C855.29837,301.131271 859.080106,297.34841 859.080106,292.679001 L859.080106,280.044245" id="Fill-810" fill="#30AE7A" sketch:type="MSShapeGroup"></path>
                <path d="M850.634229,301.131271 C845.96427,301.131271 842.178656,297.34841 842.178656,292.679001 L842.178656,280.044245 C842.178656,275.374836 845.96427,271.590035 850.634229,271.590035 L850.634229,301.131271" id="Fill-811" fill="#289F6E" sketch:type="MSShapeGroup"></path>
                <path d="M865.450877,304.568825 L867.301018,304.568825 L867.301018,313.96196 L865.450877,313.96196 L865.450877,304.568825 Z" id="Fill-812" fill="#9B6152" sketch:type="MSShapeGroup"></path>
                <path d="M857.69347,305.907376 L866.674607,275.469893 L875.655745,305.907376 L857.69347,305.907376" id="Fill-813" fill="#30AE7A" sketch:type="MSShapeGroup"></path>
                <path d="M866.674607,305.907376 L857.69347,305.907376 L866.674607,275.469893 L866.674607,305.907376" id="Fill-814" fill="#289F6E" sketch:type="MSShapeGroup"></path>
                <path d="M844.118007,322.103842 L845.669489,319.15515 L849.140928,317.259839 L854.660323,316.208398 L859.634761,318.689567 L860.049782,321.958347 L844.118007,322.103842" id="Fill-815" fill="#AE8E5C" sketch:type="MSShapeGroup"></path>
                <path d="M861.572173,324.734385 L862.875417,321.393828 L865.743719,320.088255 L868.788501,321.465605 L872.056309,322.13876 L872.626478,324.734385 L861.572173,324.734385" id="Fill-816" fill="#EBD398" sketch:type="MSShapeGroup"></path>
                <path d="M834.421249,316.245257 L835.328865,312.035611 L837.320579,310.388611 L839.434473,312.124848 L841.709332,312.976476 L842.10496,316.245257 L834.421249,316.245257" id="Fill-817" fill="#9B6152" sketch:type="MSShapeGroup"></path>
                <path d="M847.996711,327.613239 L848.946993,324.994335 L851.035675,323.968113 L853.254293,325.048653 L855.635817,325.578254 L856.052778,327.613239 L847.996711,327.613239" id="Fill-818" fill="#9B6152" sketch:type="MSShapeGroup"></path>
                <path d="M774.301345,275.469893 L798.613058,275.469893 L798.613058,290.457783 L774.301345,290.457783 L774.301345,275.469893 Z" id="Fill-819" fill="#D7C5A9" sketch:type="MSShapeGroup"></path>
                <path d="M774.301345,275.469893 L777.254977,275.469893 L777.254977,290.457783 L774.301345,290.457783 L774.301345,275.469893 Z" id="Fill-820" fill="#C5B091" sketch:type="MSShapeGroup"></path>
                <path d="M778.180048,277.409821 L782.369048,277.409821 L782.369048,281.192683 L778.180048,281.192683 L778.180048,277.409821 Z" id="Fill-821" fill="#2E7B79" sketch:type="MSShapeGroup"></path>
                <path d="M782.369048,281.192683 L778.180048,281.192683 L782.369048,277.409821 L782.369048,281.192683" id="Fill-822" fill="#236E69" sketch:type="MSShapeGroup"></path>
                <path d="M791.75551,277.409821 L795.946449,277.409821 L795.946449,281.192683 L791.75551,281.192683 L791.75551,277.409821 Z" id="Fill-823" fill="#2E7B79" sketch:type="MSShapeGroup"></path>
                <path d="M795.946449,281.192683 L791.75551,281.192683 L795.946449,277.409821 L795.946449,281.192683" id="Fill-824" fill="#236E69" sketch:type="MSShapeGroup"></path>
                <path d="M774.301345,273.529964 L799.637036,273.529964 L799.637036,275.306939 L774.301345,275.306939 L774.301345,273.529964 Z" id="Fill-825" fill="#834B40" sketch:type="MSShapeGroup"></path>
                <path d="M798.777903,272.744293 L793.981886,267.710177 L779.093483,267.710177 L774.301345,272.744293 L798.777903,272.744293" id="Fill-826" fill="#9B6152" sketch:type="MSShapeGroup"></path>
                <path d="M783.998103,283.229608 L788.861998,283.229608 L788.861998,290.834129 L783.998103,290.834129 L783.998103,283.229608 Z" id="Fill-827" fill="#F6F6F4" sketch:type="MSShapeGroup"></path>
                <path d="M788.443098,285.452766 L788.161892,285.169537 L787.876807,285.452766 L788.161892,285.737936 L788.443098,285.452766" id="Fill-828" fill="#9B6152" sketch:type="MSShapeGroup"></path>
                <path d="M783.998103,281.289679 L789.862703,281.289679 L789.862703,281.861958 L783.998103,281.861958 L783.998103,281.289679 Z" id="Fill-829" fill="#9B6152" sketch:type="MSShapeGroup"></path>
                <path d="M778.180048,265.770249 L781.383857,265.770249 L781.383857,268.980831 L778.180048,268.980831 L778.180048,265.770249 Z" id="Fill-830" fill="#9B6152" sketch:type="MSShapeGroup"></path>
                <path d="M778.180048,263.83032 L782.043237,263.83032 L782.043237,265.149471 L778.180048,265.149471 L778.180048,263.83032 Z" id="Fill-831" fill="#834B40" sketch:type="MSShapeGroup"></path>
                <path d="M789.816159,283.229608 L790.314572,283.229608 L790.314572,290.834129 L789.816159,290.834129 L789.816159,283.229608 Z" id="Fill-832" fill="#834B40" sketch:type="MSShapeGroup"></path>
                <path d="M783.998103,283.229608 L784.500395,283.229608 L784.500395,290.834129 L783.998103,290.834129 L783.998103,283.229608 Z" id="Fill-833" fill="#834B40" sketch:type="MSShapeGroup"></path>
                <path d="M805.904059,292.44233 C805.904059,292.44233 807.979165,287.109466 801.908994,285.169537 C795.840763,287.109466 797.915869,292.44233 797.915869,292.44233 L805.904059,292.44233" id="Fill-834" fill="#30AE7A" sketch:type="MSShapeGroup"></path>
                <g id="Group-837" transform="translate(795.634214, 283.229608)">
                    <mask id="mask-2" sketch:name="Clip 836" fill="white">
                        <use xlink:href="#path-1"></use>
                    </mask>
                    <g id="Clip-836"></g>
                    <path d="M1.64457028,1.51896427 L5.97902142,1.51896427 L5.97902142,8.79175742 L1.64457028,8.79175742 L1.64457028,1.51896427 Z" id="Fill-835" fill="#289F6E" sketch:type="MSShapeGroup" mask="url(#mask-2)"></path>
                </g>
                <path d="M93.5888836,362.524198 C148.154484,329.76656 235.720094,281.289679 307.233689,281.289679 C378.743406,281.289679 505.897003,337.632972 520.872677,362.524198 L93.5888836,362.524198" id="Fill-838" fill="#6CAF45" sketch:type="MSShapeGroup"></path>
                <path d="M304.978223,289.086253 L305.883901,284.876607 L307.875615,283.229608 L309.991448,284.965844 L312.264368,285.815533 L312.659996,289.086253 L304.978223,289.086253" id="Fill-839" fill="#9B6152" sketch:type="MSShapeGroup"></path>
                <path d="M275.887947,269.650106 L307.402413,269.650106 L307.402413,289.078493 L275.887947,289.078493 L275.887947,269.650106 Z" id="Fill-840" fill="#BD9C6E" sketch:type="MSShapeGroup"></path>
                <path d="M303.038872,269.650106 L306.865213,269.650106 L306.865213,289.078493 L303.038872,289.078493 L303.038872,269.650106 Z" id="Fill-841" fill="#C5AA7F" sketch:type="MSShapeGroup"></path>
                <path d="M295.281465,273.529964 L300.70971,273.529964 L300.70971,278.432164 L295.281465,278.432164 L295.281465,273.529964 Z" id="Fill-842" fill="#2E7B79" sketch:type="MSShapeGroup"></path>
                <path d="M295.281465,278.432164 L300.70971,278.432164 L295.281465,273.529964 L295.281465,278.432164" id="Fill-843" fill="#236E69" sketch:type="MSShapeGroup"></path>
                <path d="M277.827299,273.529964 L283.257484,273.529964 L283.257484,278.432164 L277.827299,278.432164 L277.827299,273.529964 Z" id="Fill-844" fill="#2E7B79" sketch:type="MSShapeGroup"></path>
                <path d="M277.827299,278.432164 L283.257484,278.432164 L277.827299,273.529964 L277.827299,278.432164" id="Fill-845" fill="#236E69" sketch:type="MSShapeGroup"></path>
                <path d="M273.948595,267.710177 L306.787639,267.710177 L306.787639,270.014813 L273.948595,270.014813 L273.948595,267.710177 Z" id="Fill-846" fill="#2F3B3E" sketch:type="MSShapeGroup"></path>
                <path d="M275.887947,268.414371 L282.099691,261.890391 L301.39818,261.890391 L307.611863,268.414371 L275.887947,268.414371" id="Fill-847" fill="#3F4B50" sketch:type="MSShapeGroup"></path>
                <path d="M287.524058,279.34975 L293.825011,279.34975 L293.825011,289.206529 L287.524058,289.206529 L287.524058,279.34975 Z" id="Fill-848" fill="#EBD398" sketch:type="MSShapeGroup"></path>
                <path d="M287.524058,283.596254 C287.524058,283.394502 287.688903,283.229608 287.892535,283.229608 C288.096166,283.229608 288.259072,283.394502 288.259072,283.596254 C288.259072,283.799947 288.096166,283.964841 287.892535,283.964841 C287.688903,283.964841 287.524058,283.799947 287.524058,283.596254" id="Fill-849" fill="#AE8E5C" sketch:type="MSShapeGroup"></path>
                <path d="M285.584706,279.34975 L293.185025,279.34975 L293.185025,280.092743 L285.584706,280.092743 L285.584706,279.34975 Z" id="Fill-850" fill="#9B6152" sketch:type="MSShapeGroup"></path>
                <path d="M297.220816,258.010533 L301.374908,258.010533 L301.374908,262.17362 L297.220816,262.17362 L297.220816,258.010533 Z" id="Fill-851" fill="#3F4B50" sketch:type="MSShapeGroup"></path>
                <path d="M295.281465,256.070604 L300.288871,256.070604 L300.288871,257.779682 L295.281465,257.779682 L295.281465,256.070604 Z" id="Fill-852" fill="#2F3B3E" sketch:type="MSShapeGroup"></path>
                <path d="M285.584706,279.34975 L286.234389,279.34975 L286.234389,289.204589 L285.584706,289.204589 L285.584706,279.34975 Z" id="Fill-853" fill="#8D5449" sketch:type="MSShapeGroup"></path>
                <path d="M293.342113,279.34975 L293.991796,279.34975 L293.991796,289.204589 L293.342113,289.204589 L293.342113,279.34975 Z" id="Fill-854" fill="#8D5449" sketch:type="MSShapeGroup"></path>
                <path d="M279.899972,289.625553 C279.899972,289.625553 282.832272,282.08893 274.256459,279.34975 C265.680645,282.08893 268.614884,289.625553 268.614884,289.625553 L279.899972,289.625553" id="Fill-855" fill="#30AE7A" sketch:type="MSShapeGroup"></path>
                <path d="M274.256208,289.625553 L268.614633,289.625553 C268.614633,289.625553 268.602997,289.594514 268.581664,289.534377 C268.284944,288.673048 266.233109,281.912396 274.256208,279.34975 L274.256208,289.625553" id="Fill-856" fill="#289F6E" sketch:type="MSShapeGroup"></path>
                <path d="M299.160168,291.026182 L300.608864,286.814596 L303.793279,285.169537 L307.17163,286.903833 L310.804036,287.755462 L311.438204,291.026182 L299.160168,291.026182" id="Fill-857" fill="#EBD398" sketch:type="MSShapeGroup"></path>
                <path d="M4.37870348,363.317629 C47.8899991,326.329007 117.720237,271.590035 174.748815,271.590035 C231.771574,271.590035 333.16864,335.210001 345.113108,363.317629 L4.37870348,363.317629" id="Fill-858" fill="#71B954" sketch:type="MSShapeGroup"></path>
                <path d="M219.646747,296.80911 L221.588038,296.80911 L221.588038,307.608693 L219.646747,307.608693 L219.646747,296.80911 Z" id="Fill-859" fill="#9B6152" sketch:type="MSShapeGroup"></path>
                <path d="M227.212158,279.252754 C227.212158,275.021769 223.781445,271.590035 219.551719,271.590035 C215.318114,271.590035 211.88934,275.021769 211.88934,279.252754 L211.88934,290.706094 C211.88934,294.940958 215.318114,298.372692 219.551719,298.372692 C223.781445,298.372692 227.212158,294.940958 227.212158,290.706094 L227.212158,279.252754" id="Fill-860" fill="#30AE7A" sketch:type="MSShapeGroup"></path>
                <path d="M219.551719,298.372692 C215.318114,298.372692 211.88934,294.940958 211.88934,290.706094 L211.88934,279.252754 C211.88934,275.021769 215.318114,271.590035 219.551719,271.590035 L219.551719,298.372692" id="Fill-861" fill="#289F6E" sketch:type="MSShapeGroup"></path>
                <path d="M186.677767,273.529964 L188.198219,273.529964 L188.198219,281.26058 L186.677767,281.26058 L186.677767,273.529964 Z" id="Fill-862" fill="#9B6152" sketch:type="MSShapeGroup"></path>
                <path d="M178.92036,275.295299 L186.307351,250.250818 L193.69822,275.295299 L178.92036,275.295299" id="Fill-863" fill="#30AE7A" sketch:type="MSShapeGroup"></path>
                <path d="M186.307351,275.295299 L178.92036,275.295299 L186.307351,250.250818 L186.307351,275.295299" id="Fill-864" fill="#289F6E" sketch:type="MSShapeGroup"></path>
                <path d="M211.88934,322.536446 L214.575342,317.432493 L220.587332,314.150133 L230.13864,312.32854 L238.751301,316.625483 L239.468861,322.286195 L211.88934,322.536446" id="Fill-865" fill="#AE8E5C" sketch:type="MSShapeGroup"></path>
                <path d="M237.100912,304.603744 L238.00659,300.396038 L240.000243,298.749038 L242.114137,300.485275 L244.388996,301.333024 L244.782685,304.603744 L237.100912,304.603744" id="Fill-866" fill="#9B6152" sketch:type="MSShapeGroup"></path>
                <path d="M250.676375,314.305328 L252.123131,310.095682 L255.307547,308.448683 L258.689776,310.182979 L262.320242,311.034608 L262.952471,314.305328 L250.676375,314.305328" id="Fill-867" fill="#EBD398" sketch:type="MSShapeGroup"></path>
                <path d="M56.7412005,360.30492 L64.9349616,345.86603 L80.3431112,341.446872 L92.7646591,337.547615 L105.544987,345.86603 L109.429509,365.630025" id="Fill-868" fill="#D18F67" sketch:type="MSShapeGroup"></path>
                <path d="M8.25740696,363.350608 L14.0153423,348.616849 L27.6140767,337.547615 L54.4585835,337.547615 L65.7630648,346.383991 L69.1976567,367.372081" id="Fill-869" fill="#9B6152" sketch:type="MSShapeGroup"></path>
                <path d="M89.7101801,271.590035 L137.668409,271.590035 L137.668409,301.15649 L89.7101801,301.15649 L89.7101801,271.590035 Z" id="Fill-870" fill="#D9DAD4" sketch:type="MSShapeGroup"></path>
                <path d="M89.7101801,271.590035 L95.5301747,271.590035 L95.5301747,301.15649 L89.7101801,301.15649 L89.7101801,271.590035 Z" id="Fill-871" fill="#CBCCC6" sketch:type="MSShapeGroup"></path>
                <path d="M97.4675871,277.409821 L105.731165,277.409821 L105.731165,284.870788 L97.4675871,284.870788 L97.4675871,277.409821 Z" id="Fill-872" fill="#2E7B79" sketch:type="MSShapeGroup"></path>
                <path d="M105.731165,284.870788 L97.4675871,284.870788 L105.731165,277.409821 L105.731165,284.870788" id="Fill-873" fill="#236E69" sketch:type="MSShapeGroup"></path>
                <path d="M124.618511,277.409821 L132.88015,277.409821 L132.88015,284.870788 L124.618511,284.870788 L124.618511,277.409821 Z" id="Fill-874" fill="#2E7B79" sketch:type="MSShapeGroup"></path>
                <path d="M132.88015,284.870788 L124.618511,284.870788 L132.88015,277.409821 L132.88015,284.870788" id="Fill-875" fill="#236E69" sketch:type="MSShapeGroup"></path>
                <path d="M87.7708283,267.710177 L137.744044,267.710177 L137.744044,271.217569 L87.7708283,271.217569 L87.7708283,267.710177 Z" id="Fill-876" fill="#5C202A" sketch:type="MSShapeGroup"></path>
                <path d="M137.988402,267.941029 L128.532123,258.010533 L99.1664592,258.010533 L89.7101801,267.941029 L137.988402,267.941029" id="Fill-877" fill="#A73F3B" sketch:type="MSShapeGroup"></path>
                <path d="M109.103697,285.169537 L118.689913,285.169537 L118.689913,300.171006 L109.103697,300.171006 L109.103697,285.169537 Z" id="Fill-878" fill="#AE8E5C" sketch:type="MSShapeGroup"></path>
                <path d="M117.98205,293.489891 C117.98205,293.179503 117.729934,292.929252 117.421577,292.929252 C117.111281,292.929252 116.861104,293.179503 116.861104,293.489891 C116.861104,293.79834 117.111281,294.050531 117.421577,294.050531 C117.729934,294.050531 117.98205,293.79834 117.98205,293.489891" id="Fill-879" fill="#EBD398" sketch:type="MSShapeGroup"></path>
                <path d="M109.103697,285.169537 L120.67387,285.169537 L120.67387,286.296635 L109.103697,286.296635 L109.103697,285.169537 Z" id="Fill-880" fill="#9B6152" sketch:type="MSShapeGroup"></path>
                <path d="M99.4069388,252.190747 L105.725347,252.190747 L105.725347,258.524614 L99.4069388,258.524614 L99.4069388,252.190747 Z" id="Fill-881" fill="#A73F3B" sketch:type="MSShapeGroup"></path>
                <path d="M97.4675871,250.250818 L105.085361,250.250818 L105.085361,252.854202 L97.4675871,252.854202 L97.4675871,250.250818 Z" id="Fill-882" fill="#5C202A" sketch:type="MSShapeGroup"></path>
                <path d="M118.800456,285.169537 L119.791465,285.169537 L119.791465,300.171006 L118.800456,300.171006 L118.800456,285.169537 Z" id="Fill-883" fill="#8D5449" sketch:type="MSShapeGroup"></path>
                <path d="M109.103697,285.169537 L110.094706,285.169537 L110.094706,300.171006 L109.103697,300.171006 L109.103697,285.169537 Z" id="Fill-884" fill="#8D5449" sketch:type="MSShapeGroup"></path>
                <path d="M147.389563,305.79098 C147.389563,305.79098 151.61541,294.937078 139.26174,290.989323 C126.908069,294.937078 131.133917,305.79098 131.133917,305.79098 L147.389563,305.79098" id="Fill-885" fill="#30AE7A" sketch:type="MSShapeGroup"></path>
                <path d="M140.135265,290.991263 C140.135265,290.991263 140.133325,290.991263 140.133325,290.989323 L140.135265,290.989323 L140.135265,290.991263" id="Fill-886" fill="#69AC4B" sketch:type="MSShapeGroup"></path>
                <path d="M139.263563,305.79098 L131.133801,305.79098 C131.133801,305.79098 131.120225,305.754121 131.095014,305.682344 C130.695507,304.543606 127.631331,294.704287 139.263563,290.989323 C139.261624,290.991263 139.263563,290.991263 139.263563,290.991263 L139.263563,305.79098" id="Fill-887" fill="#289F6E" sketch:type="MSShapeGroup"></path>
                <path d="M164.569157,306.836723 C164.555582,306.832843 163.698388,306.510815 162.684107,306.508875 C161.667887,306.501115 160.430581,306.863882 159.887562,308.256751 C159.645143,308.875588 159.56369,309.480846 159.56369,310.068644 C159.56563,311.348997 159.941864,312.545933 159.937985,313.72735 C159.937985,314.355887 159.837139,314.978604 159.526843,315.62654 L159.631568,315.923349 L159.928289,315.818593 C160.271554,315.104699 160.384036,314.404385 160.384036,313.72735 C160.380158,312.454757 160.005863,311.257821 160.007802,310.068644 C160.007802,309.521584 160.083437,308.978404 160.302583,308.419705 C160.769967,307.240228 161.745461,306.962818 162.684107,306.955059 C163.143734,306.955059 163.580088,307.028776 163.900081,307.104433 C164.218135,307.18009 164.41207,307.255747 164.414009,307.253808 L164.699094,307.123832 L164.569157,306.836723" id="Fill-888" fill="#272A29" sketch:type="MSShapeGroup"></path>
                <path d="M173.406783,322.096082 C173.406783,322.879813 172.904491,323.51611 172.283899,323.51611 C171.665245,323.51611 171.162953,322.879813 171.162953,322.096082 L171.162953,315.688497 C171.162953,314.904766 171.665245,314.268469 172.283899,314.268469 C172.904491,314.268469 173.406783,314.904766 173.406783,315.688497 L173.406783,322.096082" id="Fill-889" fill="#D9DAD4" sketch:type="MSShapeGroup"></path>
                <path d="M179.187991,322.096082 C179.187991,322.879813 178.693456,323.51611 178.0845,323.51611 C177.475543,323.51611 176.981008,322.879813 176.981008,322.096082 L176.981008,315.688497 C176.981008,314.904766 177.475543,314.268469 178.0845,314.268469 C178.693456,314.268469 179.187991,314.904766 179.187991,315.688497 L179.187991,322.096082" id="Fill-890" fill="#D9DAD4" sketch:type="MSShapeGroup"></path>
                <path d="M174.985415,317.149263 C174.985415,319.812786 172.828856,321.971926 170.164187,321.971926 C167.503396,321.971926 165.344898,319.812786 165.344898,317.149263 C165.344898,314.487681 167.503396,312.32854 170.164187,312.32854 C172.828856,312.32854 174.985415,314.487681 174.985415,317.149263" id="Fill-891" fill="#EA8B9A" sketch:type="MSShapeGroup"></path>
                <path d="M172.060873,321.261912 C172.060873,321.510223 171.86112,321.711976 171.610943,321.711976 C171.362706,321.711976 171.162953,321.510223 171.162953,321.261912 L171.162953,320.538319 C171.162953,320.290008 171.362706,320.088255 171.610943,320.088255 C171.86112,320.088255 172.060873,320.290008 172.060873,320.538319 L172.060873,321.261912" id="Fill-892" fill="#EA8B9A" sketch:type="MSShapeGroup"></path>
                <path d="M170.121521,321.263852 C170.121521,321.512163 169.919829,321.711976 169.671592,321.711976 C169.423355,321.711976 169.223601,321.512163 169.223601,321.263852 L169.223601,320.540259 C169.223601,320.291948 169.423355,320.088255 169.671592,320.088255 C169.919829,320.088255 170.121521,320.291948 170.121521,320.540259 L170.121521,321.263852" id="Fill-893" fill="#EA8B9A" sketch:type="MSShapeGroup"></path>
                <path d="M183.033725,324.036011 C183.033725,324.819742 182.545009,325.456039 181.945749,325.456039 C181.346489,325.456039 180.859712,324.819742 180.859712,324.036011 L180.859712,317.626486 C180.859712,316.842755 181.346489,316.208398 181.945749,316.208398 C182.545009,316.208398 183.033725,316.842755 183.033725,317.626486 L183.033725,324.036011" id="Fill-894" fill="#FFFFFF" sketch:type="MSShapeGroup"></path>
                <path d="M169.607593,324.036011 C169.607593,324.819742 169.087847,325.456039 168.445921,325.456039 C167.803996,325.456039 167.28425,324.819742 167.28425,324.036011 L167.28425,317.626486 C167.28425,316.842755 167.803996,316.208398 168.445921,316.208398 C169.087847,316.208398 169.607593,316.842755 169.607593,317.626486 L169.607593,324.036011" id="Fill-895" fill="#FFFFFF" sketch:type="MSShapeGroup"></path>
                <path d="M187.942224,310.287735 C187.942224,314.51872 184.240002,317.950454 179.670889,317.950454 L171.678821,317.950454 C167.109708,317.950454 163.405546,314.51872 163.405546,310.287735 C163.405546,306.05675 167.109708,302.628896 171.678821,302.628896 L179.670889,302.628896 C184.240002,302.628896 187.942224,306.05675 187.942224,310.287735" id="Fill-896" fill="#FFFFFF" sketch:type="MSShapeGroup"></path>
                <g id="Group-901" transform="translate(161.466195, 302.628896)">
                    <mask id="mask-4" sketch:name="Clip 898" fill="white">
                        <use xlink:href="#path-3"></use>
                    </mask>
                    <g id="Clip-898"></g>
                    <path d="M7.16008663,0.649876155 C6.64227971,2.23673793 5.50388024,4.06221095 6.53755472,5.65101266 C8.08903611,7.87417109 9.94887443,5.73054974 12.0181627,6.04869806 C13.4649191,6.28536938 13.6704904,7.00120312 15.2239112,6.44638347 C16.2575856,6.04869806 17.4987708,5.01665593 17.9118527,4.22322504 C18.5324452,2.95063174 18.3249346,-0.221151886 15.8445037,-0.145494662" id="Fill-897" fill="#564E34" sketch:type="MSShapeGroup" mask="url(#mask-4)"></path>
                    <path d="M4.38293493,18.6485358 C5.98677882,18.3478468 7.98625047,18.3556065 9.1382254,17.0364549 C10.7246151,15.1217452 8.22479073,14.7647983 7.91449446,13.2788128 C7.71474123,12.2312512 8.30624351,11.8064068 7.3501431,11.0129759 C6.6868848,10.4950149 5.38364043,10.0973295 4.53808307,10.1458277 C3.19605167,10.2505839 0.351022665,11.6686719 1.14227818,13.2652333" id="Fill-899" fill="#564E34" sketch:type="MSShapeGroup" mask="url(#mask-4)"></path>
                    <path d="M15.592388,16.8017235 C14.1805399,15.7638616 12.9936567,12.6483359 15.0726417,11.6803114 C16.8510273,10.8674813 16.9441162,12.6793748 17.907974,10.5260538 C18.2803295,9.78500097 19.275217,9.19138275 20.3922836,9.3019587 C22.0446112,9.46491272 22.4441177,10.2583436 23.5301547,12.4252441 C24.1100208,13.5814417 23.2334339,14.8734343 22.1939413,15.9132361" id="Fill-900" fill="#564E34" sketch:type="MSShapeGroup" mask="url(#mask-4)"></path>
                </g>
                <path d="M190.556471,304.530026 C190.556471,304.530026 193.5198,303.730776 192.852663,300.688967 C192.852663,300.688967 195.218672,304.500927 191.57657,305.752182 L190.556471,304.530026" id="Fill-902" fill="#D9DAD4" sketch:type="MSShapeGroup"></path>
                <path d="M183.911398,304.530026 C183.911398,304.530026 180.948069,303.730776 181.615206,300.688967 C181.615206,300.688967 179.249196,304.500927 182.891299,305.754121 L183.911398,304.530026" id="Fill-903" fill="#D9DAD4" sketch:type="MSShapeGroup"></path>
                <path d="M184.738415,310.667961 L184.738415,305.967514 C184.738415,304.124581 186.231716,302.628896 188.07604,302.628896 C189.920363,302.628896 191.413664,304.124581 191.413664,305.967514 L191.413664,310.667961" id="Fill-904" fill="#564E34" sketch:type="MSShapeGroup"></path>
                <path d="M190.5875,304.16532 C190.5875,305.015009 189.89903,305.703683 189.051534,305.703683 L184.33503,305.703683 C183.487534,305.703683 182.799064,305.015009 182.799064,304.16532 C182.799064,303.317571 183.487534,302.628896 184.33503,302.628896 L189.051534,302.628896 C189.89903,302.628896 190.5875,303.317571 190.5875,304.16532" id="Fill-905" fill="#564E34" sketch:type="MSShapeGroup"></path>
                <path d="M193.94873,307.403918 C194.253209,307.8889 194.107757,308.529077 193.622919,308.835585 C193.136142,309.140154 192.494217,308.99466 192.187799,308.507737 L190.71777,306.160424 C190.409413,305.673501 190.556804,305.033325 191.043581,304.728756 C191.528419,304.422247 192.168405,304.569682 192.474823,305.056604 L193.94873,307.403918" id="Fill-906" fill="#564E34" sketch:type="MSShapeGroup"></path>
                <path d="M181.049608,309.894324 C180.68501,310.476303 180.861491,311.240635 181.441357,311.609221 C182.019284,311.971988 182.787267,311.795455 183.153805,311.217356 L184.912797,308.412219 C185.279334,307.83218 185.102853,307.063968 184.522987,306.699262 C183.941182,306.334555 183.177077,306.509149 182.81054,307.089187 L181.049608,309.894324" id="Fill-907" fill="#564E34" sketch:type="MSShapeGroup"></path>
                <path d="M191.413664,310.673781 C191.413664,311.903696 190.341203,312.898879 189.020504,312.898879 L187.133515,312.898879 C185.808938,312.898879 184.738415,311.903696 184.738415,310.673781 C184.738415,309.443866 185.808938,308.448683 187.133515,308.448683 L189.020504,308.448683 C190.341203,308.448683 191.413664,309.443866 191.413664,310.673781" id="Fill-908" fill="#EA8B9A" sketch:type="MSShapeGroup"></path>
                <path d="M187.061759,312.8756 L186.867824,313.069593 L186.677767,312.8756 L186.677767,312.522533 L186.867824,312.32854 L187.061759,312.522533 L187.061759,312.8756" id="Fill-909" fill="#AC6271" sketch:type="MSShapeGroup"></path>
                <path d="M189.00305,312.8756 L188.809115,313.069593 L188.617119,312.8756 L188.617119,312.522533 L188.809115,312.32854 L189.00305,312.522533 L189.00305,312.8756" id="Fill-910" fill="#AC6271" sketch:type="MSShapeGroup"></path>
                <path d="M279.766651,362.091594 C343.202846,310.733919 445.007176,234.731387 528.153004,234.731387 C611.291073,234.731387 759.120099,323.064106 776.533539,362.091594 L279.766651,362.091594" id="Fill-911" fill="#71B954" sketch:type="MSShapeGroup"></path>
                <path d="M388.540612,370.712638 C388.540612,370.712638 408.403453,286.641943 350.337322,256.070604 C292.269252,286.641943 312.135972,370.712638 312.135972,370.712638 L388.540612,370.712638" id="Fill-912" fill="#30AE7A" sketch:type="MSShapeGroup"></path>
                <path d="M350.337553,370.712638 L312.136202,370.712638 C312.136202,370.712638 312.130384,370.693239 312.120688,370.6525 C311.533064,368.099554 293.179039,286.16472 350.337553,256.070604 L350.337553,370.712638" id="Fill-913" fill="#289F6E" sketch:type="MSShapeGroup"></path>
                <path d="M343.765258,363.086778 L354.357997,344.422723 L374.277079,338.711572 L390.332972,333.667757 L406.856249,344.422723 L411.875291,369.971585" id="Fill-914" fill="#D18F67" sketch:type="MSShapeGroup"></path>
                <path d="M326.311092,363.350608 L332.069028,348.616849 L345.669702,337.547615 L372.512269,337.547615 L383.81675,346.383991 L387.251342,367.372081" id="Fill-915" fill="#9B6152" sketch:type="MSShapeGroup"></path>
                <path d="M677.333758,285.169537 L678.900754,285.169537 L678.900754,293.883697 L677.333758,293.883697 L677.333758,285.169537 Z" id="Fill-916" fill="#9B6152" sketch:type="MSShapeGroup"></path>
                <path d="M685.814543,271.952802 C685.814543,268.538527 683.047088,265.770249 679.635768,265.770249 C676.22057,265.770249 673.455054,268.538527 673.455054,271.952802 L673.455054,281.190743 C673.455054,284.605017 676.22057,287.373296 679.635768,287.373296 C683.047088,287.373296 685.814543,284.605017 685.814543,281.190743 L685.814543,271.952802" id="Fill-917" fill="#30AE7A" sketch:type="MSShapeGroup"></path>
                <path d="M679.635768,287.373296 C676.22057,287.373296 673.455054,284.605017 673.455054,281.190743 L673.455054,271.952802 C673.455054,268.538527 676.22057,265.770249 679.635768,265.770249 L679.635768,287.373296" id="Fill-918" fill="#289F6E" sketch:type="MSShapeGroup"></path>
                <path d="M409.703217,273.529964 L411.184882,273.529964 L411.184882,281.058828 L409.703217,281.058828 L409.703217,273.529964 Z" id="Fill-919" fill="#9B6152" sketch:type="MSShapeGroup"></path>
                <path d="M403.885162,274.643483 L411.082096,250.250818 L418.277091,274.643483 L403.885162,274.643483" id="Fill-920" fill="#30AE7A" sketch:type="MSShapeGroup"></path>
                <path d="M411.082096,274.643483 L403.885162,274.643483 L411.082096,250.250818 L411.082096,274.643483" id="Fill-921" fill="#289F6E" sketch:type="MSShapeGroup"></path>
                <path d="M419.399976,271.590035 L420.55389,271.590035 L420.55389,277.464139 L419.399976,277.464139 L419.399976,271.590035 Z" id="Fill-922" fill="#9B6152" sketch:type="MSShapeGroup"></path>
                <path d="M415.521273,271.221448 L421.135696,252.190747 L426.752059,271.221448 L415.521273,271.221448" id="Fill-923" fill="#30AE7A" sketch:type="MSShapeGroup"></path>
                <path d="M421.135696,271.221448 L415.521273,271.221448 L421.135696,252.190747 L421.135696,271.221448" id="Fill-924" fill="#289F6E" sketch:type="MSShapeGroup"></path>
                <path d="M407.763866,303.135218 L410.447928,298.033205 L416.459919,294.750845 L426.011226,292.929252 L434.621948,297.226194 L435.341447,302.884967 L407.763866,303.135218" id="Fill-925" fill="#AE8E5C" sketch:type="MSShapeGroup"></path>
                <path d="M429.096735,314.305328 L430.739366,310.093742 L434.354317,308.448683 L438.188416,310.182979 L442.309538,311.034608 L443.027098,314.305328 L429.096735,314.305328" id="Fill-926" fill="#EBD398" sketch:type="MSShapeGroup"></path>
                <path d="M665.830969,316.784557 C665.830969,316.784557 668.767147,309.247933 660.187455,306.508754 C651.611642,309.247933 654.545881,316.784557 654.545881,316.784557 L665.830969,316.784557" id="Fill-927" fill="#30AE7A" sketch:type="MSShapeGroup"></path>
                <path d="M660.189616,316.784557 L654.546103,316.784557 C654.546103,316.784557 654.513134,316.6992 654.462711,316.540126 C654.047689,315.220974 652.533056,308.953064 660.189616,306.508754 L660.187677,306.508754 L660.189616,316.784557" id="Fill-928" fill="#289F6E" sketch:type="MSShapeGroup"></path>
                <path d="M617.346605,291.563542 C617.346605,291.563542 620.280844,284.028859 611.703091,281.289679 C603.129217,284.028859 606.061517,291.563542 606.061517,291.563542 L617.346605,291.563542" id="Fill-929" fill="#30AE7A" sketch:type="MSShapeGroup"></path>
                <path d="M611.705511,291.563542 L606.061998,291.563542 C606.061998,291.563542 606.036786,291.501464 605.997999,291.383129 C605.619825,290.221111 603.917074,283.776668 611.705511,281.289679 L611.703572,281.289679 L611.705511,291.563542" id="Fill-930" fill="#289F6E" sketch:type="MSShapeGroup"></path>
                <path d="M646.565942,311.067719 C646.565942,311.067719 646.742423,311.001762 647.033326,310.931924 C647.324229,310.862087 647.723735,310.794189 648.142635,310.794189 C648.997889,310.801949 649.888052,311.05608 650.314709,312.1308 C650.514462,312.641002 650.58234,313.135683 650.58234,313.634245 C650.584279,314.718665 650.242953,315.810845 650.239074,316.970923 C650.239074,317.58782 650.34186,318.226057 650.654096,318.877873 L650.925605,318.972929 L651.020633,318.701339 C650.737488,318.111601 650.646338,317.543202 650.646338,316.970923 C650.64246,315.894262 650.985725,314.802082 650.987664,313.634245 C650.987664,313.098825 650.913969,312.547885 650.692883,311.981426 C650.198348,310.710772 649.067706,310.380985 648.142635,310.388744 C647.217564,310.388744 646.436006,310.683613 646.42243,310.687493 L646.30413,310.949384 L646.565942,311.067719" id="Fill-931" fill="#272A29" sketch:type="MSShapeGroup"></path>
                <path d="M636.607371,323.345396 C636.607371,324.06123 637.063119,324.641268 637.629409,324.641268 C638.193761,324.641268 638.653387,324.06123 638.653387,323.345396 L638.653387,317.50427 C638.653387,316.788437 638.193761,316.208398 637.629409,316.208398 C637.063119,316.208398 636.607371,316.788437 636.607371,317.50427 L636.607371,323.345396" id="Fill-932" fill="#D9DAD4" sketch:type="MSShapeGroup"></path>
                <path d="M632.728668,323.345396 C632.728668,324.06123 633.178597,324.641268 633.735191,324.641268 C634.289846,324.641268 634.741715,324.06123 634.741715,323.345396 L634.741715,317.50427 C634.741715,316.788437 634.289846,316.208398 633.735191,316.208398 C633.178597,316.208398 632.728668,316.788437 632.728668,317.50427 L632.728668,323.345396" id="Fill-933" fill="#D9DAD4" sketch:type="MSShapeGroup"></path>
                <path d="M634.668019,318.664348 C634.668019,321.093139 636.636461,323.062166 639.06453,323.062166 C641.490659,323.062166 643.459101,321.093139 643.459101,318.664348 C643.459101,316.237497 641.490659,314.268469 639.06453,314.268469 C636.636461,314.268469 634.668019,316.237497 634.668019,318.664348" id="Fill-934" fill="#EA8B9A" sketch:type="MSShapeGroup"></path>
                <path d="M638.546723,323.095145 C638.546723,323.324057 638.730961,323.50641 638.957865,323.50641 C639.18477,323.50641 639.369008,323.324057 639.369008,323.095145 L639.369008,322.437509 C639.369008,322.210538 639.18477,322.028184 638.957865,322.028184 C638.730961,322.028184 638.546723,322.210538 638.546723,322.437509 L638.546723,323.095145" id="Fill-935" fill="#EA8B9A" sketch:type="MSShapeGroup"></path>
                <path d="M640.486075,323.100965 C640.486075,323.327937 640.670313,323.51029 640.897217,323.51029 C641.122182,323.51029 641.30642,323.327937 641.30642,323.100965 L641.30642,322.441389 C641.30642,322.216357 641.122182,322.028184 640.897217,322.028184 C640.670313,322.028184 640.486075,322.216357 640.486075,322.441389 L640.486075,323.100965" id="Fill-936" fill="#EA8B9A" sketch:type="MSShapeGroup"></path>
                <path d="M628.849964,325.285325 C628.849964,325.999219 629.294076,326.579257 629.842912,326.579257 C630.38787,326.579257 630.831982,325.999219 630.831982,325.285325 L630.831982,319.440319 C630.831982,318.726425 630.38787,318.148327 629.842912,318.148327 C629.294076,318.148327 628.849964,318.726425 628.849964,319.440319 L628.849964,325.285325" id="Fill-937" fill="#FFFFFF" sketch:type="MSShapeGroup"></path>
                <path d="M642.425426,325.285325 C642.425426,325.999219 642.900567,326.579257 643.484312,326.579257 C644.069997,326.579257 644.545138,325.999219 644.545138,325.285325 L644.545138,319.440319 C644.545138,318.726425 644.069997,318.148327 643.484312,318.148327 C642.900567,318.148327 642.425426,318.726425 642.425426,319.440319 L642.425426,325.285325" id="Fill-938" fill="#FFFFFF" sketch:type="MSShapeGroup"></path>
                <path d="M624.971261,313.492498 C624.971261,317.351016 628.347672,320.480121 632.5134,320.480121 L639.801483,320.480121 C643.96915,320.480121 647.345562,317.351016 647.345562,313.492498 C647.345562,309.633979 643.96915,306.508754 639.801483,306.508754 L632.5134,306.508754 C628.347672,306.508754 624.971261,309.633979 624.971261,313.492498" id="Fill-939" fill="#FFFFFF" sketch:type="MSShapeGroup"></path>
                <g id="Group-944" transform="translate(623.031909, 306.508754)">
                    <mask id="mask-6" sketch:name="Clip 941" fill="white">
                        <use xlink:href="#path-5"></use>
                    </mask>
                    <g id="Clip-941"></g>
                    <path d="M18.679836,0.19787274 C19.1510984,1.64505964 20.190591,3.30951857 19.2461267,4.7586454 C17.8323393,6.78587102 16.1354065,4.83042276 14.2503566,5.12141209 C12.9296581,5.33674419 12.7415409,5.9905002 11.3277535,5.48417878 C10.3832892,5.12141209 9.2507078,4.18054661 8.87641292,3.45501323 C8.31012221,2.29687572 8.49823933,-0.597498077 10.7614628,-0.525720711" id="Fill-940" fill="#564E34" sketch:type="MSShapeGroup" mask="url(#mask-6)"></path>
                    <path d="M21.2126293,16.6096706 C19.7503581,16.3361406 17.9254281,16.3439003 16.8762389,15.1411444 C15.4294825,13.3932686 17.7082207,13.0693005 17.9913661,11.7132902 C18.1756045,10.7588452 17.6345254,10.3727994 18.5052943,9.64920596 C19.1103721,9.17586332 20.2991947,8.81115671 21.0710567,8.85577507 C22.2947876,8.95277151 24.8877009,10.246704 24.166262,11.7016506" id="Fill-942" fill="#564E34" sketch:type="MSShapeGroup" mask="url(#mask-6)"></path>
                    <path d="M10.9903063,14.9258124 C12.2780359,13.9791271 13.3601941,11.1390713 11.4654475,10.2564037 C9.84221009,9.51341094 9.75687861,11.1662303 8.88029162,9.20496226 C8.53896572,8.52598717 7.63328845,7.98668696 6.61512879,8.08756326 C5.10631313,8.23693777 4.74365436,8.96053123 3.75264562,10.9353788 C3.22320259,11.9907 4.02415486,13.1682368 4.97055851,14.116862" id="Fill-943" fill="#564E34" sketch:type="MSShapeGroup" mask="url(#mask-6)"></path>
                </g>
                <path d="M621.935451,308.072336 C621.935451,308.072336 619.233934,307.342923 619.84289,304.568825 C619.84289,304.568825 617.684392,308.043237 621.004562,309.185856 L621.935451,308.072336" id="Fill-945" fill="#D9DAD4" sketch:type="MSShapeGroup"></path>
                <path d="M626.910612,308.072336 C626.910612,308.072336 629.612129,307.342923 629.003173,304.568825 C629.003173,304.568825 631.161671,308.045177 627.839562,309.185856 L626.910612,308.072336" id="Fill-946" fill="#D9DAD4" sketch:type="MSShapeGroup"></path>
                <path d="M627.180182,313.839745 L627.180182,309.552502 C627.180182,307.872524 625.816818,306.508754 624.1354,306.508754 C622.453982,306.508754 621.092557,307.872524 621.092557,309.552502 L621.092557,313.839745" id="Fill-947" fill="#564E34" sketch:type="MSShapeGroup"></path>
                <path d="M621.092557,307.909382 C621.092557,308.685354 621.720907,309.311951 622.492769,309.311951 L626.794251,309.311951 C627.566113,309.311951 628.194463,308.685354 628.194463,307.909382 C628.194463,307.137291 627.566113,306.508754 626.794251,306.508754 L622.492769,306.508754 C621.720907,306.508754 621.092557,307.137291 621.092557,307.909382" id="Fill-948" fill="#564E34" sketch:type="MSShapeGroup"></path>
                <path d="M619.29772,311.031646 C619.020393,311.473949 619.154208,312.059808 619.59638,312.339158 C620.038552,312.616568 620.624237,312.484652 620.903503,312.040409 L622.245535,309.900667 C622.524801,309.454484 622.390986,308.872505 621.946875,308.593155 C621.504702,308.315745 620.920957,308.4496 620.641691,308.893844 L619.29772,311.031646" id="Fill-949" fill="#564E34" sketch:type="MSShapeGroup"></path>
                <path d="M630.606955,311.536987 C630.940523,312.066588 630.779557,312.764962 630.250114,313.10057 C629.72261,313.432298 629.022504,313.271284 628.688936,312.741683 L627.085092,310.184857 C626.751523,309.655256 626.91055,308.956882 627.439993,308.623214 C627.971376,308.289546 628.667603,308.448621 629.001172,308.978221 L630.606955,311.536987" id="Fill-950" fill="#564E34" sketch:type="MSShapeGroup"></path>
                <path d="M621.092557,314.357706 C621.092557,315.478985 622.06999,316.384931 623.274328,316.384931 L624.996472,316.384931 C626.202749,316.384931 627.180182,315.478985 627.180182,314.357706 C627.180182,313.236427 626.202749,312.32854 624.996472,312.32854 L623.274328,312.32854 C622.06999,312.32854 621.092557,313.236427 621.092557,314.357706" id="Fill-951" fill="#EA8B9A" sketch:type="MSShapeGroup"></path>
                <path d="M624.971261,314.767031 L625.147742,314.945504 L625.322283,314.767031 L625.322283,314.445003 L625.147742,314.268469 L624.971261,314.445003 L624.971261,314.767031" id="Fill-952" fill="#AC6271" sketch:type="MSShapeGroup"></path>
                <path d="M623.031909,314.767031 L623.20839,314.945504 L623.384871,314.767031 L623.384871,314.445003 L623.20839,314.268469 L623.031909,314.445003 L623.031909,314.767031" id="Fill-953" fill="#AC6271" sketch:type="MSShapeGroup"></path>
                <path d="M640.608254,289.309431 C640.598557,289.307491 639.917844,289.05142 639.113014,289.049481 C638.306243,289.043661 637.322992,289.33077 636.892456,290.43653 C636.70046,290.929272 636.634522,291.408434 636.634522,291.874017 C636.636461,292.89248 636.935122,293.841105 636.933182,294.78003 C636.933182,295.278592 636.851729,295.773274 636.607371,296.287355 L636.688824,296.524026 L636.925425,296.440609 C637.196934,295.87221 637.286144,295.317391 637.286144,294.78003 C637.284205,293.769327 636.985545,292.820702 636.987484,291.874017 C636.987484,291.441413 637.047604,291.010749 637.220206,290.566505 C637.592562,289.631459 638.366363,289.410307 639.113014,289.402548 C639.84221,289.402548 640.484135,289.645039 640.486075,289.641159 L640.712979,289.538343 L640.608254,289.309431" id="Fill-954" fill="#272A29" sketch:type="MSShapeGroup"></path>
                <path d="M648.086394,301.082773 C648.086394,301.70549 647.688827,302.211811 647.194292,302.211811 C646.703636,302.211811 646.30413,301.70549 646.30413,301.082773 L646.30413,295.996279 C646.30413,295.373562 646.703636,294.869181 647.194292,294.869181 C647.688827,294.869181 648.086394,295.373562 648.086394,295.996279 L648.086394,301.082773" id="Fill-955" fill="#D9DAD4" sketch:type="MSShapeGroup"></path>
                <path d="M651.936007,301.082773 C651.936007,301.70549 651.544258,302.211811 651.06136,302.211811 C650.576522,302.211811 650.182833,301.70549 650.182833,301.082773 L650.182833,295.996279 C650.182833,295.373562 650.576522,294.869181 651.06136,294.869181 C651.544258,294.869181 651.936007,295.373562 651.936007,295.996279 L651.936007,301.082773" id="Fill-956" fill="#D9DAD4" sketch:type="MSShapeGroup"></path>
                <path d="M650.080048,296.758671 C650.080048,298.873194 648.365661,300.586151 646.251767,300.586151 C644.139813,300.586151 642.425426,298.873194 642.425426,296.758671 C642.425426,294.644149 644.139813,292.929252 646.251767,292.929252 C648.365661,292.929252 650.080048,294.644149 650.080048,296.758671" id="Fill-957" fill="#EA8B9A" sketch:type="MSShapeGroup"></path>
                <path d="M647.019751,299.678264 C647.019751,299.876137 646.860724,300.037151 646.66097,300.037151 C646.465096,300.037151 646.30413,299.876137 646.30413,299.678264 L646.30413,299.105985 C646.30413,298.908113 646.465096,298.749038 646.66097,298.749038 C646.860724,298.749038 647.019751,298.908113 647.019751,299.105985 L647.019751,299.678264" id="Fill-958" fill="#EA8B9A" sketch:type="MSShapeGroup"></path>
                <path d="M645.078459,299.680204 C645.078459,299.880017 644.917493,300.037151 644.719679,300.037151 C644.523805,300.037151 644.364778,299.880017 644.364778,299.680204 L644.364778,299.105985 C644.364778,298.910053 644.523805,298.749038 644.719679,298.749038 C644.917493,298.749038 645.078459,298.910053 645.078459,299.105985 L645.078459,299.680204" id="Fill-959" fill="#EA8B9A" sketch:type="MSShapeGroup"></path>
                <path d="M655.78756,301.084713 C655.78756,301.70549 655.399689,302.211811 654.922609,302.211811 C654.449407,302.211811 654.061537,301.70549 654.061537,301.084713 L654.061537,295.996279 C654.061537,295.373562 654.449407,294.869181 654.922609,294.869181 C655.399689,294.869181 655.78756,295.373562 655.78756,295.996279 L655.78756,301.084713" id="Fill-960" fill="#FFFFFF" sketch:type="MSShapeGroup"></path>
                <path d="M644.26975,301.084713 C644.26975,301.70549 643.856668,302.211811 643.348558,302.211811 C642.838508,302.211811 642.425426,301.70549 642.425426,301.084713 L642.425426,295.996279 C642.425426,295.373562 642.838508,294.869181 643.348558,294.869181 C643.856668,294.869181 644.26975,295.373562 644.26975,295.996279 L644.26975,301.084713" id="Fill-961" fill="#FFFFFF" sketch:type="MSShapeGroup"></path>
                <path d="M658.025572,291.249274 C658.025572,294.60923 655.087454,297.33483 651.460866,297.33483 L645.115307,297.33483 C641.488719,297.33483 638.546723,294.60923 638.546723,291.249274 C638.546723,287.891257 641.488719,285.169537 645.115307,285.169537 L651.460866,285.169537 C655.087454,285.169537 658.025572,287.891257 658.025572,291.249274" id="Fill-962" fill="#FFFFFF" sketch:type="MSShapeGroup"></path>
                <g id="Group-967" transform="translate(638.546723, 285.169537)">
                    <mask id="mask-8" sketch:name="Clip 964" fill="white">
                        <use xlink:href="#path-7"></use>
                    </mask>
                    <g id="Clip-964"></g>
                    <path d="M5.33127794,0.589738362 C4.92013537,1.8506921 4.01639746,3.297879 4.83868259,4.56077266 C6.07017095,6.32610789 7.54601762,4.62479031 9.18864855,4.87698106 C10.3386841,5.06321422 10.5015897,5.6335533 11.733078,5.19124953 C12.5534238,4.87698106 13.5386145,4.05639117 13.8663649,3.4259143 C14.3608996,2.41909124 14.1960547,-0.100876299 12.2256734,-0.0407385052" id="Fill-963" fill="#564E34" sketch:type="MSShapeGroup" mask="url(#mask-8)"></path>
                    <path d="M3.12623501,14.8792541 C4.4003891,14.6406428 5.98871818,14.6464626 6.90215285,13.600841 C8.16079213,12.0799368 6.1768353,11.7967072 5.93053762,10.6172304 C5.77151078,9.78500097 6.24277325,9.44939329 5.48254737,8.81891642 C4.9550437,8.40571158 3.92136922,8.08950318 3.25035352,8.12830176 C2.18371006,8.2117187 -0.0736953662,9.33881735 0.554654598,10.6055909" id="Fill-965" fill="#564E34" sketch:type="MSShapeGroup" mask="url(#mask-8)"></path>
                    <path d="M12.0259201,13.4146078 C10.9069142,12.5881981 9.96438925,10.1167288 11.6128382,9.34851699 C13.0246863,8.70058076 13.100321,10.1400079 13.8644256,8.43093066 C14.1611464,7.8411923 14.9485232,7.37172952 15.834807,7.45902632 C17.1477481,7.58900155 17.4658018,8.21947842 18.326874,9.93825535 C18.7884397,10.8577816 18.0922124,11.882064 17.2679879,12.7084737" id="Fill-966" fill="#564E34" sketch:type="MSShapeGroup" mask="url(#mask-8)"></path>
                </g>
                <path d="M661.818944,286.279176 C661.818944,286.279176 664.171377,285.644819 663.639995,283.229608 C663.639995,283.229608 665.519227,286.255897 662.627653,287.24914 L661.818944,286.279176" id="Fill-968" fill="#D9DAD4" sketch:type="MSShapeGroup"></path>
                <path d="M656.484456,288.219105 C656.484456,288.219105 654.132022,287.584748 654.661465,285.169537 C654.661465,285.169537 652.782234,288.195826 655.675746,289.189069 L656.484456,288.219105" id="Fill-969" fill="#D9DAD4" sketch:type="MSShapeGroup"></path>
                <path d="M656.000888,291.551903 L656.000888,287.819479 C656.000888,286.356773 657.185832,285.169537 658.650043,285.169537 C660.114254,285.169537 661.299197,286.356773 661.299197,287.819479 L661.299197,291.551903" id="Fill-970" fill="#564E34" sketch:type="MSShapeGroup"></path>
                <path d="M662.183542,286.389752 C662.183542,287.062907 661.634705,287.609967 660.96369,287.609967 L657.218801,287.609967 C656.545846,287.609967 656.000888,287.062907 656.000888,286.389752 C656.000888,285.716597 656.545846,285.169537 657.218801,285.169537 L660.96369,285.169537 C661.634705,285.169537 662.183542,285.716597 662.183542,286.389752" id="Fill-971" fill="#564E34" sketch:type="MSShapeGroup"></path>
                <path d="M662.572349,289.358224 C662.814768,289.74427 662.698407,290.252531 662.312476,290.496962 C661.926545,290.739453 661.418435,290.621118 661.174077,290.237012 L660.006587,288.37274 C659.764168,287.986694 659.87859,287.478433 660.26646,287.235942 C660.650452,286.993451 661.158562,287.109847 661.400981,287.497832 L662.572349,289.358224" id="Fill-972" fill="#564E34" sketch:type="MSShapeGroup"></path>
                <path d="M654.212105,289.797453 C653.923142,290.259156 654.062775,290.866354 654.522401,291.157343 C654.982028,291.446392 655.592924,291.306718 655.881887,290.846954 L657.27822,288.619916 C657.569123,288.160153 657.42949,287.551015 656.969863,287.261966 C656.508298,286.970977 655.90128,287.108712 655.610378,287.570415 L654.212105,289.797453" id="Fill-973" fill="#564E34" sketch:type="MSShapeGroup"></path>
                <path d="M661.299197,292.756598 C661.299197,293.732383 660.449761,294.521934 659.400572,294.521934 L657.903393,294.521934 C656.852264,294.521934 656.000888,293.732383 656.000888,292.756598 C656.000888,291.778874 656.852264,290.989323 657.903393,290.989323 L659.400572,290.989323 C660.449761,290.989323 661.299197,291.778874 661.299197,292.756598" id="Fill-974" fill="#EA8B9A" sketch:type="MSShapeGroup"></path>
                <path d="M658.244718,293.363796 L658.09151,293.51705 L657.94024,293.363796 L657.94024,293.082506 L658.09151,292.929252 L658.244718,293.082506 L658.244718,293.363796" id="Fill-975" fill="#AC6271" sketch:type="MSShapeGroup"></path>
                <path d="M660.18601,293.363796 L660.032801,293.51705 L659.879592,293.363796 L659.879592,293.082506 L660.032801,292.929252 L660.18601,293.082506 L660.18601,293.363796" id="Fill-976" fill="#AC6271" sketch:type="MSShapeGroup"></path>
                <path d="M530.949549,170.713736 L582.383096,218.080978 L479.51988,218.080978 L530.949549,170.713736" id="Fill-977" fill="#3F4B50" sketch:type="MSShapeGroup"></path>
                <path d="M487.277287,217.272028 L573.634681,217.272028 L573.634681,339.881349 L487.277287,339.881349 L487.277287,217.272028 Z" id="Fill-978" fill="#F6F6F4" sketch:type="MSShapeGroup"></path>
                <path d="M487.277287,217.272028 L573.634681,217.272028 L573.634681,229.714731 L487.277287,229.714731 L487.277287,217.272028 Z" id="Fill-979" fill="#DCDFDB" sketch:type="MSShapeGroup"></path>
                <path d="M520.246267,258.759346 C520.246267,252.989997 524.922044,248.310889 530.691615,248.310889 C536.463126,248.310889 541.138903,252.989997 541.138903,258.759346 C541.138903,264.530634 536.463126,269.211682 530.691615,269.211682 C524.922044,269.211682 520.246267,264.530634 520.246267,258.759346" id="Fill-980" fill="#3F4B50" sketch:type="MSShapeGroup"></path>
                <path d="M520.397536,258.91066 L522.486218,258.91066 C522.486218,256.596325 523.417107,254.518661 524.93368,252.999697 C526.452192,251.484613 528.527299,250.553447 530.842885,250.551507 C533.15847,250.553447 535.235516,251.484613 536.754029,252.999697 C538.268662,254.518661 539.199551,256.596325 539.199551,258.91066 C539.199551,261.226935 538.268662,263.302659 536.752089,264.823563 C535.233577,266.338648 533.15847,267.271753 530.842885,267.271753 C528.529238,267.271753 526.452192,266.338648 524.93368,264.823563 C523.419046,263.302659 522.486218,261.224995 522.486218,258.91066 L518.306915,258.91066 C518.308854,265.836206 523.917459,271.45036 530.842885,271.4523 C537.770249,271.45036 543.376915,265.836206 543.378854,258.91066 C543.376915,251.987054 537.770249,246.3729 530.842885,246.37096 C523.917459,246.3729 518.308854,251.985114 518.306915,258.91066 L520.397536,258.91066" id="Fill-981" fill="#E88367" sketch:type="MSShapeGroup"></path>
                <path d="M518.306915,296.80911 L543.374975,296.80911 L543.374975,339.301311 L518.306915,339.301311 L518.306915,296.80911 Z" id="Fill-982" fill="#3F4B50" sketch:type="MSShapeGroup"></path>
                <path d="M518.306915,296.80911 L522.829483,296.80911 L522.829483,339.301311 L518.306915,339.301311 L518.306915,296.80911 Z" id="Fill-983" fill="#2B383B" sketch:type="MSShapeGroup"></path>
                <g transform="translate(435.349964, 161.260533)" sketch:type="MSShapeGroup">
                    <path d="M183.365476,183.945877 L10.1115487,11.6181196 L11.5835167,10.136014 L184.839383,182.463771 L183.365476,183.945877" id="Fill-984" fill="#9B6152"></path>
                    <path d="M11.5699412,180.607259 L10.1115487,179.109634 L183.479898,10.136014 L184.93829,11.633639 L11.5699412,180.607259" id="Fill-985" fill="#9B6152"></path>
                    <path d="M112.447261,65.4453246 L128.419762,81.4225784 L189.974787,19.8511775 L174.002286,3.86616404 L112.447261,65.4453246 L112.447261,65.4453246 Z M128.419762,84.8523725 L109.018487,65.4453246 L174.002286,0.436369882 L193.40356,19.8511775 L128.419762,84.8523725 L128.419762,84.8523725 Z" id="Fill-986" fill="#D18F67"></path>
                    <path d="M184.885928,27.6089529 L167.19904,9.90904232 L168.913427,8.19608517 L186.598375,25.8940558 L184.885928,27.6089529" id="Fill-987" fill="#D18F67"></path>
                    <path d="M179.071751,33.4287393 L161.380984,15.7307687 L163.095371,14.0158716 L180.786138,31.7138423 L179.071751,33.4287393" id="Fill-988" fill="#D18F67"></path>
                    <path d="M171.314344,39.2407661 L153.623578,21.5505552 L155.337964,19.8356581 L173.028731,37.5278089 L171.314344,39.2407661" id="Fill-989" fill="#D18F67"></path>
                    <path d="M165.498228,47.0024213 L147.805522,29.3102705 L149.51797,27.5953734 L167.212615,45.2894642 L165.498228,47.0024213" id="Fill-990" fill="#D18F67"></path>
                    <path d="M159.674355,52.8241477 L141.987467,35.1300569 L143.701854,33.4151598 L161.388742,51.1092506 L159.674355,52.8241477" id="Fill-991" fill="#D18F67"></path>
                    <path d="M153.858239,58.6458741 L136.169412,40.9498434 L137.883799,39.2349463 L155.572626,56.930977 L153.858239,58.6458741" id="Fill-992" fill="#D18F67"></path>
                    <path d="M146.100832,64.4598408 L128.412005,46.7696298 L130.126392,45.0547328 L147.815219,62.7449437 L146.100832,64.4598408" id="Fill-993" fill="#D18F67"></path>
                    <path d="M140.290534,72.2273158 L122.59395,54.5274052 L124.308337,52.8144481 L142.004921,70.5143586 L140.290534,72.2273158" id="Fill-994" fill="#D18F67"></path>
                    <path d="M134.4686,78.0393425 L116.775894,60.3491316 L118.490281,58.6342345 L136.182987,76.3244454 L134.4686,78.0393425" id="Fill-995" fill="#D18F67"></path>
                    <path d="M112.445322,128.485252 L173.996468,190.056652 L189.980605,174.081339 L128.417823,112.500238 L112.445322,128.485252 L112.445322,128.485252 Z M173.996468,193.484507 L109.018487,128.485252 L128.417823,109.072384 L193.407439,174.081339 L173.996468,193.484507 L173.996468,193.484507 Z" id="Fill-996" fill="#D18F67"></path>
                    <path d="M168.913427,186.681176 L167.19904,184.966279 L184.893685,167.270249 L186.608072,168.985146 L168.913427,186.681176" id="Fill-997" fill="#D18F67"></path>
                    <path d="M163.093432,180.85557 L161.380984,179.140673 L179.07563,161.450462 L180.788077,163.165359 L163.093432,180.85557" id="Fill-998" fill="#D18F67"></path>
                    <path d="M155.337964,173.105554 L153.623578,171.390657 L171.308526,153.690747 L173.020974,155.405644 L155.337964,173.105554" id="Fill-999" fill="#D18F67"></path>
                    <path d="M149.519909,167.281888 L147.805522,165.568931 L165.486592,147.87096 L167.200979,149.583917 L149.519909,167.281888" id="Fill-1000" fill="#D18F67"></path>
                    <path d="M143.699915,161.456282 L141.987467,159.741385 L159.672416,142.051174 L161.386803,143.766071 L143.699915,161.456282" id="Fill-1001" fill="#D18F67"></path>
                    <path d="M137.883799,155.644255 L136.169412,153.929358 L153.864057,136.231387 L155.578444,137.946284 L137.883799,155.644255" id="Fill-1002" fill="#D18F67"></path>
                    <path d="M130.126392,147.8826 L128.412005,146.169643 L146.098893,128.471672 L147.81134,130.184629 L130.126392,147.8826" id="Fill-1003" fill="#D18F67"></path>
                    <path d="M124.308337,142.066693 L122.59395,140.351796 L140.282777,122.651886 L141.997164,124.366783 L124.308337,142.066693" id="Fill-1004" fill="#D18F67"></path>
                    <path d="M118.490281,136.239147 L116.775894,134.52425 L134.462782,116.832099 L136.177169,118.546996 L118.490281,136.239147" id="Fill-1005" fill="#D18F67"></path>
                    <path d="M3.84356387,172.13753 L19.8218829,188.114784 L81.3749678,126.543383 L65.4024668,110.560309 L3.84356387,172.13753 L3.84356387,172.13753 Z M19.8218829,191.544578 L0.414789992,172.13753 L65.4024668,107.132455 L84.8037417,126.543383 L19.8218829,191.544578 L19.8218829,191.544578 Z" id="Fill-1006" fill="#D18F67"></path>
                    <path d="M23.9274905,184.745127 L6.23284521,167.045217 L7.94723215,165.33032 L25.6418774,183.03217 L23.9274905,184.745127" id="Fill-1007" fill="#D18F67"></path>
                    <path d="M31.6810188,176.973772 L13.9902522,159.285501 L15.7046391,157.570604 L33.3954057,175.260815 L31.6810188,176.973772" id="Fill-1008" fill="#D18F67"></path>
                    <path d="M37.4932559,171.165626 L19.8083074,153.465715 L21.5226943,151.750818 L39.2076429,169.450729 L37.4932559,171.165626" id="Fill-1009" fill="#D18F67"></path>
                    <path d="M43.3132505,165.347779 L25.6263626,147.645929 L27.3407496,145.931031 L45.0276374,163.632882 L43.3132505,165.347779" id="Fill-1010" fill="#D18F67"></path>
                    <path d="M49.1313057,159.518293 L31.4444178,141.824202 L33.1588048,140.111245 L50.8456927,157.803396 L49.1313057,159.518293" id="Fill-1011" fill="#D18F67"></path>
                    <path d="M56.8945307,151.762458 L39.2018248,134.066427 L40.9142724,132.35153 L58.6069783,150.04756 L56.8945307,151.762458" id="Fill-1012" fill="#D18F67"></path>
                    <path d="M62.7028892,145.946551 L45.01988,128.24664 L46.7323276,126.531743 L64.4172761,144.231654 L62.7028892,145.946551" id="Fill-1013" fill="#D18F67"></path>
                    <path d="M68.5306412,140.128704 L50.8379353,122.426854 L52.5503828,120.711957 L70.2450281,138.413807 L68.5306412,140.128704" id="Fill-1014" fill="#D18F67"></path>
                    <path d="M74.3389997,134.297278 L56.6559905,116.605127 L58.3703774,114.89217 L76.0533866,132.582381 L74.3389997,134.297278" id="Fill-1015" fill="#D18F67"></path>
                    <path d="M3.84356387,19.8492376 L65.4005275,81.4206385 L81.3769071,65.4433847 L19.8199435,3.86616404 L3.84356387,19.8492376 L3.84356387,19.8492376 Z M65.4005275,84.8484927 L0.414789992,19.8492376 L19.8199435,0.436369882 L84.8037417,65.4433847 L65.4005275,84.8484927 L65.4005275,84.8484927 Z" id="Fill-1016" fill="#D18F67"></path>
                    <path d="M7.94723215,27.6108928 L6.23284521,25.8959957 L23.9216724,8.19608517 L25.6360594,9.91098224 L7.94723215,27.6108928" id="Fill-1017" fill="#D18F67"></path>
                    <path d="M15.7046391,33.4306793 L13.9902522,31.7157822 L31.6771401,14.0158716 L33.391527,15.7288288 L15.7046391,33.4306793" id="Fill-1018" fill="#D18F67"></path>
                    <path d="M21.5226943,39.2388262 L19.8083074,37.5239291 L37.499074,19.8356581 L39.2134609,21.5505552 L21.5226943,39.2388262" id="Fill-1019" fill="#D18F67"></path>
                    <path d="M27.3407496,47.0043612 L25.6263626,45.2894642 L43.3210079,27.5953734 L45.0353948,29.3102705 L27.3407496,47.0043612" id="Fill-1020" fill="#D18F67"></path>
                    <path d="M33.1588048,52.8202678 L31.4444178,51.1073107 L49.127427,33.4151598 L50.841814,35.1300569 L33.1588048,52.8202678" id="Fill-1021" fill="#D18F67"></path>
                    <path d="M40.9162118,58.647814 L39.2018248,56.9348569 L56.890652,39.2349463 L58.605039,40.9498434 L40.9162118,58.647814" id="Fill-1022" fill="#D18F67"></path>
                    <path d="M46.734267,64.4617807 L45.01988,62.7468836 L62.712586,45.0547328 L64.4269729,46.7676899 L46.734267,64.4617807" id="Fill-1023" fill="#D18F67"></path>
                    <path d="M52.5523222,72.2292557 L50.8379353,70.5143586 L68.5345199,52.8144481 L70.2489068,54.5293451 L52.5523222,72.2292557" id="Fill-1024" fill="#D18F67"></path>
                    <path d="M58.3703774,78.0354627 L56.6559905,76.3225055 L74.3467571,58.6342345 L76.061144,60.3471917 L58.3703774,78.0354627" id="Fill-1025" fill="#D18F67"></path>
                    <path d="M89.6249701,97.4405707 C89.6249701,94.2261086 92.2333982,91.6130245 95.4546614,91.6130245 C98.672046,91.6130245 101.282413,94.2261086 101.282413,97.4405707 C101.282413,100.658913 98.672046,103.271997 95.4546614,103.271997 C92.2333982,103.271997 89.6249701,100.658913 89.6249701,97.4405707" id="Fill-1026" fill="#E56E3E"></path>
                </g>
                <path d="M576.487467,365.139223 L583.626221,352.554904 L597.054292,348.706085 L607.877814,345.30733 L619.017451,352.554904 L622.39968,369.779532" id="Fill-1027" fill="#95774B" sketch:type="MSShapeGroup"></path>
                <path d="M431.036087,361.259365 L438.17678,348.675047 L451.604851,344.826228 L462.428373,341.427473 L473.56801,348.675047 L476.950239,365.899675" id="Fill-1028" fill="#95774B" sketch:type="MSShapeGroup"></path>
                <path d="M448.490252,372.57497 L458.875481,346.886432 L477.499076,331.727828 L514.263366,331.727828 L529.745211,343.829104 L534.448139,372.57497" id="Fill-1029" fill="#9B6152" sketch:type="MSShapeGroup"></path>
                <path d="M508.610156,363.984965 L523.0176,338.599056 L550.112283,330.829641 L571.955202,323.968113 L594.434228,338.599056 L601.258807,373.352881" id="Fill-1030" fill="#AE8E5C" sketch:type="MSShapeGroup"></path>
                <path d="M816.762307,373.542994 C816.762307,373.542994 830.727579,314.425603 789.896468,292.929252 C749.063417,314.425603 763.030628,373.542994 763.030628,373.542994 L816.762307,373.542994" id="Fill-1031" fill="#30AE7A" sketch:type="MSShapeGroup"></path>
                <path d="M790.299057,373.542994 L763.433218,373.542994 C763.433218,373.542994 763.088013,372.082228 762.665234,369.538981 L771.720068,369.538981 C771.720068,369.538981 778.781247,339.656318 772.177755,309.044241 C776.479237,302.722013 782.351594,297.113678 790.299057,292.929252 L790.299057,373.542994" id="Fill-1032" fill="#289F6E" sketch:type="MSShapeGroup"></path>
                <path d="M772.533496,370.712638 C772.533496,370.712638 792.396337,286.641943 734.330206,256.070604 C676.262136,286.641943 696.126916,370.712638 696.126916,370.712638 L772.533496,370.712638" id="Fill-1033" fill="#30AE7A" sketch:type="MSShapeGroup"></path>
                <path d="M734.328803,370.712638 L696.125513,370.712638 C696.127452,370.712638 676.262672,286.641943 734.328803,256.070604 L734.328803,370.712638" id="Fill-1034" fill="#289F6E" sketch:type="MSShapeGroup"></path>
                <path d="M652.122185,363.086778 L662.712985,344.422723 L682.632067,338.711572 L698.689899,333.667757 L715.213176,344.422723 L720.232218,369.971585" id="Fill-1035" fill="#AE8E5C" sketch:type="MSShapeGroup"></path>
                <g id="Group-1040" transform="translate(0.500000, 338.462144)" sketch:type="MSShapeGroup">
                    <path d="M791.587139,25.6139977 L800.609004,9.71628099 L817.578332,4.85287944 L831.25464,0.555937098 L845.332394,9.71628099 L849.608665,31.4803424" id="Fill-1036" fill="#95774B"></path>
                    <path d="M942.747972,23.0358323 C935.828365,23.0358323 929.876494,18.9328828 927.176916,13.0354992 L924.05456,13.0354992 C921.347225,18.9328828 915.401173,23.0358323 908.477687,23.0358323 C901.556141,23.0358323 895.608149,18.9328828 892.902753,13.0354992 L889.780397,13.0354992 C887.076941,18.9328828 881.123131,23.0358323 874.201584,23.0358323 C867.280038,23.0358323 861.333986,18.9328828 858.62859,13.0354992 L855.506234,13.0354992 C852.800838,18.9328828 846.854785,23.0358323 839.9313,23.0358323 C833.009753,23.0358323 827.061762,18.9328828 824.356366,13.0354992 L821.23207,13.0354992 C818.528614,18.9328828 812.580622,23.0358323 805.657136,23.0358323 C798.73559,23.0358323 792.787598,18.9328828 790.084142,13.0354992 L786.959846,13.0354992 C784.25639,18.9328828 778.304519,23.0358323 771.384912,23.0358323 C764.463366,23.0358323 758.515374,18.9328828 755.809979,13.0354992 L752.687622,13.0354992 C749.980287,18.9328828 744.034235,23.0358323 737.110749,23.0358323 C730.191142,23.0358323 724.241211,18.9328828 721.537755,13.0354992 L718.413459,13.0354992 C715.708063,18.9328828 709.760071,23.0358323 702.840464,23.0358323 C695.918918,23.0358323 689.968987,18.9328828 687.263591,13.0354992 L684.143174,13.0354992 C681.435839,18.9328828 675.487848,23.0358323 668.564362,23.0358323 C661.644755,23.0358323 655.696763,18.9328828 652.991367,13.0354992 L649.867072,13.0354992 C647.163615,18.9328828 641.213684,23.0358323 634.294077,23.0358323 C627.372531,23.0358323 621.424539,18.9328828 618.719143,13.0354992 L615.594848,13.0354992 C612.891391,18.9328828 606.94146,23.0358323 600.021853,23.0358323 C593.100307,23.0358323 587.150376,18.9328828 584.446919,13.0354992 L581.322624,13.0354992 C578.617228,18.9328828 572.671176,23.0358323 565.745751,23.0358323 C558.826144,23.0358323 552.880091,18.9328828 550.172756,13.0354992 L547.0504,13.0354992 C544.345004,18.9328828 538.397012,23.0358323 531.475466,23.0358323 C524.55198,23.0358323 518.603988,18.9328828 515.900532,13.0354992 L512.778176,13.0354992 C510.070841,18.9328828 504.122849,23.0358323 497.203242,23.0358323 C490.281696,23.0358323 484.331764,18.9328828 481.628308,13.0354992 L478.504012,13.0354992 C475.798617,18.9328828 469.848686,23.0358323 462.931018,23.0358323 C456.007532,23.0358323 450.05954,18.9328828 447.356084,13.0354992 L444.231789,13.0354992 C441.526393,18.9328828 435.578401,23.0358323 428.656855,23.0358323 C421.735308,23.0358323 415.787317,18.9328828 413.081921,13.0354992 L409.959565,13.0354992 C407.254169,18.9328828 401.306177,23.0358323 394.384631,23.0358323 C387.463084,23.0358323 381.513153,18.9328828 378.809697,13.0354992 L375.687341,13.0354992 C372.981945,18.9328828 367.032014,23.0358323 360.110467,23.0358323 C353.188921,23.0358323 347.240929,18.9328828 344.535534,13.0354992 L341.411238,13.0354992 C338.707782,18.9328828 332.75979,23.0358323 325.838243,23.0358323 C318.916697,23.0358323 312.968705,18.9328828 310.265249,13.0354992 L307.140953,13.0354992 C304.435558,18.9328828 298.487566,23.0358323 291.566019,23.0358323 C284.642534,23.0358323 278.694542,18.9328828 275.991086,13.0354992 L272.86679,13.0354992 C270.163334,18.9328828 264.213402,23.0358323 257.291856,23.0358323 C250.37031,23.0358323 244.422318,18.9328828 241.718862,13.0354992 L238.594566,13.0354992 C235.887231,18.9328828 229.939239,23.0358323 223.021572,23.0358323 C216.098086,23.0358323 210.150094,18.9328828 207.444698,13.0354992 L204.322342,13.0354992 C201.616946,18.9328828 195.668955,23.0358323 188.745469,23.0358323 C181.825862,23.0358323 175.87787,18.9328828 173.172474,13.0354992 L170.050118,13.0354992 C167.344722,18.9328828 161.39867,23.0358323 154.473245,23.0358323 C147.551699,23.0358323 141.603707,18.9328828 138.90025,13.0354992 L135.775955,13.0354992 C133.070559,18.9328828 127.122567,23.0358323 120.201021,23.0358323 C113.279475,23.0358323 107.329543,18.9328828 104.626087,13.0354992 L101.503731,13.0354992 C98.7963957,18.9328828 92.848404,23.0358323 85.9287969,23.0358323 C79.0053112,23.0358323 73.0573194,18.9328828 70.3519238,13.0354992 L67.2315068,13.0354992 C64.5261111,18.9328828 58.5781193,23.0358323 51.656573,23.0358323 C44.7330873,23.0358323 38.7870348,18.9328828 36.0816391,13.0354992 L32.9573435,13.0354992 C30.2519478,18.9328828 24.303956,23.0358323 17.3824097,23.0358323 C10.4608633,23.0358323 4.5128715,18.9328828 1.80941517,13.0354992 L0,13.0354992 L0,63.6075036 L959.886023,63.6075036 L959.886023,13.0354992 L958.320966,13.0354992 C955.61751,18.9328828 949.669518,23.0358323 942.747972,23.0358323" id="Fill-1038" fill="#2F98A6"></path>
                    <path d="M0,74.581851 L959.666876,74.581851 L959.666876,63.6075036 L0,63.6075036 L0,74.581851 Z" id="Fill-1039" fill="#45B7AF"></path>
                </g>
            </g>
        </g>
    </g>
</svg>