<?xml version="1.0" encoding="UTF-8" standalone="no"?>
<svg width="160px" height="167px" viewBox="0 0 160 167" version="1.1" xmlns="http://www.w3.org/2000/svg" xmlns:xlink="http://www.w3.org/1999/xlink" xmlns:sketch="http://www.bohemiancoding.com/sketch/ns">
    <!-- Generator: Sketch 3.3.1 (12005) - http://www.bohemiancoding.com/sketch -->
    <title>student-boy</title>
    <desc>Created with Sketch.</desc>
    <defs></defs>
    <g id="Page-12" stroke="none" stroke-width="1" fill="none" fill-rule="evenodd" sketch:type="MSPage">
        <g id="student-boy" sketch:type="MSLayerGroup">
            <path d="M159.221945,79.6411428 C159.221945,123.383689 123.759574,158.847141 80.015947,158.847141 C36.2723197,158.847141 0.80994855,123.383689 0.80994855,79.6411428 C0.80994855,35.8975155 36.2723197,0.435144333 80.015947,0.435144333 C123.759574,0.435144333 159.221945,35.8975155 159.221945,79.6411428" id="Fill-61" fill="#978276" sketch:type="MSShapeGroup"></path>
            <path d="M128.588189,70.7360897 C128.156828,70.6160872 127.683305,70.5674375 127.216268,70.5533831 C127.094103,70.5490587 126.975182,70.5458154 126.854098,70.5479776 C126.391386,73.6842601 125.24001,77.6389383 125.24974,72.4409906 C125.257308,68.0571142 113.830039,59.4396347 108.239651,57.174722 C103.687122,55.333602 100.633003,53.7432981 97.4815854,50.1659252 C93.6317743,56.4547068 88.8608626,64.6494746 76.1211339,65.0862406 C61.8992117,65.5770617 58.8353631,61.3023768 52.4611743,62.0396897 C46.0826611,62.7759215 41.9117622,64.9824546 39.9517207,67.1911499 C37.9905982,69.397683 39.0230525,73.03776 36.8154382,73.6658814 L36.1321806,70.500409 L36.1083963,70.6387904 C35.4208142,70.5512209 34.5159302,70.4971657 33.6726691,70.613925 C33.4553672,70.6463581 33.2380653,70.6787912 33.0337367,70.7360897 C31.2780239,71.2225865 27.8682221,74.8291492 29.2336564,79.3092439 C30.2098932,82.5212037 33.6834802,84.324485 36.6165151,84.6628706 C39.9171254,101.108624 52.1638708,114.312146 68.0658285,118.995488 L68.0658285,134.99907 L93.556097,134.99907 L93.556097,119.001975 C109.468866,114.325119 121.729665,101.117272 125.030276,84.6607083 C127.957905,84.313674 131.415276,82.5125548 132.388269,79.3092439 C133.753703,74.8291492 130.343902,71.2225865 128.588189,70.7360897" id="Fill-62" fill="#F5D6B7" sketch:type="MSShapeGroup"></path>
            <path d="M80.1673016,23.1383269 C57.4100638,23.1383269 33.2430665,41.6943948 33.2430665,64.5846083 C33.2430665,66.3922141 33.4300975,68.169549 33.7511854,69.9155318 C34.5944464,69.7987726 35.4993304,69.8528278 36.1869125,69.9403972 L36.2106968,69.8020159 L36.8939545,72.9674882 C39.1015687,72.3393668 38.0691145,68.6992899 40.030237,66.4927568 C41.9902784,64.2840614 46.1611774,62.0775283 52.5396906,61.3412965 C58.9138794,60.6039837 61.9777279,64.8786686 76.1996501,64.3878474 C88.9393789,63.9510814 93.7102905,55.7563136 97.5601016,49.4675321 C100.71152,53.044905 103.765638,54.6352088 108.318167,56.4763288 C113.908555,58.7412416 125.335824,67.358721 125.328256,71.7425975 C125.318526,76.9405452 126.469902,72.985867 126.932614,69.8495845 C127.053698,69.8474223 127.172619,69.8506656 127.294784,69.85499 C127.616953,68.1273859 127.806146,66.3716731 127.806146,64.5846083 C127.806146,41.6943948 102.923458,23.1383269 80.1673016,23.1383269" id="Fill-63" fill="#E88364" sketch:type="MSShapeGroup"></path>
            <path d="M74.3250159,91.3724155 C77.1704815,88.4091096 81.867878,88.3139725 84.8311839,91.1561947" id="Fill-64" fill="#EAB684" sketch:type="MSShapeGroup"></path>
            <path d="M115.387505,96.1031124 C115.387505,101.768097 110.793895,106.362789 105.125667,106.362789 C99.4596012,106.362789 94.8659906,101.768097 94.8659906,96.1031124 C94.8659906,90.4359655 99.4596012,85.8423549 105.125667,85.8423549 C110.793895,85.8423549 115.387505,90.4359655 115.387505,96.1031124" id="Fill-65" fill="#F5CBAF" sketch:type="MSShapeGroup"></path>
            <path d="M45.1352098,96.1031124 C45.1352098,101.768097 49.7288204,106.362789 55.3959672,106.362789 C61.0620329,106.362789 65.6556435,101.768097 65.6556435,96.1031124 C65.6556435,90.4359655 61.0620329,85.8423549 55.3959672,85.8423549 C49.7288204,85.8423549 45.1352098,90.4359655 45.1352098,96.1031124" id="Fill-66" fill="#F5CBAF" sketch:type="MSShapeGroup"></path>
            <path d="M99.5709549,78.2746274 C98.1655198,78.2746274 97.0281985,79.4119488 97.0281985,80.8163028 C97.0281985,82.2195757 98.1655198,83.3590592 99.5709549,83.3590592 C100.974228,83.3590592 102.113711,82.2195757 102.113711,80.8163028 C102.113711,79.4119488 100.974228,78.2746274 99.5709549,78.2746274" id="Fill-67" fill="#614C43" sketch:type="MSShapeGroup"></path>
            <path d="M61.7323173,78.2746274 C60.3279633,78.2746274 59.1895609,79.4108677 59.1895609,80.8173839 C59.1895609,82.2206568 60.3279633,83.3601403 61.7323173,83.3601403 C63.1366713,83.3601403 64.2739927,82.2206568 64.2739927,80.8173839 C64.2739927,79.4108677 63.1366713,78.2746274 61.7323173,78.2746274" id="Fill-68" fill="#614C43" sketch:type="MSShapeGroup"></path>
            <path d="M92.0218059,96.7453161 C91.6369329,96.5420686 91.159085,96.6869365 90.9558374,97.0707284 C88.8703879,100.994055 84.8800333,103.411403 80.2842605,103.540054 C75.3511833,103.681679 70.7348695,101.18541 68.2191406,97.0328898 C67.994271,96.66099 67.5099364,96.5431497 67.1369556,96.7680193 C66.7650558,96.9928889 66.6461344,97.4783046 66.871004,97.8480421 C69.6072781,102.363813 74.5673829,105.122791 79.8950631,105.122791 C80.039931,105.122791 80.1847989,105.119547 80.3285858,105.115223 C85.4995059,104.972517 89.9925738,102.239486 92.3472182,97.8123657 C92.5515468,97.4264116 92.4045167,96.9496448 92.0218059,96.7453161" id="Fill-69" fill="#D76C6B" sketch:type="MSShapeGroup"></path>
            <path d="M130.979186,166.054861 C126.766124,162.768305 122.168189,159.879596 117.318357,157.469815 L116.488069,154.895706 L116.659965,154.570294 C116.965917,153.994066 117.27187,153.415675 117.582146,152.839447 L120.085983,152.042673 C121.100059,152.545386 122.115215,153.076208 123.120642,153.627571 C125.446096,149.90425 127.864526,146.211198 130.325118,142.623015 L132.831117,142.059759 C136.843094,144.392782 140.712365,147.017702 144.331901,149.859924 L143.623778,153.177832 C140.628039,153.924875 137.67122,154.834083 134.814943,155.887079 C134.662507,158.829844 134.393313,161.82342 134.012764,164.805105 L130.979186,166.054861" id="Fill-70" fill="#FFFAF0" sketch:type="MSShapeGroup"></path>
            <path d="M26.2634595,164.807267 C25.883992,161.829907 25.6158783,158.83633 25.4634426,155.885998 C22.5920306,154.828678 19.6341302,153.920551 16.6546078,153.177832 L15.9454036,149.859924 C19.5649396,147.017702 23.4342105,144.392782 27.444025,142.059759 L29.951105,142.623015 C32.4106165,146.209036 34.8301271,149.903168 37.1555816,153.627571 C38.1664138,153.074046 39.1848137,152.543224 40.196727,152.040511 L42.703807,152.847014 L42.9124601,153.238374 C43.2076014,153.794061 43.5027428,154.347587 43.7935598,154.904355 L42.9600286,157.469815 C38.1091153,159.878514 33.5144236,162.767224 29.2970372,166.054861 L26.2634595,164.807267" id="Fill-71" fill="#FFFAF0" sketch:type="MSShapeGroup"></path>
            <path d="M123.142264,155.533558 C121.996294,154.892463 120.805998,154.264342 119.600567,153.662167 C107.81221,147.673932 94.2313826,144.510622 80.3121695,144.510622 C66.3940375,144.510622 52.8121288,147.673932 41.0367447,153.656761 C39.8496926,154.244882 38.6593972,154.873003 37.4799128,155.533558 L34.9447241,154.861111 C32.7208933,151.191844 30.3738167,147.496631 27.9672793,143.877095 C27.2094255,142.739774 26.4461661,141.605696 25.675339,140.475942 L26.2850816,137.778588 C42.1167676,128.55569 60.7993246,123.680993 80.3132506,123.680993 C99.8271766,123.680993 118.508652,128.55569 134.338176,137.78075 L134.946838,140.479185 C134.173848,141.605696 133.409508,142.737612 132.65706,143.874933 C130.24836,147.496631 127.901283,151.191844 125.677453,154.861111 L123.142264,155.533558" id="Fill-72" fill="#FFFAF0" sketch:type="MSShapeGroup"></path>
            <path d="M133.700325,164.012656 C129.385639,160.642855 124.696891,157.687117 119.731381,155.205983 C120.094632,154.525969 120.455721,153.844873 120.823296,153.163778 C122.35522,153.930281 123.86336,154.741109 125.344473,155.5941 C127.944528,151.395092 130.650531,147.240409 133.466806,143.140863 C137.410674,145.443615 141.178321,148.005831 144.725423,150.795079 C141.193456,151.679422 137.797709,152.758364 134.555478,154.005958 C134.412772,157.383327 134.121955,160.719613 133.700325,164.012656" id="Fill-73" fill="#978276" sketch:type="MSShapeGroup"></path>
            <path d="M40.9394454,155.205983 C35.9760972,157.687117 31.2884306,160.642855 26.9715826,164.012656 C26.548871,160.719613 26.258054,157.383327 26.1175105,154.004877 C22.8731176,152.758364 19.4784512,151.678341 15.9454036,150.795079 C19.4935867,148.005831 23.2590717,145.443615 27.2018577,143.140863 C30.0192146,147.240409 32.7273799,151.395092 35.3263538,155.5941 C36.8074662,154.741109 38.314525,153.930281 39.8518548,153.161616 C40.2151058,153.844873 40.5805189,154.523807 40.9394454,155.205983" id="Fill-74" fill="#978276" sketch:type="MSShapeGroup"></path>
            <path d="M37.0809855,154.053526 C34.8441814,150.319393 32.5219702,146.623099 30.1197572,142.964643 C29.3651467,141.817592 28.6051306,140.671622 27.8375468,139.53322 C59.5149731,121.280942 102.111549,121.27878 133.792219,139.53322 C133.022473,140.671622 132.259213,141.816511 131.507846,142.964643 C129.105633,146.623099 126.783422,150.319393 124.547699,154.053526 C123.357404,153.395134 122.150892,152.765932 120.922758,152.160513 C96.3633196,139.809982 65.2686083,139.809982 40.707008,152.160513 C39.478874,152.762688 38.2701998,153.395134 37.0809855,154.053526 Z" id="Fill-75" fill="#978276" sketch:type="MSShapeGroup"></path>
        </g>
    </g>
</svg>