<?xml version="1.0" encoding="UTF-8" standalone="no"?>
<svg width="403px" height="330px" viewBox="0 0 403 330" version="1.1" xmlns="http://www.w3.org/2000/svg" xmlns:xlink="http://www.w3.org/1999/xlink" xmlns:sketch="http://www.bohemiancoding.com/sketch/ns">
    <!-- Generator: Sketch 3.3.1 (12005) - http://www.bohemiancoding.com/sketch -->
    <title>student-notebook</title>
    <desc>Created with Sketch.</desc>
    <defs></defs>
    <g id="Page-12" stroke="none" stroke-width="1" fill="none" fill-rule="evenodd" sketch:type="MSPage">
        <g id="student-notebook" sketch:type="MSLayerGroup" transform="translate(57.000000, 15.000000)">
            <path d="M88,150 L195,150 L195,266.143444 C140.727786,306.320696 88,266.143444 88,266.143444 L88,150" id="Fill-1" fill="#001628" sketch:type="MSShapeGroup"></path>
            <path d="M138.544226,300 C110.882682,300 83.555883,285.865383 57.2131384,257.910593 C52.7285093,253.150193 52.9671039,245.668551 57.7484925,241.201317 C62.529881,236.734083 70.0414567,236.971689 74.5272729,241.733272 C97.625843,266.24809 120.595026,277.841148 142.803318,276.200364 C175.702073,273.764014 197.153034,243.402426 197.365514,243.097439 C201.095187,237.728247 208.489246,236.38654 213.881959,240.099581 C219.272298,243.814986 220.620773,251.178416 216.8911,256.547608 C215.757479,258.177752 188.646721,296.513926 144.563695,299.776579 C142.556414,299.925526 140.547946,300 138.544226,300" id="Fill-2" fill="#102F41" sketch:type="MSShapeGroup"></path>
            <path d="M185.372704,241 L95,240.138815 L96.6272959,68 L187,68.8588191 L185.372704,241" id="Fill-3" fill="#006B6D" sketch:type="MSShapeGroup"></path>
            <path d="M1,11 L289,11 L289,169 L1,169 L1,11 Z" id="Fill-4" fill="#664B3A" sketch:type="MSShapeGroup"></path>
            <path d="M195,213.179723 C195,229.648675 170.151465,243 139.5,243 C108.848535,243 84,229.648675 84,213.179723 C84,196.708412 90.5188143,181 139.5,181 C188.481186,181 195,196.708412 195,213.179723" id="Fill-5" fill="#058486" sketch:type="MSShapeGroup"></path>
            <path d="M221.090909,45 L63.9090909,45 L58,10 L227,10 L221.090909,45" id="Fill-6" fill="#F1F0EF" sketch:type="MSShapeGroup"></path>
            <path d="M226,11 L220.090909,46 L62.9090909,46 L57,11 L226,11 M226.541031,1 L57.4588564,1 C54.6624974,1 52.0103903,2.24719845 50.2119708,4.40448248 C48.4159161,6.56295773 47.6580023,9.41114445 48.1439657,12.1866673 L54.0559299,47.1272832 C54.8528626,51.6800935 58.7807716,55 63.3708206,55 L220.629067,55 C225.219116,55 229.145843,51.6800935 229.943958,47.1272832 L235.855922,12.1866673 C236.341886,9.41114445 235.585154,6.56295773 233.787917,4.40448248 C231.989498,2.24719845 229.33739,1 226.541031,1" id="Fill-7" fill="#001628" sketch:type="MSShapeGroup"></path>
            <path d="M225,103.142554 C225,107.482846 221.4544,111 217.078727,111 L68.9212732,111 C64.5467856,111 61,107.482846 61,103.142554 L61,61.8574464 C61,57.5183298 64.5467856,54 68.9212732,54 L217.078727,54 C221.4544,54 225,57.5183298 225,61.8574464 L225,103.142554" id="Fill-8" fill="#001628" sketch:type="MSShapeGroup"></path>
            <path d="M210.849976,103.474911 C210.849976,103.73036 211.140672,104 210.912766,104 L202.503487,104 C202.276743,104 202,103.73036 202,103.474911 L202,97.5215408 C202,97.2696401 202.276743,97 202.503487,97 L210.912766,97 C211.140672,97 210.849976,97.2696401 210.849976,97.5215408 L210.849976,103.474911" id="Fill-9" fill="#F8F1E6" sketch:type="MSShapeGroup"></path>
            <path d="M197,75.5423986 C197,75.7954392 196.793179,76 196.540267,76 L190.460915,76 C190.208003,76 190,75.7954392 190,75.5423986 L190,69.4587838 C190,69.2057432 190.208003,69 190.460915,69 L196.540267,69 C196.793179,69 197,69.2057432 197,69.4587838 L197,75.5423986" id="Fill-10" fill="#F8F1E6" sketch:type="MSShapeGroup"></path>
            <path d="M202,84.5423213 C202,84.794222 201.791962,85 201.540189,85 L195.458629,85 C195.205674,85 195,84.794222 195,84.5423213 L195,78.4588613 C195,78.2045954 195.205674,78 195.458629,78 L201.540189,78 C201.791962,78 202,78.2045954 202,78.4588613 L202,84.5423213" id="Fill-11" fill="#F8F1E6" sketch:type="MSShapeGroup"></path>
            <path d="M95,75.5423986 C95,75.7954392 94.7942568,76 94.5412162,76 L88.4576014,76 C88.2057432,76 88,75.7954392 88,75.5423986 L88,69.4587838 C88,69.2057432 88.2057432,69 88.4576014,69 L94.5412162,69 C94.7942568,69 95,69.2057432 95,69.4587838 L95,75.5423986" id="Fill-12" fill="#F8F1E6" sketch:type="MSShapeGroup"></path>
            <path d="M104,75.5423986 C104,75.7954392 103.793074,76 103.542399,76 L97.4564189,76 C97.2033784,76 97,75.7954392 97,75.5423986 L97,69.4587838 C97,69.2057432 97.2033784,69 97.4564189,69 L103.542399,69 C103.793074,69 104,69.2057432 104,69.4587838 L104,75.5423986" id="Fill-13" fill="#F8F1E6" sketch:type="MSShapeGroup"></path>
            <path d="M109,84.5423213 C109,84.794222 108.796622,85 108.540034,85 L102.457601,85 C102.204561,85 102,84.794222 102,84.5423213 L102,78.4588613 C102,78.2045954 102.204561,78 102.457601,78 L108.540034,78 C108.796622,78 109,78.2045954 109,78.4588613 L109,84.5423213" id="Fill-14" fill="#F8F1E6" sketch:type="MSShapeGroup"></path>
            <path d="M113,75.5423986 C113,75.7954392 112.793039,76 112.539956,76 L106.455313,76 C106.203413,76 106,75.7954392 106,75.5423986 L106,69.4587838 C106,69.2057432 106.203413,69 106.455313,69 L112.539956,69 C112.793039,69 113,69.2057432 113,69.4587838 L113,75.5423986" id="Fill-15" fill="#F8F1E6" sketch:type="MSShapeGroup"></path>
            <path d="M118,84.5423213 C118,84.794222 117.793074,85 117.541216,85 L111.457601,85 C111.204561,85 111,84.794222 111,84.5423213 L111,78.4588613 C111,78.2045954 111.204561,78 111.457601,78 L117.541216,78 C117.793074,78 118,78.2045954 118,78.4588613 L118,84.5423213" id="Fill-16" fill="#F8F1E6" sketch:type="MSShapeGroup"></path>
            <path d="M122,75.5423986 C122,75.7954392 121.793074,76 121.542399,76 L115.456419,76 C115.204561,76 115,75.7954392 115,75.5423986 L115,69.4587838 C115,69.2057432 115.204561,69 115.456419,69 L121.542399,69 C121.793074,69 122,69.2057432 122,69.4587838 L122,75.5423986" id="Fill-17" fill="#F8F1E6" sketch:type="MSShapeGroup"></path>
            <path d="M123,93.5435811 C123,93.7978041 122.791892,94 122.540034,94 L116.457601,94 C116.203378,94 116,93.7978041 116,93.5435811 L116,87.4599662 C116,87.2057432 116.203378,87 116.457601,87 L122.540034,87 C122.791892,87 123,87.2057432 123,87.4599662 L123,93.5435811" id="Fill-18" fill="#F8F1E6" sketch:type="MSShapeGroup"></path>
            <path d="M127,84.5423213 C127,84.794222 126.794222,85 126.539956,85 L120.455313,85 C120.204595,85 120,84.794222 120,84.5423213 L120,78.4588613 C120,78.2045954 120.204595,78 120.455313,78 L126.539956,78 C126.794222,78 127,78.2045954 127,78.4588613 L127,84.5423213" id="Fill-19" fill="#F8F1E6" sketch:type="MSShapeGroup"></path>
            <path d="M132,75.5423986 C132,75.7954392 131.791892,76 131.541216,76 L125.457601,76 C125.203378,76 125,75.7954392 125,75.5423986 L125,69.4587838 C125,69.2057432 125.203378,69 125.457601,69 L131.541216,69 C131.791892,69 132,69.2057432 132,69.4587838 L132,75.5423986" id="Fill-20" fill="#F8F1E6" sketch:type="MSShapeGroup"></path>
            <path d="M132,93.5435811 C132,93.7978041 131.791892,94 131.541216,94 L125.457601,94 C125.203378,94 125,93.7978041 125,93.5435811 L125,87.4599662 C125,87.2057432 125.203378,87 125.457601,87 L131.541216,87 C131.791892,87 132,87.2057432 132,87.4599662 L132,93.5435811" id="Fill-21" fill="#F8F1E6" sketch:type="MSShapeGroup"></path>
            <path d="M137,84.5423213 C137,84.794222 136.791892,85 136.540034,85 L130.457601,85 C130.203378,85 130,84.794222 130,84.5423213 L130,78.4588613 C130,78.2045954 130.203378,78 130.457601,78 L136.540034,78 C136.791892,78 137,78.2045954 137,78.4588613 L137,84.5423213" id="Fill-22" fill="#F8F1E6" sketch:type="MSShapeGroup"></path>
            <path d="M142,75.5423986 C142,75.7954392 141.795439,76 141.541216,76 L135.457601,76 C135.205743,76 135,75.7954392 135,75.5423986 L135,69.4587838 C135,69.2057432 135.205743,69 135.457601,69 L141.541216,69 C141.795439,69 142,69.2057432 142,69.4587838 L142,75.5423986" id="Fill-23" fill="#F8F1E6" sketch:type="MSShapeGroup"></path>
            <path d="M142,93.5435811 C142,93.7978041 141.795439,94 141.541216,94 L135.457601,94 C135.205743,94 135,93.7978041 135,93.5435811 L135,87.4599662 C135,87.2057432 135.205743,87 135.457601,87 L141.541216,87 C141.795439,87 142,87.2057432 142,87.4599662 L142,93.5435811" id="Fill-24" fill="#F8F1E6" sketch:type="MSShapeGroup"></path>
            <path d="M146,84.5423213 C146,84.794222 145.791892,85 145.538851,85 L139.456419,85 C139.203378,85 139,84.794222 139,84.5423213 L139,78.4588613 C139,78.2045954 139.203378,78 139.456419,78 L145.538851,78 C145.791892,78 146,78.2045954 146,78.4588613 L146,84.5423213" id="Fill-25" fill="#F8F1E6" sketch:type="MSShapeGroup"></path>
            <path d="M151,75.5423986 C151,75.7954392 150.793074,76 150.540034,76 L144.457601,76 C144.204561,76 144,75.7954392 144,75.5423986 L144,69.4587838 C144,69.2057432 144.204561,69 144.457601,69 L150.540034,69 C150.793074,69 151,69.2057432 151,69.4587838 L151,75.5423986" id="Fill-26" fill="#F8F1E6" sketch:type="MSShapeGroup"></path>
            <path d="M151,93.5435811 C151,93.7978041 150.793039,94 150.539956,94 L144.455313,94 C144.203413,94 144,93.7978041 144,93.5435811 L144,87.4599662 C144,87.2057432 144.203413,87 144.455313,87 L150.539956,87 C150.793039,87 151,87.2057432 151,87.4599662 L151,93.5435811" id="Fill-27" fill="#F8F1E6" sketch:type="MSShapeGroup"></path>
            <path d="M156,84.5423213 C156,84.794222 155.793074,85 155.541216,85 L149.457601,85 C149.204561,85 149,84.794222 149,84.5423213 L149,78.4588613 C149,78.2045954 149.204561,78 149.457601,78 L155.541216,78 C155.793074,78 156,78.2045954 156,78.4588613 L156,84.5423213" id="Fill-28" fill="#F8F1E6" sketch:type="MSShapeGroup"></path>
            <path d="M160,75.5423986 C160,75.7954392 159.793074,76 159.540034,76 L153.457601,76 C153.204561,76 153,75.7954392 153,75.5423986 L153,69.4587838 C153,69.2057432 153.204561,69 153.457601,69 L159.540034,69 C159.793074,69 160,69.2057432 160,69.4587838 L160,75.5423986" id="Fill-29" fill="#F8F1E6" sketch:type="MSShapeGroup"></path>
            <path d="M160,93.5435811 C160,93.7978041 159.793074,94 159.540034,94 L153.456419,94 C153.204561,94 153,93.7978041 153,93.5435811 L153,87.4599662 C153,87.2057432 153.204561,87 153.456419,87 L159.540034,87 C159.793074,87 160,87.2057432 160,87.4599662 L160,93.5435811" id="Fill-30" fill="#F8F1E6" sketch:type="MSShapeGroup"></path>
            <path d="M165,84.5423213 C165,84.794222 164.791892,85 164.540034,85 L158.456419,85 C158.203378,85 158,84.794222 158,84.5423213 L158,78.4588613 C158,78.2045954 158.203378,78 158.456419,78 L164.540034,78 C164.791892,78 165,78.2045954 165,78.4588613 L165,84.5423213" id="Fill-31" fill="#F8F1E6" sketch:type="MSShapeGroup"></path>
            <path d="M169,75.5423986 C169,75.7954392 168.796519,76 168.54335,76 L162.45665,76 C162.204665,76 162,75.7954392 162,75.5423986 L162,69.4587838 C162,69.2057432 162.204665,69 162.45665,69 L168.54335,69 C168.796519,69 169,69.2057432 169,69.4587838 L169,75.5423986" id="Fill-32" fill="#F8F1E6" sketch:type="MSShapeGroup"></path>
            <path d="M170,93.5435811 C170,93.7978041 169.791892,94 169.540034,94 L163.457601,94 C163.203378,94 163,93.7978041 163,93.5435811 L163,87.4599662 C163,87.2057432 163.203378,87 163.457601,87 L169.540034,87 C169.791892,87 170,87.2057432 170,87.4599662 L170,93.5435811" id="Fill-33" fill="#F8F1E6" sketch:type="MSShapeGroup"></path>
            <path d="M174,84.5423213 C174,84.794222 173.794257,85 173.540034,85 L167.457601,85 C167.205743,85 167,84.794222 167,84.5423213 L167,78.4588613 C167,78.2045954 167.205743,78 167.457601,78 L173.540034,78 C173.794257,78 174,78.2045954 174,78.4588613 L174,84.5423213" id="Fill-34" fill="#F8F1E6" sketch:type="MSShapeGroup"></path>
            <path d="M178,75.5423986 C178,75.7954392 177.794257,76 177.540034,76 L171.456419,76 C171.205743,76 171,75.7954392 171,75.5423986 L171,69.4587838 C171,69.2057432 171.205743,69 171.456419,69 L177.540034,69 C177.794257,69 178,69.2057432 178,69.4587838 L178,75.5423986" id="Fill-35" fill="#F8F1E6" sketch:type="MSShapeGroup"></path>
            <path d="M179,93.5435811 C179,93.7978041 178.793074,94 178.541216,94 L172.457601,94 C172.203378,94 172,93.7978041 172,93.5435811 L172,87.4599662 C172,87.2057432 172.203378,87 172.457601,87 L178.541216,87 C178.793074,87 179,87.2057432 179,87.4599662 L179,93.5435811" id="Fill-36" fill="#F8F1E6" sketch:type="MSShapeGroup"></path>
            <path d="M183,84.5423213 C183,84.794222 182.796553,85 182.542244,85 L176.457756,85 C176.205813,85 176,84.794222 176,84.5423213 L176,78.4588613 C176,78.2045954 176.205813,78 176.457756,78 L182.542244,78 C182.796553,78 183,78.2045954 183,78.4588613 L183,84.5423213" id="Fill-37" fill="#F8F1E6" sketch:type="MSShapeGroup"></path>
            <path d="M188,75.5423986 C188,75.7954392 187.795335,76 187.542167,76 L181.45665,76 C181.203481,76 181,75.7954392 181,75.5423986 L181,69.4587838 C181,69.2057432 181.203481,69 181.45665,69 L187.542167,69 C187.795335,69 188,69.2057432 188,69.4587838 L188,75.5423986" id="Fill-38" fill="#F8F1E6" sketch:type="MSShapeGroup"></path>
            <path d="M188,93.5435811 C188,93.7978041 187.793144,94 187.540189,94 L181.458629,94 C181.205674,94 181,93.7978041 181,93.5435811 L181,87.4599662 C181,87.2057432 181.205674,87 181.458629,87 L187.540189,87 C187.793144,87 188,87.2057432 188,87.4599662 L188,93.5435811" id="Fill-39" fill="#F8F1E6" sketch:type="MSShapeGroup"></path>
            <path d="M193,84.5423213 C193,84.794222 192.793039,85 192.541139,85 L186.456496,85 C186.203413,85 186,84.794222 186,84.5423213 L186,78.4588613 C186,78.2045954 186.203413,78 186.456496,78 L192.541139,78 C192.793039,78 193,78.2045954 193,78.4588613 L193,84.5423213" id="Fill-40" fill="#F8F1E6" sketch:type="MSShapeGroup"></path>
            <path d="M193,66.542244 C193,66.7941872 192.793039,67 192.541139,67 L186.456496,67 C186.203413,67 186,66.7941872 186,66.542244 L186,60.4553903 C186,60.2034471 186.203413,60 186.456496,60 L192.541139,60 C192.793039,60 193,60.2034471 193,60.4553903 L193,66.542244" id="Fill-41" fill="#F8F1E6" sketch:type="MSShapeGroup"></path>
            <path d="M183,66.542244 C183,66.7941872 182.796553,67 182.542244,67 L176.457756,67 C176.205813,67 176,66.7941872 176,66.542244 L176,60.4553903 C176,60.2034471 176.205813,60 176.457756,60 L182.542244,60 C182.796553,60 183,60.2034471 183,60.4553903 L183,66.542244" id="Fill-42" fill="#F8F1E6" sketch:type="MSShapeGroup"></path>
            <path d="M174,66.542244 C174,66.7941872 173.794257,67 173.540034,67 L167.457601,67 C167.205743,67 167,66.7941872 167,66.542244 L167,60.4553903 C167,60.2034471 167.205743,60 167.457601,60 L173.540034,60 C173.794257,60 174,60.2034471 174,60.4553903 L174,66.542244" id="Fill-43" fill="#F8F1E6" sketch:type="MSShapeGroup"></path>
            <path d="M165,66.542244 C165,66.7941872 164.791892,67 164.540034,67 L158.456419,67 C158.203378,67 158,66.7941872 158,66.542244 L158,60.4553903 C158,60.2034471 158.203378,60 158.456419,60 L164.540034,60 C164.791892,60 165,60.2034471 165,60.4553903 L165,66.542244" id="Fill-44" fill="#F8F1E6" sketch:type="MSShapeGroup"></path>
            <path d="M156,66.542244 C156,66.7941872 155.793074,67 155.541216,67 L149.457601,67 C149.204561,67 149,66.7941872 149,66.542244 L149,60.4553903 C149,60.2034471 149.204561,60 149.457601,60 L155.541216,60 C155.793074,60 156,60.2034471 156,60.4553903 L156,66.542244" id="Fill-45" fill="#F8F1E6" sketch:type="MSShapeGroup"></path>
            <path d="M146,66.542244 C146,66.7941872 145.791892,67 145.538851,67 L139.456419,67 C139.203378,67 139,66.7941872 139,66.542244 L139,60.4553903 C139,60.2034471 139.203378,60 139.456419,60 L145.538851,60 C145.791892,60 146,60.2034471 146,60.4553903 L146,66.542244" id="Fill-46" fill="#F8F1E6" sketch:type="MSShapeGroup"></path>
            <path d="M137,66.542244 C137,66.7941872 136.791892,67 136.540034,67 L130.457601,67 C130.203378,67 130,66.7941872 130,66.542244 L130,60.4553903 C130,60.2034471 130.203378,60 130.457601,60 L136.540034,60 C136.791892,60 137,60.2034471 137,60.4553903 L137,66.542244" id="Fill-47" fill="#F8F1E6" sketch:type="MSShapeGroup"></path>
            <path d="M127,66.542244 C127,66.7941872 126.794222,67 126.539956,67 L120.455313,67 C120.204595,67 120,66.7941872 120,66.542244 L120,60.4553903 C120,60.2034471 120.204595,60 120.455313,60 L126.539956,60 C126.794222,60 127,60.2034471 127,60.4553903 L127,66.542244" id="Fill-48" fill="#F8F1E6" sketch:type="MSShapeGroup"></path>
            <path d="M118,66.542244 C118,66.7941872 117.793074,67 117.541216,67 L111.457601,67 C111.204561,67 111,66.7941872 111,66.542244 L111,60.4553903 C111,60.2034471 111.204561,60 111.457601,60 L117.541216,60 C117.793074,60 118,60.2034471 118,60.4553903 L118,66.542244" id="Fill-49" fill="#F8F1E6" sketch:type="MSShapeGroup"></path>
            <path d="M109,66.542244 C109,66.7941872 108.796622,67 108.540034,67 L102.457601,67 C102.204561,67 102,66.7941872 102,66.542244 L102,60.4553903 C102,60.2034471 102.204561,60 102.457601,60 L108.540034,60 C108.796622,60 109,60.2034471 109,60.4553903 L109,66.542244" id="Fill-50" fill="#F8F1E6" sketch:type="MSShapeGroup"></path>
            <path d="M99,66.542244 C99,66.7941872 98.7918919,67 98.5400338,67 L92.4576014,67 C92.2033784,67 92,66.7941872 92,66.542244 L92,60.4553903 C92,60.2034471 92.2033784,60 92.4576014,60 L98.5400338,60 C98.7918919,60 99,60.2034471 99,60.4553903 L99,66.542244" id="Fill-51" fill="#F8F1E6" sketch:type="MSShapeGroup"></path>
            <path d="M90,66.542244 C90,66.7941872 89.7954392,67 89.5400338,67 L83.4564189,67 C83.2021959,67 83,66.7941872 83,66.542244 L83,60.4553903 C83,60.2034471 83.2021959,60 83.4564189,60 L89.5400338,60 C89.7954392,60 90,60.2034471 90,60.4553903 L90,66.542244" id="Fill-52" fill="#F8F1E6" sketch:type="MSShapeGroup"></path>
            <path d="M81,66.542244 C81,66.7941872 80.7966216,67 80.5400338,67 L74.4564189,67 C74.2045608,67 74,66.7941872 74,66.542244 L74,60.4553903 C74,60.2034471 74.2045608,60 74.4564189,60 L80.5400338,60 C80.7966216,60 81,60.2034471 81,60.4553903 L81,66.542244" id="Fill-53" fill="#F8F1E6" sketch:type="MSShapeGroup"></path>
            <path d="M74,69.5498311 C74,69.297973 74.5576804,69 74.9796422,69 L85.3979025,69 C85.8186305,69 86,69.297973 86,69.5498311 L86,75.5033784 C86,75.7552365 85.8186305,76 85.3979025,76 L74.9796422,76 C74.5576804,76 74,75.7552365 74,75.5033784 L74,69.5498311" id="Fill-54" fill="#F8F1E6" sketch:type="MSShapeGroup"></path>
            <path d="M211.8909,92.9097973 C211.8909,93.5802365 212.308638,94 211.509278,94 L191.088285,94 C190.290129,94 190,93.3910473 190,93.1368243 L190,87.6432432 C190,87.3913851 190.290129,87 191.088285,87 L211.509278,87 C212.308638,87 211.8909,87.3913851 211.8909,87.6432432 L211.8909,92.9097973" id="Fill-55" fill="#F8F1E6" sketch:type="MSShapeGroup"></path>
            <path d="M210.953442,84.5308809 C210.953442,84.9268123 211.107764,84.9444878 210.854488,84.9444878 L204.923121,84.9444878 C204.672201,84.9444878 203.981877,85.1542372 203.981877,84.7583058 L203.981877,75.477485 L200.13444,75.477485 C199.881164,75.477485 199,75.1899634 199,74.9472197 L199,69.2557057 C199,69.0141404 199.881164,69 200.13444,69 L210.854488,69 C211.107764,69 210.953442,69.0141404 210.953442,69.2557057 L210.953442,84.5308809" id="Fill-56" fill="#F8F1E6" sketch:type="MSShapeGroup"></path>
            <path d="M210.992085,66.3210544 C210.992085,66.5741805 211.100819,67 210.51224,67 L195.941962,67 C195.352202,67 195,66.5741805 195,66.3210544 L195,60.3654951 C195,60.112369 195.352202,60 195.941962,60 L210.51224,60 C211.100819,60 210.992085,60.112369 210.992085,60.3654951 L210.992085,66.3210544" id="Fill-57" fill="#F8F1E6" sketch:type="MSShapeGroup"></path>
            <path d="M99,84.5423213 C99,84.794222 98.7918919,85 98.5400338,85 L92.4576014,85 C92.2033784,85 92,84.794222 92,84.5423213 L92,78.4588613 C92,78.2045954 92.2033784,78 92.4576014,78 L98.5400338,78 C98.7918919,78 99,78.2045954 99,78.4588613 L99,84.5423213" id="Fill-58" fill="#F8F1E6" sketch:type="MSShapeGroup"></path>
            <path d="M95,93.5435811 C95,93.7978041 94.7942568,94 94.5412162,94 L88.4576014,94 C88.2057432,94 88,93.7978041 88,93.5435811 L88,87.4599662 C88,87.2057432 88.2057432,87 88.4576014,87 L94.5412162,87 C94.7942568,87 95,87.2057432 95,87.4599662 L95,93.5435811" id="Fill-59" fill="#F8F1E6" sketch:type="MSShapeGroup"></path>
            <path d="M104,93.5435811 C104,93.7978041 103.795439,94 103.540034,94 L97.4564189,94 C97.2033784,94 97,93.7978041 97,93.5435811 L97,87.4599662 C97,87.2057432 97.2033784,87 97.4564189,87 L103.540034,87 C103.795439,87 104,87.2057432 104,87.4599662 L104,93.5435811" id="Fill-60" fill="#F8F1E6" sketch:type="MSShapeGroup"></path>
            <path d="M113,93.5435811 C113,93.7978041 112.793039,94 112.539956,94 L106.455313,94 C106.203413,94 106,93.7978041 106,93.5435811 L106,87.4599662 C106,87.2057432 106.203413,87 106.455313,87 L112.539956,87 C112.793039,87 113,87.2057432 113,87.4599662 L113,93.5435811" id="Fill-61" fill="#F8F1E6" sketch:type="MSShapeGroup"></path>
            <path d="M74,78.250049 C74,77.9775552 74.707775,78.0004753 75.3144393,78.0004753 L90.3336439,78.0004753 C90.9403081,78.0004753 91,77.9775552 91,78.250049 L91,84.6600194 C91,84.9325132 90.9403081,85 90.3336439,85 L75.0781082,85 C74.4702257,85 74,84.9325132 74,84.6600194 L74,78.250049" id="Fill-62" fill="#F8F1E6" sketch:type="MSShapeGroup"></path>
            <path d="M74,87.3216216 C74,87.0697635 74.5682745,87 75.0067277,87 L85.7561792,87 C86.1909582,87 85.9117199,87.0697635 85.9117199,87.3216216 L85.9117199,93.2751689 C85.9117199,93.5282095 86.1909582,94 85.7561792,94 L75.0067277,94 C74.5682745,94 74,93.5282095 74,93.2751689 L74,87.3216216" id="Fill-63" fill="#F8F1E6" sketch:type="MSShapeGroup"></path>
            <path d="M164.837038,103.390944 C164.837038,103.642845 165.101139,104 164.483715,104 L110.431139,104 C109.838698,104 109,103.642845 109,103.390944 L109,97.4375739 C109,97.1844906 110.200349,97 110.66312,97 L164.483715,97 C165.067829,97 164.837038,97.1844906 164.837038,97.4375739 L164.837038,103.390944" id="Fill-64" fill="#F8F1E6" sketch:type="MSShapeGroup"></path>
            <path d="M188,103.474911 C188,103.73036 187.935259,104 187.69497,104 L178.687251,104 C178.444472,104 178,103.73036 178,103.474911 L178,97.5215408 C178,97.2696401 178.444472,97 178.687251,97 L187.69497,97 C187.935259,97 188,97.2696401 188,97.5215408 L188,103.474911" id="Fill-65" fill="#F8F1E6" sketch:type="MSShapeGroup"></path>
            <path d="M199.969453,103.474911 C199.969453,103.73036 200.091017,104 199.84913,104 L190.874513,104 C190.635108,104 190,103.73036 190,103.474911 L190,97.5215408 C190,97.2696401 190.635108,97 190.874513,97 L199.84913,97 C200.091017,97 199.969453,97.2696401 199.969453,97.5215408 L199.969453,103.474911" id="Fill-66" fill="#F8F1E6" sketch:type="MSShapeGroup"></path>
            <path d="M177,103.474911 C177,103.73036 176.987551,104 176.747292,104 L167.744429,104 C167.497946,104 167,103.73036 167,103.474911 L167,97.5215408 C167,97.2696401 167.497946,97 167.744429,97 L176.747292,97 C176.987551,97 177,97.2696401 177,97.5215408 L177,103.474911" id="Fill-67" fill="#F8F1E6" sketch:type="MSShapeGroup"></path>
            <path d="M94.938243,103.399223 C94.938243,103.652306 95.1139222,104 94.8726727,104 L85.9229341,104 C85.6816845,104 85,103.652306 85,103.399223 L85,97.4458523 C85,97.1939517 85.6816845,97 85.9229341,97 L94.8726727,97 C95.1139222,97 94.938243,97.1939517 94.938243,97.4458523 L94.938243,103.399223" id="Fill-68" fill="#F8F1E6" sketch:type="MSShapeGroup"></path>
            <path d="M105.813398,103.399223 C105.813398,103.652306 106.148011,104 105.921076,104 L97.5476533,104 C97.3241923,104 97,103.652306 97,103.399223 L97,97.4458523 C97,97.1939517 97.3241923,97 97.5476533,97 L105.921076,97 C106.148011,97 105.813398,97.1939517 105.813398,97.4458523 L105.813398,103.399223" id="Fill-69" fill="#F8F1E6" sketch:type="MSShapeGroup"></path>
            <path d="M83.9027675,103.399223 C83.9027675,103.652306 84.129539,104 83.8904429,104 L74.9736386,104 C74.7333101,104 74,103.652306 74,103.399223 L74,97.4458523 C74,97.1939517 74.7333101,97 74.9736386,97 L83.8904429,97 C84.129539,97 83.9027675,97.1939517 83.9027675,97.4458523 L83.9027675,103.399223" id="Fill-70" fill="#F8F1E6" sketch:type="MSShapeGroup"></path>
            <path d="M109.913461,100.063375 C108.119586,100.756626 105.96244,101.643508 103.399423,102.667846 L113.207754,104.586237 C117.356385,105.399014 117.051095,109.17962 116.045295,111 L88.9620431,109.826255 C85.8641773,109.458115 78,92.8774751 78,92.8774751 C78,92.8774751 85.8582608,84.7580772 97.1433434,79.9842107 L105.115201,74.5816376 C108.492324,72.3321592 111.604389,77.1777413 108.175201,79.4224387 L104.796894,81.6276925 C105.050119,81.6994081 105.332927,81.8559871 105.581419,82.0101756 L112.652788,78.3813676 C116.279587,76.4737334 118.436733,81.7770999 115.400399,83.4086292 L109.593971,86.5282565 C109.689818,86.6704924 109.821164,86.9848457 109.873229,87.0972001 L117.552812,83.7564497 C121.01395,82.251618 123.219611,87.557375 119.77859,89.0418873 L110.880213,92.9097471 C110.852997,93.2001952 110.813948,93.4906433 110.765433,93.7787008 L129.308846,87.9243197 C132.837431,86.8139236 134.659705,92.2523544 130.979658,93.4141467 L109.913461,100.063375" id="Fill-71" fill="#F4DDC0" sketch:type="MSShapeGroup"></path>
            <path d="M81.4838906,89 L94.0342094,110.054356 C77.6734209,126.437221 63.8153318,145.991001 65.0031341,152.322147 C66.1909363,158.653294 74.4283451,178.319855 105,197.786972 L90.8425847,220 C51.9396847,195.22982 46.1360827,176.215013 41.9585822,163.946859 C37.7822694,151.678704 46.5921988,119.081552 81.4838906,89" id="Fill-72" fill="#058486" sketch:type="MSShapeGroup"></path>
            <path d="M170.086738,98.0633754 C171.880601,98.7566259 174.037734,99.6435085 176.600735,100.667846 L166.792465,102.586237 C162.64386,103.400209 162.949148,107.17962 163.953759,109 L191.036842,107.826255 C194.134688,107.458115 202,90.8774751 202,90.8774751 C202,90.8774751 194.141788,82.7580772 182.856776,77.9842107 L174.884968,72.5816376 C171.506683,70.3321592 168.394637,75.1777413 171.824987,77.4224387 L175.202089,79.6276925 C174.948866,79.6994081 174.66606,79.8559871 174.41757,80.0101756 L167.347427,76.3813676 C163.719468,74.4737334 161.563518,79.7770999 164.59865,81.4086292 L170.406225,84.5282565 C170.310379,84.6704924 170.177851,84.9848457 170.125786,85.0972001 L162.447434,81.7564497 C158.985135,80.251618 156.78067,85.557375 160.22167,87.0418873 L169.119992,90.9097471 C169.146024,91.2001952 169.185073,91.4906433 169.233587,91.7787008 L150.69029,85.9243197 C147.16291,84.8139236 145.340647,90.2511591 149.019488,91.4141467 L170.086738,98.0633754" id="Fill-73" fill="#F4DDC0" sketch:type="MSShapeGroup"></path>
            <path d="M198.517129,88 L185.9669,109.054356 C202.327572,125.437221 216.185562,144.991001 214.997768,151.322147 C213.809974,157.653294 205.571437,177.319855 175,196.786972 L189.158502,219 C228.059936,194.22982 233.864685,175.215013 238.040968,162.946859 C242.218438,150.678704 233.408572,118.081552 198.517129,88" id="Fill-74" fill="#058486" sketch:type="MSShapeGroup"></path>
            <path d="M196,228.5 C196,235.675975 192.194653,237 187.500596,237 C182.805347,237 179,233.193727 179,228.5 C179,223.80508 182.805347,220 187.500596,220 C192.194653,220 196,221.322832 196,228.5" id="Fill-75" fill="#F4DDC0" sketch:type="MSShapeGroup"></path>
            <path d="M78,228.5 C78,221.322832 81.8041541,220 86.4994036,220 C91.1934601,220 95,223.80508 95,228.5 C95,233.193727 91.1934601,237 86.4994036,237 C81.8041541,237 78,235.675975 78,228.5" id="Fill-76" fill="#F4DDC0" sketch:type="MSShapeGroup"></path>
            <path d="M164.715084,187.417077 C181.094322,197.505475 190.502613,211.973969 190.98108,229.481253 C191.644303,253.676015 174.890819,277 137.527682,277 C100.164546,277 82.1343571,252.82787 84.1524497,227.073808 C85.3166428,212.205065 92.9709458,198.359576 111.27353,187.956698 C129.576113,177.552628 148.335847,177.329871 164.715084,187.417077" id="Fill-77" fill="#4B2505" sketch:type="MSShapeGroup"></path>
        </g>
    </g>
</svg>