<?xml version="1.0" encoding="UTF-8" standalone="no"?>
<svg width="403px" height="331px" viewBox="0 0 403 331" version="1.1" xmlns="http://www.w3.org/2000/svg" xmlns:xlink="http://www.w3.org/1999/xlink" xmlns:sketch="http://www.bohemiancoding.com/sketch/ns">
    <!-- Generator: Sketch 3.3.1 (12005) - http://www.bohemiancoding.com/sketch -->
    <title>student-tablet</title>
    <desc>Created with Sketch.</desc>
    <defs></defs>
    <g id="Page-12" stroke="none" stroke-width="1" fill="none" fill-rule="evenodd" sketch:type="MSPage">
        <g id="student-tablet" sketch:type="MSLayerGroup" transform="translate(53.000000, 16.000000)">
            <path d="M98,145 L208,145 L208,263.743832 C152.206135,304.82021 98,263.743832 98,263.743832 L98,145" id="Fill-1" fill="#001628" sketch:type="MSShapeGroup"></path>
            <path d="M151.105874,299 C122.607222,299 94.4510138,284.409518 67.3111296,255.554361 C62.689363,250.63921 62.9364116,242.916273 67.8614855,238.304963 C72.7877823,233.693654 80.5270094,233.940143 85.149999,238.854074 C108.948611,264.159536 132.612692,276.126489 155.494045,274.431567 C189.389854,271.91786 211.490924,240.577061 211.709843,240.261018 C215.553773,234.71866 223.170699,233.334901 228.726848,237.167694 C234.28055,241.001707 235.669893,248.602619 231.827186,254.144977 C230.659209,255.827696 202.726812,295.400274 157.308996,298.770594 C155.239658,298.923125 153.17032,299 151.105874,299" id="Fill-2" fill="#102F41" sketch:type="MSShapeGroup"></path>
            <path d="M198.31964,238 L105,237.113925 L106.68036,60 L200,60.8836405 L198.31964,238" id="Fill-3" fill="#E19624" sketch:type="MSShapeGroup"></path>
            <path d="M1,1 L298,1 L298,164 L1,164 L1,1 Z" id="Fill-4" fill="#664B3A" sketch:type="MSShapeGroup"></path>
            <path d="M124.302687,91.903794 C128.268151,84.1210972 125.328843,80.6462687 115.024931,81.0283306 C98.6887212,81.6328589 88,93.1188958 88,93.1188958 C88,93.1188958 94.1278936,108.454569 97.2777568,108.993808 C97.2777568,108.993808 109.451258,109.240455 115.631185,106.62043 C121.809903,104.000404 120.337224,99.6864908 124.302687,91.903794" id="Fill-5" fill="#F4DDC0" sketch:type="MSShapeGroup"></path>
            <path d="M209,209.217778 C209,226.217987 183.480155,240 152.000609,240 C120.519845,240 95,226.217987 95,209.217778 C95,192.215135 101.696144,176 152.000609,176 C202.305073,176 209,192.215135 209,209.217778" id="Fill-6" fill="#FAAF3D" sketch:type="MSShapeGroup"></path>
            <path d="M82.4650681,156.262327 C81.1364912,135.515321 83.4239225,131.961611 95.6211319,115.392222 L80.9716313,92 C65.2638754,105.763636 55.4547104,129.135182 57.200286,156.404622 C59.0004108,184.521746 68.7198726,204.563361 108.515359,230 L123,207.189118 C91.723892,187.197367 83.7390959,176.160431 82.4650681,156.262327" id="Fill-7" fill="#FAAF3D" sketch:type="MSShapeGroup"></path>
            <path d="M210,225.5 C210,232.675975 206.194653,234 201.499404,234 C196.805347,234 193,230.193727 193,225.5 C193,220.80508 196.805347,217 201.499404,217 C206.194653,217 210,218.322832 210,225.5" id="Fill-8" fill="#F4DDC0" sketch:type="MSShapeGroup"></path>
            <path d="M89,225.5 C89,218.322832 92.805347,217 97.4994036,217 C102.19346,217 106,220.80508 106,225.5 C106,230.193727 102.19346,234 97.4994036,234 C92.805347,234 89,232.675975 89,225.5" id="Fill-9" fill="#F4DDC0" sketch:type="MSShapeGroup"></path>
            <path d="M177.978421,182.629152 C194.816704,193.006005 204.487455,207.888194 204.98055,225.896059 C205.662361,250.783843 188.439342,276 150.029062,276 C111.618783,276 93.0820615,249.910222 95.1567133,223.421004 C96.3547517,208.125897 104.223575,193.884527 123.039108,183.184202 C141.854642,172.482651 161.140138,172.253525 177.978421,182.629152" id="Fill-10" fill="#4B2505" sketch:type="MSShapeGroup"></path>
            <path d="M187,122.677682 C187,125.065622 185.059838,127 182.670245,127 L117.329755,127 C114.937706,127 113,125.065622 113,122.677682 L113,37.3223181 C113,34.9343783 114.937706,33 117.329755,33 L182.670245,33 C185.059838,33 187,34.9343783 187,37.3223181 L187,122.677682" id="Fill-11" fill="#F8F1E6" sketch:type="MSShapeGroup"></path>
            <path d="M184.495369,31 L116.504631,31 C114.017254,31 112,33.0188432 112,35.5054523 L112,124.494548 C112,126.981157 114.017254,129 116.504631,129 L184.495369,129 C186.982746,129 189,126.981157 189,124.494548 L189,35.5054523 C189,33.0188432 186.982746,31 184.495369,31 L184.495369,31 Z M120,39 L181,39 L181,111 L120,111 L120,39 Z" id="Fill-12" fill="#001628" sketch:type="MSShapeGroup"></path>
            <path d="M150,115 C147.238299,115 145,117.239275 145,119.999371 C145,122.761983 147.238299,125 150,125 C152.760443,125 155,122.761983 155,119.999371 C155,117.239275 152.760443,115 150,115" id="Fill-13" fill="#334553" sketch:type="MSShapeGroup"></path>
            <path d="M149.5,34 C148.671626,34 148,34.6707804 148,35.5005445 C148,36.3292196 148.671626,37 149.5,37 C150.329463,37 151,36.3292196 151,35.5005445 C151,34.6707804 150.329463,34 149.5,34" id="Fill-14" fill="#081826" sketch:type="MSShapeGroup"></path>
            <path d="M120,39 L181,39 L181,39.887 L120,39.887 L120,39 Z" id="Fill-15" fill="#ECE6DC" sketch:type="MSShapeGroup"></path>
            <path d="M120,110 L181,110 L181,110.883 L120,110.883 L120,110 Z" id="Fill-16" fill="#ECE6DC" sketch:type="MSShapeGroup"></path>
            <path d="M181,110 L180.991409,110 L180.991409,110.883 L120,110.883 L120,110.887 L181,110.887 L181,110" id="Fill-17" fill="#021628" sketch:type="MSShapeGroup"></path>
            <path d="M160.266745,81.1240191 C161.600898,82.441442 163.186963,84.0772014 165.078747,85.9908928 L155.564801,83.8384491 C151.539106,82.9287416 150.34436,86.3986083 150.535128,88.4078007 L171.421785,94.7941185 C174.33222,95.6830117 178.387265,93.577094 181.482354,90.7157396 C187.877975,84.7983557 187.720225,77.0125821 179.484181,68.3440372 L174.45573,60.4260316 C172.308367,57.1092113 167.644332,60.1799331 169.839388,63.515119 L172.001426,66.797657 C171.748291,66.7597015 171.435236,66.787862 171.15153,66.8270419 L166.240475,60.8349714 C163.739702,57.7177235 159.750693,61.5695939 161.830798,64.2093372 L165.810024,69.2561935 C165.669394,69.3431238 165.427265,69.568408 165.337996,69.6492165 L159.772704,63.6730628 C157.259702,60.9757741 153.227892,64.812952 155.729889,67.4820802 L162.181762,74.4034481 C162.092493,74.674034 162.015452,74.94462 161.945748,75.2201034 L147.640589,62.7474386 C144.918476,60.3758324 141.176487,64.4811475 144.012328,66.9556008 L160.266745,81.1240191" id="Fill-18" fill="#F4DDC0" sketch:type="MSShapeGroup"></path>
            <path d="M186.963263,78 L173,93.9542167 L179.926526,100 L194,84.1414822 L186.963263,78" id="Fill-19" fill="#F8F1E6" sketch:type="MSShapeGroup"></path>
            <path d="M194.872235,83 L193.933052,84.0686743 L193.90244,84.0430261 L179.517142,100.234358 L179.638366,100.338172 L178,102.204383 C195.186929,117.196357 206.604065,121.015494 212.540388,139.780193 C218.235487,157.77789 216.298345,175.646125 199.352641,192.864606 L205.188556,223 C243.976697,202.643892 245.03588,157.560491 236.989762,132.127264 C229.187317,107.463482 214.941611,100.505496 194.872235,83" id="Fill-20" fill="#FAAF3D" sketch:type="MSShapeGroup"></path>
            <path d="M103,109.700103 L89.9067588,90 L83,94.2601861 L95.3445979,114 L103,109.700103" id="Fill-21" fill="#F8F1E6" sketch:type="MSShapeGroup"></path>
            <path d="M121.05815,86.7096769 L111.625058,89 C111.625058,89 103.308595,84.1394386 106.900015,82.9830093 C110.491436,81.827766 121.200156,79.290738 123.63368,80.1886016 C126.067205,81.0864652 125.27464,85.6860887 121.05815,86.7096769" id="Fill-22" fill="#F4DDC0" sketch:type="MSShapeGroup"></path>
        </g>
    </g>
</svg>