<?xml version="1.0" standalone="no"?>
<!DOCTYPE svg PUBLIC "-//W3C//DTD SVG 1.1//EN" "http://www.w3.org/Graphics/SVG/1.1/DTD/svg11.dtd" >
<svg xmlns="http://www.w3.org/2000/svg" xmlns:xlink="http://www.w3.org/1999/xlink" version="1.1">
<metadata></metadata>
<defs>
<font id="thaisans_neueblack_italic" horiz-adv-x="0" >
<font-face units-per-em="2048" ascent="1577" descent="-471" />
<missing-glyph horiz-adv-x="659" />
<glyph unicode="&#x3b;&#x3b;arm&#x3b;&#x3b;" horiz-adv-x="2138" d="M76 1270v82h327v164q-47 0 -84.5 49t-37.5 114q0 70 49.5 117t113.5 47q78 0 121 -43t43 -121q0 -60 -33 -109.5t-90 -53.5v-164h328v-82h-328v-246l220 -492h-82l-179 410l-178 -410h-82l219 492v246h-327zM158 0q0 54 36.5 98.5t106.5 44.5q61 0 102 -40.5t41 -102.5 q0 -80 -55 -119l45 -209l113 226h41l112 -226l72 430h102l-32 -174l22 41l133 33q0 211 48.5 299t156.5 88q59 0 91 -39.5t32 -103.5h-41q0 33 -16 57.5t-45 24.5q-77 0 -110.5 -74t-33.5 -231l150 36l18 -77l-168 -43v-82q0 -92 -2.5 -156t-10 -132.5t-23 -112t-40 -81 t-62 -54.5t-87.5 -17q-64 0 -103.5 32t-39.5 91h41q0 -29 24.5 -45.5t57.5 -16.5q24 0 44 5.5t35.5 19t27.5 27t20.5 40t14.5 46.5t10 57.5t6.5 63t3.5 73t1 76.5v84v61l-163 -41l-70 -369h-53l-144 308l-143 -308h-53l-66 328l37 25q-2 -2 -12 -2q-6 -2 -29 -2 q-30 0 -60.5 12t-56.5 46.5t-26 84.5zM240 0q0 -26 16 -43.5t45 -17.5q61 0 61 61t-61 61q-29 0 -45 -17.5t-16 -43.5zM362 1679q0 -35 19 -58.5t63 -23.5t63 23.5t19 58.5q0 44 -23.5 63t-58.5 19t-58.5 -19t-23.5 -63zM834 532l466 1270h353l409 -1270h-327l-125 390h-551 l-144 -390h-81zM1100 1024h475l-223 696zM1364 41l41 205h61l-61 -205h-41zM1421 1741l27 -80l47 80h-74zM1462 1624l17 -57l106 174h-51zM1466 41l41 205h62l-62 -205h-41zM1493 1528l23 -74l114 193l-22 69zM1536 1393l12 -41l115 190l-12 41zM1565 1303l12 -41l115 190 l-13 41zM1591 -205q0 102 31.5 191.5t88.5 144.5t126 55q109 0 167 -74.5t58 -213.5q0 -196 -69.5 -293t-196.5 -97q-86 0 -145.5 71.5t-59.5 215.5zM1595 1208l13 -41l114 189l-14 43zM1622 1126l14 -49l115 191l-14 49zM1651 1032l14 -41l113 191l-11 41zM1673 -164 l287 123q-2 33 -16 72q-32 71 -107 71q-89 0 -135 -133q-19 -54 -29 -133zM1673 -266q0 -53 32.5 -98.5t90.5 -45.5q98 0 143 134q18 59 21 133zM1679 940l13 -33l114 187l-10 39zM1706 860l12 -33l115 189l-12 35zM1733 778l12 -39l117 187l-13 43zM1759 696l15 -47 l114 193l-14 45zM1786 614l6 -20h27l96 162l-14 49zM1851 594h41l50 84l-15 41zM1925 594h41l-14 45z" />
<glyph unicode=" "  horiz-adv-x="659" />
<glyph unicode="&#x09;" horiz-adv-x="659" />
<glyph unicode="&#xa0;" horiz-adv-x="659" />
<glyph unicode="!" horiz-adv-x="415" d="M76 0l51 242h248l-53 -242h-246zM145 330l179 835h245l-178 -835h-246z" />
<glyph unicode="&#x22;" horiz-adv-x="743" d="M231 737l91 426h235l-90 -426h-236zM557 737l90 426h236l-90 -426h-236z" />
<glyph unicode="#" horiz-adv-x="1302" d="M137 295l109 219h155l43 88h-155l100 221h164l133 279h248l-135 -279h155l138 279h247l-137 -279h176l-106 -221h-174l-45 -88h178l-111 -219h-174l-141 -295h-248l141 295h-155l-144 -295h-247l141 295h-156zM647 514h160l43 88h-158z" />
<glyph unicode="$" horiz-adv-x="948" d="M92 88l45 205q44 -24 105 -47q118 -47 223 -47q99 0 151.5 42t61.5 95q10 41 -12.5 70.5t-65.5 48.5t-96 37t-104.5 43t-91.5 59t-57.5 94t-0.5 139q23 106 116 182.5t226 106.5l35 158h239l-30 -156q86 -14 147 -47q23 -13 49 -35l-43 -202q-49 22 -92 34 q-125 35 -233 35q-43 0 -101 -23.5t-65 -50.5q-7 -31 17.5 -55t67.5 -40.5t95.5 -38t103 -46.5t89.5 -67.5t55 -100.5t0 -145q-13 -56 -38 -106.5t-64 -98t-98 -83.5t-132 -54l-37 -166h-240l33 154q-94 0 -186 53q-27 14 -72 53z" />
<glyph unicode="%" horiz-adv-x="1314" d="M170 0l1040 1333h271l-1041 -1333h-270zM266 903q30 146 124.5 247t213.5 101q115 0 163.5 -94t18.5 -235q-34 -151 -125.5 -254t-214.5 -103q-120 0 -165.5 97.5t-14.5 240.5zM494.5 792.5q2.5 -4.5 7.5 -4.5q20 0 41 121q18 75 20 97.5t-8 23.5q-18 0 -33 -71 q-7 -31 -12 -52q-12 -52 -15 -81t-0.5 -33.5zM768 297q31 151 124 255.5t220 104.5q76 0 124 -47t58.5 -123t-6.5 -172q-33 -142 -127 -243t-205 -101q-120 0 -169 93t-19 233zM998 193q2 -3 6 -3q17 0 43 115q6 26 10 47.5t6.5 41.5t1 31t-7.5 11q-20 0 -45 -131 q-24 -100 -14 -112z" />
<glyph unicode="&#x26;" horiz-adv-x="1275" d="M139 309q24 108 98 181.5t199 127.5q-47 37 -71.5 95.5t-8.5 130.5q25 113 137.5 195.5t256.5 82.5q139 0 214 -79.5t54 -178.5q-8 -37 -23.5 -68.5t-30.5 -52t-47.5 -47t-52 -40t-65.5 -44.5q29 -29 54 -52t33.5 -31.5t20.5 -23.5t31 -44q60 90 82 141.5t45 138.5l22 82 h252q-36 -134 -115 -290.5t-177 -262.5q17 -28 58.5 -38.5t123.5 -10.5l-47 -221q-263 0 -328 96q-101 -61 -190 -88.5t-199 -27.5t-190 33.5t-120 109.5t-16 186zM382.5 276q0.5 -15 3 -25.5t11.5 -19t15.5 -13.5t20 -8.5t20.5 -5t23 -2.5t20 -1h18q35 0 60 2.5t48 9.5 t35.5 12.5t41 20t46.5 22.5q-46 96 -78 137t-108 87q-8 -5 -32.5 -18.5t-41.5 -25t-38.5 -31t-36.5 -47t-23 -61.5q-5 -18 -4.5 -33zM604 844q-15 -66 28 -108l3 -3q61 26 93 56.5t38 52.5q5 24 -11.5 39.5t-52.5 15.5q-30 0 -54 -10.5t-34 -22.5t-10 -20z" />
<glyph unicode="'" horiz-adv-x="415" d="M231 737l91 426h245l-90 -426h-246z" />
<glyph unicode="(" horiz-adv-x="636" d="M112 168.5q-8 126.5 23 263.5q48 213 161.5 401t272.5 338h273q-168 -163 -298 -359.5t-169 -377.5q-40 -202 7.5 -377.5t154.5 -345.5h-275q-70 118 -106 224.5t-44 233z" />
<glyph unicode=")" horiz-adv-x="636" d="M-45 -289q392 378 465 719q73 361 -156 741h271q62 -98 98.5 -210.5t45 -248t-21.5 -280.5q-89 -405 -434 -721h-268z" />
<glyph unicode="*" horiz-adv-x="591" d="M252 838l184 86l-147 86l86 92l94 -111l12 162h115l-59 -164l143 113l49 -92l-186 -86l149 -86l-88 -93l-96 113l-10 -164h-115l57 162l-141 -111z" />
<glyph unicode="+" horiz-adv-x="907" d="M152 360l47 220h256l55 262h225l-53 -262h256l-49 -220h-256l-51 -237h-226l52 237h-256z" />
<glyph unicode="," horiz-adv-x="417" d="M-180 -225q66 22 114 57q121 84 150 217l39 172h250l-39 -172q-28 -130 -139 -217q-46 -35 -105 -57h-270z" />
<glyph unicode="-" horiz-adv-x="692" d="M158 389l43 201h522l-43 -201h-522z" />
<glyph unicode="." horiz-adv-x="415" d="M76 0l47 221h246l-47 -221h-246z" />
<glyph unicode="/" horiz-adv-x="655" d="M14 0l643 1331h244l-645 -1331h-242z" />
<glyph unicode="0" horiz-adv-x="989" d="M156 530q59 269 213.5 433.5t355.5 164.5q127 0 212.5 -71.5t113.5 -199t-9 -304.5q-54 -257 -215.5 -415t-365.5 -158q-196 0 -277.5 149t-27.5 401zM387.5 395.5q-1.5 -61.5 8.5 -97.5t30.5 -58.5t42.5 -30.5t49 -8q35 0 70 15t74.5 50.5t73.5 106.5t55 170 q17 83 18 147.5t-10.5 103.5t-33 64t-46 34t-53.5 9q-25 0 -50.5 -9t-56.5 -34.5t-58 -64.5t-52.5 -105t-42.5 -151q-17 -80 -18.5 -141.5z" />
<glyph unicode="1" horiz-adv-x="610" d="M195 707l47 217q102 33 204 106q50 34 93 72h211l-232 -1102h-248l164 776q-52 -32 -239 -69z" />
<glyph unicode="2" horiz-adv-x="835" d="M45 0l35 166q16 72 79.5 144.5t144.5 131.5t162 115.5t143 118.5t75 119q26 106 -98 106q-68 0 -164.5 -30t-167.5 -78l45 208q63 52 152.5 89.5t183.5 37.5q165 0 247 -94.5t52 -226.5q-18 -78 -56.5 -143.5t-85.5 -108.5t-106.5 -86.5t-113 -76t-110.5 -78.5t-95 -93 h483l-47 -221h-758z" />
<glyph unicode="3" horiz-adv-x="856" d="M88 63l47 226q39 -39 114 -63.5t146 -24.5q23 0 50 4t64.5 14t66 34.5t36.5 59.5q15 83 -57.5 112.5t-280.5 29.5l48 223q80 -8 163 2q169 20 189 121q2 18 4 32t-3.5 24.5t-9.5 18t-14.5 12.5t-17.5 7.5t-18.5 3.5t-18 1.5t-16.5 0.5q-171 0 -287 -76l43 211 q175 92 293 92q59 0 117.5 -20t105.5 -55.5t69.5 -93t8.5 -125.5q-13 -64 -48.5 -113t-84.5 -78t-101 -44t-106 -17q45 -5 84.5 -15t80.5 -30.5t67.5 -47.5t38.5 -70t1 -95q-34 -149 -168 -246.5t-346 -97.5q-66 0 -141 26.5t-119 56.5z" />
<glyph unicode="4" horiz-adv-x="878" d="M63 238l39 182l635 682h217l-137 -639h125l-47 -225h-125l-51 -238h-244l49 238h-461zM424 463h147l43 207z" />
<glyph unicode="5" horiz-adv-x="815" d="M84 43l51 246q32 -26 68 -43q73 -43 141 -43q31 0 47.5 1t45.5 4t47 12t38.5 23.5t33 39t19.5 57.5q5 21 6 41t-6 42t-21.5 39t-44 27.5t-69.5 10.5q-73 0 -180 -21q-39 -7 -86 -18l135 641h606l-47 -221h-360l-35 -168h45q55 0 105 -12t95 -39t73 -69.5t40 -103.5 t-6 -141q-34 -163 -170.5 -265.5t-359.5 -102.5q-104 0 -211 63z" />
<glyph unicode="6" horiz-adv-x="886" d="M145 475q36 164 100 291.5t146 205t174 117t191 39.5q51 0 128.5 -13.5t108.5 -29.5l-47 -225q-35 13 -80 23q-95 20 -159 18q-158 -8 -248 -184q93 22 174 22q133 0 216 -109.5t52 -264.5q-36 -165 -172.5 -275t-298.5 -110q-164 0 -250 131.5t-35 363.5zM372.5 311 q-0.5 -23 4 -39t11.5 -28.5t17.5 -20t20 -12.5t20.5 -7t17.5 -2.5t13.5 -0.5q19 0 43.5 8.5t52.5 26t51.5 51.5t32.5 78q9 30 6.5 53t-6.5 39t-16 27.5t-22.5 18t-25.5 10t-25.5 4.5t-22.5 1q-71 0 -111.5 -45.5t-54.5 -110.5q-6 -28 -6.5 -51z" />
<glyph unicode="7" horiz-adv-x="827" d="M160 0l522 881h-481l47 221l780 -2l-12 -62l-600 -1038h-256z" />
<glyph unicode="8" horiz-adv-x="866" d="M111 315q19 91 61 153.5t127 123.5q-69 89 -39 223q22 116 140 214.5t264 98.5q68 0 126 -29.5t92 -75.5t49 -101.5t5 -106.5q-11 -45 -33.5 -86.5t-38 -61t-63.5 -75.5q48 -48 67 -121t2 -156q-29 -143 -149.5 -239t-294.5 -96q-126 0 -205 46t-104 120t-6 169zM358 278 q6 -25 16 -40t28.5 -23.5t33 -11t29.5 -2.5q132 0 162 135q16 73 -16 108t-89 35q-19 0 -39 -5t-45.5 -18.5t-46 -43.5t-29.5 -72q-10 -37 -4 -62zM502 803q-18 -101 69 -101q16 0 36 6t46 30.5t33 64.5q2 3 2.5 13t-2.5 24.5t-10 28t-23.5 23t-40.5 9.5q-26 0 -46.5 -9.5 t-32 -23t-19 -28.5t-10 -24.5t-2.5 -12.5z" />
<glyph unicode="9" horiz-adv-x="884" d="M106 20l48 222q26 -13 57 -21q70 -20 139 -20q3 0 20 -0.5t27.5 -0.5t32 3t38 10t40.5 20.5t44 33t43 49.5t44 69q-102 -20 -176 -20q-87 0 -155.5 54.5t-98 142t-8.5 179.5q23 115 101 205.5t176 136t194 45.5q89 0 154 -40.5t98 -110.5t41.5 -164.5t-15.5 -202.5 q-66 -306 -232 -468t-411 -162q-49 0 -109.5 11.5t-91.5 28.5zM446 741q-38 -157 109 -157q42 0 76 19.5t52 46t27 47t9 28.5q4 19 6 37.5t-1 45t-12.5 46t-32.5 33.5t-58 14q-38 0 -71.5 -17.5t-54 -44.5t-33 -52t-16.5 -46z" />
<glyph unicode=":" horiz-adv-x="415" d="M76 0l49 240h248l-51 -240h-246zM197 575l51 242h246l-52 -242h-245z" />
<glyph unicode=";" horiz-adv-x="417" d="M-180 -225q79 43 119 73q121 91 145 201l41 187h250l-41 -187q-23 -107 -135 -199q-59 -46 -109 -75h-270zM199 573l51 242h246l-52 -242h-245z" />
<glyph unicode="&#x3c;" horiz-adv-x="880" d="M113 326l26 125l897 438l-51 -252l-500 -246l400 -211l-51 -246z" />
<glyph unicode="=" horiz-adv-x="907" d="M119 201l45 215h737l-45 -215h-737zM180 502l47 215h740l-47 -215h-740z" />
<glyph unicode="&#x3e;" horiz-adv-x="880" d="M0 -66l51 246l490 211l-391 246l51 252l710 -438l-24 -125z" />
<glyph unicode="?" horiz-adv-x="784" d="M199 0l51 242h248l-54 -242h-245zM242 795l47 202q39 42 80 66q108 65 235 65q84 0 151 -38.5t99 -103.5t16 -138q-12 -59 -47.5 -108.5t-78.5 -82.5t-85 -62t-74.5 -60.5t-39.5 -63.5l-31 -141h-246l33 162q6 45 39.5 86.5t77.5 73t88 60.5t77 61t38 63q15 63 -99 63 q-94 0 -194 -53q-29 -13 -86 -51z" />
<glyph unicode="@" horiz-adv-x="1339" d="M166 432q32 157 146 291.5t272 211.5t319 77q157 0 274 -65t169.5 -180t23.5 -255q-32 -160 -153 -288t-232 -128q-39 0 -69 8.5t-41.5 16t-30.5 26t-23 21.5q-4 -2 -25 -16t-42 -25t-61 -21t-85 -10q-124 0 -192.5 95t-36.5 235q23 105 93 185.5t150.5 118.5t155.5 38 q57 0 113.5 -33.5t64.5 -70.5l33 81h189l-138 -335q-17 -50 -24 -76q-15 -74 26 -74q44 0 89 43.5t74.5 100t41.5 108.5q11 39 5 84t-19.5 89t-45.5 84.5t-73 71.5t-101.5 49.5t-131.5 18.5q-106 0 -210 -45.5t-180.5 -116t-130.5 -154t-71 -161.5q-12 -67 -8.5 -130.5 t33 -120.5t74.5 -100t116.5 -68t159.5 -25q144 0 307 61l-23 -108q-177 -56 -307 -56q-122 0 -222 41.5t-164 113t-88.5 173.5t-0.5 219zM623 375q5 -20 10.5 -31.5t17.5 -17t17.5 -6.5t9.5 -1q37 0 65.5 21.5t42.5 50t20.5 49.5t6.5 27q21 105 -29 111q-39 0 -69.5 -17 t-47.5 -44t-26 -48t-14 -43q-9 -31 -4 -51z" />
<glyph unicode="A" horiz-adv-x="1085" d="M14 0l645 1102h209l181 -1102h-254l-45 260h-336l-154 -260h-246zM541 481h176l-35 248z" />
<glyph unicode="B" horiz-adv-x="927" d="M76 0l233 1102h344q160 0 239 -82q60 -62 60 -147q0 -27 -6 -56q-17 -81 -70.5 -134t-111.5 -71q-50 -16 -101 -16h-16q33 0 64 -4.5t66 -15.5t60.5 -30t46.5 -48t25 -69q1 -13 1 -28q0 -30 -5 -65q-18 -83 -69 -149.5t-120.5 -106t-147 -60t-154.5 -20.5h-338zM369 221 h77q85 0 142.5 32.5t68.5 82.5q9 22 4 45.5t-19.5 43t-53 32t-96.5 12.5h-72zM467 692h45q162 0 182 105q1 16 2 28t-6.5 21t-13 15.5t-17.5 10t-19.5 6t-20 3t-18.5 1t-15 0.5l-8 -1h-70z" />
<glyph unicode="C" horiz-adv-x="999" d="M158 541q28 128 95.5 238.5t158.5 186t201 119t221 43.5q220 0 354 -73l-131 -213q-52 28 -127.5 43.5t-145.5 15.5q-77 0 -142 -32.5t-104.5 -77t-70 -100t-42.5 -90.5t-17 -60q-11 -50 -11 -94q0 -87 42 -150q63 -96 196 -96q123 0 303 84l39 -211q-76 -38 -187 -66 t-217 -28q-153 0 -260 75t-147 203q-22 71 -23 149q0 64 15 134z" />
<glyph unicode="D" horiz-adv-x="1081" d="M76 0l233 1102h328q108 0 194.5 -18t157.5 -58t110 -103t53 -153q4 -29 4 -62q0 -67 -19 -147q-28 -132 -103 -240t-177.5 -178t-223 -107.5t-244.5 -37.5zM369 221h67q184 0 305 101t148 239q13 55 13 101q0 219 -306 219h-88z" />
<glyph unicode="E" horiz-adv-x="825" d="M76 0l233 1102h656l-47 -221h-410l-47 -217h368l-47 -226h-368l-45 -217h409l-47 -221h-655z" />
<glyph unicode="F" horiz-adv-x="763" d="M76 0l233 1102h656l-47 -221h-410l-47 -217h368l-47 -226h-368l-92 -438h-246z" />
<glyph unicode="G" horiz-adv-x="1101" d="M152 304q-11 46 -11 97q0 61 15 129q25 119 92.5 228t162.5 191t219 130.5t253 48.5q146 0 250 -47q41 -18 73 -47l-53 -254q-45 49 -143.5 85t-204.5 36q-72 0 -137 -28t-110 -70t-79.5 -93.5t-52.5 -97.5t-23 -82q-9 -37 -10 -78v-7q0 -38 11 -79q11 -46 35.5 -82 t72.5 -59.5t115 -23.5h37.5h32t24 1t26.5 3.5l26 6.5t36 11l37 178h-225l47 222h471l-115 -547q-81 -42 -211.5 -69t-232.5 -27q-107 0 -197 39t-149.5 111t-81.5 174z" />
<glyph unicode="H" horiz-adv-x="1050" d="M76 0l233 1102h246l-90 -420h389l88 420h248l-234 -1102h-245l96 459h-389l-99 -459h-243z" />
<glyph unicode="I" horiz-adv-x="415" d="M76 0l233 1102h246l-233 -1102h-246z" />
<glyph unicode="J" horiz-adv-x="677" d="M23 45l124 188q7 -3 21 -8.5t20 -7.5q50 -16 86 -16q51 0 88 45.5t60 154.5l149 701h246l-147 -701q-21 -95 -59.5 -170t-85 -122t-102.5 -77.5t-109.5 -42.5t-108.5 -12q-61 0 -129 33q-36 20 -53 35z" />
<glyph unicode="K" horiz-adv-x="974" d="M76 0l233 1102h246l-80 -383l395 383h301l-415 -412l184 -690h-264l-129 494l-152 -144l-73 -350h-246z" />
<glyph unicode="L" horiz-adv-x="763" d="M76 0l233 1102h246l-186 -881h409l-47 -221h-655z" />
<glyph unicode="M" horiz-adv-x="1337" d="M76 0l233 1102h264l160 -711l477 711h267l-234 -1102h-246l125 592l-403 -592h-141l-134 575l-125 -577z" />
<glyph unicode="N" horiz-adv-x="1112" d="M76 0l233 1102h248l301 -678l146 678h247l-233 -1102h-250l-303 672l-143 -672h-246z" />
<glyph unicode="O" horiz-adv-x="1193" d="M144 360q-1 14 -1 27q0 71 15 150q26 124 87 232t146.5 188t198 125.5t235.5 45.5q99 0 180 -29.5t134 -81.5t86.5 -123.5t37.5 -155.5q1 -15 0 -32q0 -71 -14 -147q-55 -257 -238 -418t-444 -161q-97 0 -175.5 28t-130 78.5t-82.5 120t-35 153.5zM397 380q9 -64 44 -104 t78.5 -57.5t94.5 -17.5q60 0 117 18.5t111.5 58.5t97.5 112t64 169q9 55 9 100q0 31 -4 58q-11 65 -47.5 106t-81.5 59.5t-98 18.5q-57 0 -112.5 -20t-108.5 -61t-94 -114t-61 -169q-12 -62 -12 -111q0 -25 3 -46z" />
<glyph unicode="P" horiz-adv-x="876" d="M76 0l233 1102h326q84 0 151 -20t118 -62.5t68 -110.5q8 -33 8 -73q0 -42 -9 -91q-17 -85 -55.5 -152t-88.5 -110t-114 -71.5t-128.5 -40t-135.5 -11.5h-52l-78 -360h-243zM446 582h50q198 0 227 161q6 25 8 40.5t-2 36t-18.5 32.5t-45 20.5t-77.5 8.5h-80z" />
<glyph unicode="Q" horiz-adv-x="1193" d="M158 537q35 164 131 299.5t232 213.5t282 78q106 0 191.5 -29.5t141 -81.5t89.5 -123.5t37 -155.5q1 -15 1 -30q0 -71 -14 -149q-35 -173 -138 -308t-232 -200q26 -12 49 -28t46.5 -39.5t33.5 -56.5q6 -18 6 -38q0 -16 -4 -32h-236q3 15 3 29q0 75 -81 104 q-47 -10 -159 -10q-141 0 -239.5 74t-135.5 202q-20 67 -20 142q0 66 16 139zM396 380q8 -64 41.5 -104.5t78.5 -58.5t100 -18q58 0 114.5 19t111 59t98 112.5t64.5 169.5q10 56 10 102q0 30 -4 56q-11 65 -49 106t-89.5 59.5t-117.5 18.5q-34 0 -72 -11.5t-80.5 -39.5 t-79.5 -68.5t-68.5 -104t-47.5 -140.5q-12 -64 -12 -114q0 -23 2 -43z" />
<glyph unicode="R" horiz-adv-x="1013" d="M76 0l233 1102h355q71 0 134 -20t112 -58q48 -38 68 -102q11 -34 11 -73q0 -34 -8 -71q-23 -98 -119 -166q-90 -63 -155 -63h-9q76 -31 168 -270l111 -279h-287l-84 236q-15 46 -36 81t-40 53.5t-39 30t-31.5 14.5t-19.5 3h-30l-91 -418h-243zM457 643l84 2 q89 1 132.5 33t57.5 100q3 13 3 24q0 28 -21 48q-30 28 -121 29l-84 2z" />
<glyph unicode="S" horiz-adv-x="948" d="M94 90l43 209q39 -30 80 -49q92 -47 199 -47q56 0 91 3.5t74.5 16t63 40.5t33.5 73q3 13 3 25q1 27 -15 47q-22 30 -65.5 49.5t-96.5 37t-104.5 42t-91.5 58.5q-40 33 -58 93q-9 30 -8 66q0 34 8 73q25 122 156 208.5t296 86.5q166 0 261 -43q41 -19 69 -43l-45 -217 q-58 28 -96 41q-105 41 -238 41q-67 0 -106.5 -22t-46.5 -52q-7 -33 17.5 -58t67 -40t95 -35t103 -44t89.5 -66q38 -42 54 -100q8 -29 8 -65q0 -38 -8 -83q-34 -159 -162 -257.5t-334 -98.5q-156 0 -254 55q-47 20 -82 55z" />
<glyph unicode="T" horiz-adv-x="856" d="M201 881l47 221h809l-47 -221h-277l-186 -881h-246l186 881h-286z" />
<glyph unicode="U" horiz-adv-x="1050" d="M166 430l143 672h246l-139 -664q-10 -50 -12 -88q0 -9 -1 -17q0 -27 6 -47q7 -26 19 -43t32 -26t40 -12.5t47 -3.5q26 0 50 4t57 18t59 37t50 66t36 100l145 676h246l-139 -658q-26 -122 -80.5 -213t-128.5 -145t-160 -80t-184 -26q-193 0 -286 113q-62 75 -62 199 q0 63 16 138z" />
<glyph unicode="V" horiz-adv-x="1085" d="M248 1102h252l110 -719l418 719h254l-647 -1102h-209z" />
<glyph unicode="W" horiz-adv-x="1505" d="M248 1102h252l45 -680l352 680h176l31 -670l346 670h252l-578 -1102h-239l-17 598l-295 -598h-239z" />
<glyph unicode="X" horiz-adv-x="1085" d="M14 0l482 551l-224 551h287l133 -334l289 334h293l-486 -551l252 -551h-292l-152 338l-293 -338h-289z" />
<glyph unicode="Y" horiz-adv-x="1011" d="M248 1102h258l119 -426l315 426h264l-516 -694l-84 -408h-250l86 408z" />
<glyph unicode="Z" horiz-adv-x="927" d="M14 0l23 111l682 770h-477l47 221h839l-22 -109l-686 -772h502l-48 -221h-860z" />
<glyph unicode="[" horiz-adv-x="542" d="M14 -289l312 1465h434l-47 -222h-201l-217 -1022h201l-47 -221h-435z" />
<glyph unicode="\" horiz-adv-x="655" d="M297 1331h242l79 -1331h-243z" />
<glyph unicode="]" horiz-adv-x="542" d="M-45 -289l45 221h199l219 1022h-201l47 222h436l-313 -1465h-432z" />
<glyph unicode="^" horiz-adv-x="1159" d="M160 395l565 779h127l287 -779h-256l-162 430l-309 -430h-252z" />
<glyph unicode="_" horiz-adv-x="907" d="M53 -102l43 200h738l-43 -200h-738z" />
<glyph unicode="`" horiz-adv-x="718" d="M336 1229h282l181 -328h-254z" />
<glyph unicode="a" horiz-adv-x="872" d="M135 248q17 63 53.5 107.5t82 65.5t87 29.5t84.5 8.5q96 0 154 14q45 15 47 16q4 35 6 60t-7 41t-16.5 25.5t-23.5 14.5t-26.5 6t-26.5 1q-112 0 -213 -57q-36 -17 -88 -56l-35 133q47 60 94 95q129 96 295 96q154 0 235 -90q60 -66 60 -165q0 -36 -8 -75l-109 -518h-237 l28 131q-7 -6 -32.5 -30.5t-44 -39.5t-46 -34t-56.5 -29t-58 -10q-104 0 -164 78q-42 55 -42 122q0 29 7 60zM371 248q-7 -36 13.5 -48t57.5 -12q36 0 80.5 15t73.5 47l14 69q-8 -1 -24.5 -4t-24.5 -4q-43 -6 -108 -6q-21 0 -49 -16.5t-33 -40.5z" />
<glyph unicode="b" horiz-adv-x="968" d="M76 0l248 1165h235l-102 -481q22 53 53 86q78 86 178 86q45 0 93 -16t94.5 -48.5t79 -83t46.5 -119.5q6 -30 6 -64q0 -43 -10 -93q-19 -93 -62.5 -170t-97 -126.5t-116.5 -84t-120.5 -49t-108.5 -14.5q-104 0 -136 82q-12 31 -12 67v15l-33 -152h-235zM369 276 q15 -17 41 -36q55 -37 110 -37q86 0 150.5 55.5t89.5 171.5q6 30 6 56q0 56 -29 96q-43 58 -123 59q-50 0 -122 -37q-35 -17 -60 -37z" />
<glyph unicode="c" horiz-adv-x="780" d="M126 217q-9 37 -9 80q0 46 10 100q43 195 196.5 323t323.5 128q99 0 187 -43q29 -15 75 -43l-143 -211l-49 43q-58 43 -113 43q-49 0 -93 -24.5t-73 -62t-48 -77.5t-25 -76q-6 -26 -5 -50q0 -49 24 -89q36 -58 130 -59q58 0 131 43q41 25 66 45l51 -213q-61 -28 -105 -43 q-110 -43 -190 -43q-82 0 -151.5 25t-120.5 76t-69 128z" />
<glyph unicode="d" horiz-adv-x="968" d="M130 245q-7 36 -7 77q0 52 12 110q20 91 73 171.5t118.5 132.5t134 82t123.5 30q97 0 159 -82q25 -40 39 -82l105 481h235l-248 -1165h-235l31 152q-25 -39 -68 -82q-92 -80 -190 -80q-63 0 -121 30t-101.5 86.5t-59.5 138.5zM373 430q-9 -37 -10 -71q-1 -46 17 -87 q30 -71 101 -71q82 0 162 37q30 15 53 38l62 291q-18 21 -37 35q-56 37 -143 37q-72 0 -132 -67t-73 -142z" />
<glyph unicode="e" horiz-adv-x="860" d="M131 406q16 84 60.5 163.5t107 141.5t145.5 99.5t170 37.5q89 0 152.5 -31.5t94.5 -86t40 -128.5q3 -22 3 -46q0 -55 -15 -116l-21 -114h-512q-2 -8 -2 -15q0 -35 34 -70q41 -42 130 -42q100 0 166 39q27 12 57 38l45 -174q-39 -31 -96 -57q-112 -55 -246 -55 q-182 0 -269 108q-58 73 -58 186q0 56 14 122zM412 539h254q4 10 -3.5 32.5t-33 44t-62.5 21.5q-48 0 -101.5 -40t-53.5 -58z" />
<glyph unicode="f" horiz-adv-x="620" d="M143 610l45 215h131l13 52q15 53 32 94t46 83t64.5 69.5t89 45t118.5 17.5q52 0 111 -19q3 -1 17.5 -6.5t20.5 -9.5l-47 -227q-14 12 -39 26q-44 27 -69 27l-5 1h-9.5t-12 -1t-14.5 -3.5t-15.5 -6.5t-16 -12t-14.5 -18t-12.5 -25.5t-9.5 -34.5l-12 -52h207l-45 -215h-205 l-131 -610h-234l129 610h-133z" />
<glyph unicode="g" horiz-adv-x="968" d="M49 -244l127 191q17 -25 45 -47q61 -45 150 -45q30 0 50.5 1.5t52.5 7t55.5 18.5t48.5 33.5t42.5 55t26.5 80.5l23 101q-21 -45 -56 -84q-78 -82 -176 -82q-70 0 -134 30t-109.5 85t-64.5 133q-9 38 -9 80q0 44 10 92q16 80 55.5 152.5t91.5 124t111.5 89.5t117.5 57 t107 19q100 0 146 -82q19 -40 22 -82l33 154h238l-162 -766q-90 -432 -565 -432q-109 0 -199 57q-42 23 -78 59zM363 345.5q4 -35.5 14 -68.5t36 -56.5t62 -23.5q90 0 164 34q29 13 57 37l62 293q-17 21 -43 35q-64 37 -150 37q-49 0 -92 -37t-68.5 -86.5t-37.5 -103.5 q-8 -25 -4 -60.5z" />
<glyph unicode="h" horiz-adv-x="907" d="M76 0l248 1165h235l-106 -501q35 53 71 92q84 92 166 92q95 0 156 -46q60 -46 78 -118q10 -37 10 -79q0 -38 -8 -79l-113 -526h-235l110 532q2 10 2 20q0 28 -20 49q-27 28 -99 28q-38 0 -94 -29q-22 -13 -45 -29l-121 -571h-235z" />
<glyph unicode="i" horiz-adv-x="405" d="M76 0l178 838h235l-178 -838h-235zM276 944l50 232h237l-51 -232h-236z" />
<glyph unicode="j" horiz-adv-x="405" d="M-281 -279l125 187q19 -19 29 -25q27 -24 57 -24q26 0 42.5 4.5t38.5 20.5t39.5 54t31.5 99l172 801h235l-165 -777q-39 -187 -154.5 -303t-292.5 -116q-71 0 -117 39q-25 22 -41 40zM274 942l52 234h237l-53 -234h-236z" />
<glyph unicode="k" horiz-adv-x="866" d="M76 0l248 1165h235l-129 -612l297 287h283l-332 -318l139 -522h-244l-88 336l-129 -129l-45 -207h-235z" />
<glyph unicode="l" horiz-adv-x="405" d="M76 0l248 1165h235l-248 -1165h-235z" />
<glyph unicode="m" horiz-adv-x="1409" d="M76 0l178 838h235l-36 -174l10 16l23 34.5t36.5 43.5t49.5 43.5t62.5 33t74.5 13.5q92 0 147.5 -59t69.5 -134q1 2 18 24.5t31 40t40 43t51 42.5t59 30t67 13q94 0 154 -49q62 -49 80 -121q10 -38 9 -77q0 -36 -8 -75l-112 -526h-236l111 532q5 9 1.5 25t-10.5 31.5 t-31 27t-60 11.5q-29 0 -97 -29q-45 -20 -59 -27l-121 -571h-235l110 532q4 12 4 23q0 25 -20 43q-28 26 -101 27q-26 0 -86 -27l-53 -27l-121 -571h-235z" />
<glyph unicode="n" horiz-adv-x="907" d="M76 0l178 838h235l-36 -174q28 49 71 92q92 92 191 92q82 0 137.5 -49t73.5 -121q9 -37 8 -76q0 -37 -8 -76l-113 -526h-235l108 532q2 11 -1 25.5t-11 31t-28.5 27.5t-49.5 11q-39 0 -107 -29q-42 -19 -57 -27l-121 -571h-235z" />
<glyph unicode="o" horiz-adv-x="946" d="M129 408q43 191 182.5 315.5t337.5 124.5q128 0 211 -58q82 -58 110 -154q14 -50 15 -106q0 -51 -12 -106q-42 -190 -185 -314t-337 -124q-122 0 -205 58q-82 58 -112 154q-16 52 -16 109q0 48 11 101zM360 342q2 -36 11.5 -68t41.5 -53.5t83 -21.5q189 0 239 225 q9 28 9 58v14q-2 38 -13.5 69t-45 51.5t-83.5 20.5q-44 0 -82 -15.5t-63 -39.5t-44.5 -55.5t-30 -60.5t-15.5 -58q-7 -23 -7 -50q-1 -8 0 -16z" />
<glyph unicode="p" horiz-adv-x="968" d="M4 -328l250 1166h235l-32 -154q27 42 67 82q78 82 142 82q115 0 198 -51.5t120 -153.5q20 -57 20 -124q0 -53 -13 -113q-19 -90 -74.5 -171.5t-124 -134.5t-139 -83.5t-125.5 -30.5q-103 0 -153 82q-23 40 -31 84l-102 -480h-238zM369 268q19 -22 43 -37q62 -36 135 -36 q10 0 28 5t45 20t51.5 37t47.5 61t33 88q11 49 11 87q0 142 -149 142q-50 0 -122 -37q-35 -17 -60 -37z" />
<glyph unicode="q" horiz-adv-x="968" d="M130 234q-9 38 -9 80q0 44 10 92q20 100 69.5 186t112 140.5t130.5 85t130 30.5q100 0 166 -82q30 -42 43 -82l35 154h236l-250 -1166h-236l103 480q-22 -43 -60 -84q-78 -82 -180 -82q-68 0 -130 30t-106.5 85t-63.5 133zM362 318q8 -37 22.5 -60.5t36 -37.5t37.5 -19.5 t27 -5.5q70 0 148 36q35 15 63 37l62 293q-20 20 -47 37q-64 37 -115 37q-14 0 -30.5 -2.5t-48 -15.5t-57.5 -35.5t-52.5 -68t-40.5 -107.5q-7 -31 -7 -57q0 -17 2 -31z" />
<glyph unicode="r" horiz-adv-x="604" d="M76 0l178 838h235l-49 -234q39 79 70 123q85 125 170 125q10 0 43 -14q8 -8 22 -15l-49 -237q-20 8 -30 14q-36 16 -62 16q-48 0 -127 -67q-27 -21 -63 -66l-103 -483h-235z" />
<glyph unicode="s" horiz-adv-x="784" d="M86 55l45 209q39 -28 68 -39q84 -37 161 -37q133 0 146 66q6 28 -17 48t-62.5 32t-84 32t-81 45t-54.5 75q-10 28 -10 61q0 26 6 55q14 64 56 115t96 80t108 44t100 15q125 0 195 -41q33 -17 55 -39l-43 -203q-40 25 -74 37q-97 37 -178 37q-31 0 -54.5 -17t-23.5 -28 q-3 -15 15.5 -26.5t49.5 -20t68.5 -22t73 -32.5t62.5 -51.5t37 -79.5q4 -20 4 -45q0 -32 -7 -71q-26 -124 -137.5 -199t-269.5 -75q-78 0 -172 36q-25 9 -78 39z" />
<glyph unicode="t" horiz-adv-x="620" d="M143 610l45 215h134l71 340h238l-74 -340h205l-45 -215h-205l-66 -313q-4 -18 -5.5 -33.5t0.5 -25t5 -17t8.5 -11.5t10.5 -6.5t10.5 -3t9.5 -0.5h7l4 1q45 0 94 22q18 7 51 25l-47 -225q-7 -3 -21.5 -8.5t-21.5 -8.5q-54 -16 -115 -16q-96 0 -156 43t-76 110q-8 33 -8 70 q0 38 9 80l69 317h-131z" />
<glyph unicode="u" horiz-adv-x="907" d="M139 309l115 529h235l-106 -500q-5 -22 -5 -39q0 -35 20 -52q30 -26 71 -26t109 29q28 13 59 31l119 557h235l-174 -828h-237l32 162q-16 -45 -49 -86q-68 -84 -172 -84q-141 0 -209 92q-50 67 -50 150q0 31 7 65z" />
<glyph unicode="v" horiz-adv-x="903" d="M193 838h264l71 -467l273 467h243l-477 -838h-231z" />
<glyph unicode="w" horiz-adv-x="1247" d="M193 838h260l18 -430l236 430h176l32 -430l220 430h254l-443 -838h-215l-33 414l-223 -414h-225z" />
<glyph unicode="x" horiz-adv-x="907" d="M14 0l373 418l-194 420h272l102 -222l199 222h270l-379 -430l203 -408h-270l-109 213l-198 -213h-269z" />
<glyph unicode="y" horiz-adv-x="950" d="M-35 -285l117 185q14 -11 37 -23q36 -22 69 -22q42 0 73.5 31t66.5 96l37 69l-172 787h253l113 -469l277 469h256l-578 -947q-78 -122 -161.5 -185.5t-192.5 -63.5q-88 0 -150 36q-25 14 -45 37z" />
<glyph unicode="z" horiz-adv-x="821" d="M76 0l22 111l473 516h-323l45 211h674l-25 -117l-471 -512h356l-45 -209h-706z" />
<glyph unicode="{" horiz-adv-x="569" d="M111 311l43 201q33 2 46.5 4t35 8t31 17t21 32t19.5 52l51 239q13 67 39 117.5t73 95t126.5 71t189.5 32.5l-47 -222h-22.5t-30.5 -4.5t-39 -13.5t-30.5 -30t-22.5 -50l-51 -246q-16 -76 -84 -132t-150 -79q74 -19 117 -74.5t27 -135.5l-52 -238q-17 -72 43 -88 q22 -8 64 -2l-45 -221q-184 0 -258 81.5t-43 215.5l49 245q7 27 9 47t-5 33t-12.5 20.5t-24.5 12.5t-29.5 7t-37.5 5z" />
<glyph unicode="|" horiz-adv-x="407" d="M20 -258l326 1532h238l-324 -1532h-240z" />
<glyph unicode="}" horiz-adv-x="569" d="M-59 -356l45 221q36 -6 61 2q63 15 80 88l51 238q14 78 86 135.5t150 74.5q-73 22 -117.5 78.5t-28.5 132.5l51 246q4 21 3 37t-7.5 26t-15.5 17.5t-20 10.5t-21.5 5.5t-20 1.5t-15.5 0h-3h-2l47 222q87 -5 148.5 -23.5t94 -47.5t49.5 -67.5t15 -83t-10 -94.5l-51 -239 q-6 -22 -6.5 -39t0.5 -28.5t11 -19.5t15.5 -12t24.5 -7.5t27.5 -4t33.5 -2.5l-45 -201q-28 -3 -39 -5t-31.5 -7t-29.5 -12.5t-22 -20.5t-20 -33t-13 -47l-51 -245q-31 -136 -136 -216.5t-288 -80.5z" />
<glyph unicode="~" horiz-adv-x="905" d="M147 338q7 36 21 73t38.5 77t55 70.5t74.5 50.5t94 20q48 0 88.5 -15t63 -33.5t48 -33.5t46.5 -15q7 0 12.5 0.5t10.5 3.5t8 5t6 8l5 10t4.5 13.5t4 15t5 19t5.5 22.5h207q-11 -43 -25.5 -81t-38 -77.5t-52.5 -68t-70 -46.5t-88 -18q-57 0 -104 15.5t-70.5 33.5 t-47.5 33.5t-40 15.5q-22 0 -31.5 -19t-22.5 -79h-207z" />
<glyph unicode="&#xa9;" horiz-adv-x="1345" d="M76 496q0 123 47 233.5t127 190t191 126t233 46.5q164 0 301 -79t216 -216t79 -301t-79 -301t-216 -216t-301 -79q-122 0 -233 46.5t-191 126t-127 190t-47 233.5zM186 494q0 -99 39 -189.5t104.5 -156t156.5 -104t190 -38.5q133 0 245 65t177 177.5t65 245.5 q0 202 -142.5 344.5t-344.5 142.5q-133 0 -246 -65t-178.5 -177t-65.5 -245zM299 485q0 176 100.5 282.5t264.5 106.5q49 0 112.5 -9t102.5 -21l-35 -76q-66 31 -178 31q-86 0 -150.5 -48t-94.5 -118t-30 -148q0 -126 73 -216.5t202 -90.5q95 0 178 47l33 -78 q-39 -22 -101 -34.5t-121 -12.5q-161 0 -258.5 105.5t-97.5 279.5z" />
<glyph unicode="&#xad;" horiz-adv-x="692" d="M158 389l43 201h522l-43 -201h-522z" />
<glyph unicode="&#xae;" horiz-adv-x="1345" d="M76 496q0 123 47 233.5t127 190t191 126t233 46.5q164 0 301 -79t216 -216t79 -301t-79 -301t-216 -216t-301 -79q-122 0 -233 46.5t-191 126t-127 190t-47 233.5zM186 492q0 -134 65.5 -246t178 -177t246.5 -65q204 0 346.5 142t142.5 346t-142.5 346.5t-346.5 142.5 q-134 0 -246.5 -65t-178 -177.5t-65.5 -246.5zM442 131v754h220q47 -2 87.5 -14.5t75 -35.5t54.5 -63t20 -92q0 -168 -176 -199q35 -20 73 -53.5t58 -60.5l135 -236h-110l-127 215q-30 51 -76 79t-80 28h-61v-322h-93zM535 530h86q79 0 133.5 37.5t54.5 112.5q0 61 -43.5 93 t-122.5 32h-108v-275z" />
<glyph unicode="&#xbc;" horiz-adv-x="1673" d="M309 0l1055 1331h244l-1057 -1331h-242zM326 1120l24 119q63 22 111 57q31 23 49 39h113l-123 -596h-133l88 420q-41 -21 -129 -39zM1198 254l21 98l344 369h116l-73 -346h67l-26 -121h-68l-27 -129h-133l27 129h-248zM1393 375h80l22 112z" />
<glyph unicode="&#xbd;" horiz-adv-x="1687" d="M309 0l1055 1331h244l-1057 -1331h-242zM326 1120l24 119q63 22 111 57q31 23 49 39h113l-123 -596h-133l88 420q-41 -21 -129 -39zM1206 125l19 92q9 39 44.5 78.5t80 72t89 64t79 66t41.5 65.5q7 33 -11 45.5t-45 12.5q-36 0 -89 -17t-93 -43l25 115q33 28 83 48.5 t101 20.5q94 0 139 -51t27 -125q-11 -51 -38 -91t-63.5 -68t-73 -51.5t-76 -53t-63.5 -59.5h267l-25 -121h-418z" />
<glyph unicode="&#xbe;" horiz-adv-x="1728" d="M240 784l26 121q22 -22 62 -34.5t78 -12.5q12 0 27.5 2t36 8t36 19.5t18.5 32.5q10 43 -30 59t-152 16l25 121q53 -3 88 2q92 12 102 64q5 25 -4.5 38.5t-19.5 15t-27 1.5q-92 0 -156 -41l25 115q83 49 157 49q70 0 125 -44t39 -116q-14 -65 -68.5 -100t-115.5 -35 q31 -4 57 -12.5t51.5 -24t36 -42.5t2.5 -62q-18 -80 -90 -132.5t-188 -52.5q-35 0 -76 14.5t-65 30.5zM358 0l1053 1331h244l-1057 -1331h-240zM1245 254l21 98l344 369h116l-73 -346h67l-26 -121h-68l-27 -129h-133l27 129h-248zM1440 375h80l22 112z" />
<glyph unicode="&#xe01;" horiz-adv-x="1026" d="M133 0l98 459q12 61 39 121q9 24 25 43q-9 9 -25.5 26.5t-23.5 24.5q-49 49 -49 51q57 74 135 137q170 139 352 139q126 0 222 -41.5t142.5 -119t24.5 -176.5l-104 -492q-10 -49 -88 -115q-31 -27 -76 -57h-119l133 623q8 44 -4 76t-40 48t-59.5 23.5t-68.5 7.5 q-71 0 -129 -26q-26 -13 -43 -27l109 -102q-37 -29 -52 -48q-47 -54 -67 -137l-94 -438h-238z" />
<glyph unicode="&#xe02;" horiz-adv-x="876" d="M172.5 236q1.5 48 11.5 100l17 82q11 57 52.5 127.5t84.5 118.5q6 6 19 19.5t21.5 22.5t17 20t10.5 19q4 10 -13.5 14.5t-46.5 4.5h-139l45 217h139q161 0 223.5 -67.5t38.5 -168.5q-21 -101 -106 -172q-23 -17 -62.5 -70.5t-46.5 -84.5l-16 -82q-30 -135 55 -135 q48 0 82 34.5t47 100.5l137 645h246l-135 -645q-11 -54 -30 -101t-55.5 -95t-85.5 -82t-122.5 -55t-163.5 -21q-63 0 -109 21.5t-70.5 56t-35.5 81.5t-9.5 95z" />
<glyph unicode="&#xe03;" horiz-adv-x="876" d="M164 235.5q1 47.5 12 100.5l17 74q10 42 23 75.5t37 69t35.5 50t47.5 57.5q8 9 32.5 32.5t43 42.5t18.5 25q6 15 -8 19q-17 4 -43 -19q-16 -14 -47 -45l-25 -25q-13 26 -22 35q-35 35 -78 35l45 219q41 0 70 -55q8 -16 20 -56q29 37 57 56q71 55 142 55q22 0 45.5 -10.5 t47.5 -35t32 -65t-2 -100.5q-13 -59 -44.5 -112t-70.5 -85q-30 -24 -67.5 -73.5t-47.5 -102.5l-12 -61q-17 -75 -0.5 -105t63.5 -30q41 0 73.5 37t49.5 104l135 639h246l-133 -631q-12 -56 -33.5 -107t-57 -100t-81 -84.5t-109 -57t-137.5 -21.5q-78 0 -133.5 21.5t-85 56 t-43 82.5t-12.5 95.5z" />
<glyph unicode="&#xe04;" horiz-adv-x="1030" d="M76 0l139 664q32 141 180.5 239t323.5 98q171 0 278.5 -96t79.5 -241l-141 -664h-246l139 664q12 41 -31.5 77.5t-129.5 36.5q-87 0 -142 -34.5t-63 -79.5l-33 -160q42 31 78 49q92 49 166 49l-51 -242q-100 0 -183 -34q-29 -13 -59 -35l-62 -291h-243z" />
<glyph unicode="&#xe05;" horiz-adv-x="1030" d="M76 0l139 664q25 110 131 221.5t193 111.5q52 0 104 -75q31 -51 43 -74q29 39 66 76q75 75 141 75q64 0 113.5 -54.5t68 -132.5t2.5 -148l-141 -664h-246l139 664q8 41 4 66t-13.5 36.5t-22.5 11.5q-28 0 -95 -71q-52 -60 -61 -72q-6 17 -35 72q-3 5 -9.5 14.5t-10 15 t-8.5 13t-9 11.5t-9 8.5t-9.5 6.5t-9.5 2q-17 0 -43 -30t-37 -84l-33 -160q40 31 74 49q92 49 172 49l-51 -242q-100 0 -183 -34q-38 -16 -57 -33l-64 -293h-243z" />
<glyph unicode="&#xe06;" horiz-adv-x="1040" d="M106 0l95 451q11 51 37 93.5t55.5 70.5t58.5 50.5t50.5 44t25.5 40.5l2 8q3 7 3.5 10.5t-4 7.5t-15.5 4q-19 0 -64 -45l-43 -43q-16 19 -35 35q-5 3 -16 11.5t-17 12.5t-15 7.5t-17 3.5l45 219q41 0 70 -55q8 -16 20 -56q29 37 59 58q70 56 140 53q76 -4 116.5 -69.5 t22.5 -145.5q-12 -51 -38 -91t-55.5 -66.5t-58.5 -50.5t-53 -56.5t-33 -71.5l-26 -129q21 -25 43 -41q55 -41 141 -41q146 0 182 178l125 584h246l-131 -619q-36 -175 -149.5 -278.5t-254.5 -103.5q-123 0 -188 96q-29 43 -43 96l-37 -172h-244z" />
<glyph unicode="&#xe07;" horiz-adv-x="907" d="M195 682h249l21 -455q17 0 46 13t66.5 40t71.5 82.5t49 126.5q31 143 -40.5 206t-208.5 63l47 221q63 0 123.5 -11.5t118.5 -35.5t103 -63t76.5 -93t38.5 -125.5t-10 -161.5q-28 -129 -119 -244t-205 -180t-216 -65h-189z" />
<glyph unicode="&#xe08;" horiz-adv-x="995" d="M197 805q47 50 125 98q164 98 350 98q78 0 146 -28.5t113.5 -76.5t77 -111.5t37.5 -133t-6 -141.5q-21 -99 -68 -187.5t-120 -162t-181.5 -117t-238.5 -43.5h-102l-15 322q-2 8 -5.5 11.5t-6 4t-10.5 -0.5t-14 -1h-41l47 225h82q4 0 19 0.5t22 0t23 -2t25 -4t23.5 -8.5 t24 -14t21.5 -21t20 -29t15.5 -38.5t12.5 -49.5l2 -168q45 0 119.5 82.5t100.5 200.5q9 59 6.5 102t-21.5 72.5t-39.5 48t-46 28.5t-42 13.5t-27.5 3.5q-159 0 -285 -90q-60 -41 -100 -90z" />
<glyph unicode="&#xe09;" horiz-adv-x="1019" d="M125 377l47 225h158q87 0 116 -51.5t5 -157.5l-13 -57q-5 -24 -5.5 -43.5t3 -31t10 -20t13 -12.5t15 -6t12 -2h9.5h1q90 0 178 43q25 11 71 43l56 275q6 25 7.5 48t-4 51.5t-20.5 48.5t-47.5 34t-79.5 14q-98 0 -237 -55q-55 -23 -115 -55l-47 202q66 41 133 66 q162 65 318 65q192 0 287 -107t59 -292l-129 -602h-246l35 172q-41 -56 -90 -96q-112 -96 -228 -96q-122 0 -178 81t-26 207l18 88q4 15 0.5 18t-19.5 3h-6h-61z" />
<glyph unicode="&#xe0a;" horiz-adv-x="899" d="M170 226q2 48 10 96l21 96q12 53 54.5 129.5t82.5 116.5q3 3 15 14.5t17.5 17.5t15 16.5t14 18t6.5 14.5q4 11 -26 14q-12 1 -75 1h-98l47 225h100q79 0 138.5 -13t93 -36t53.5 -53.5t20.5 -65.5t-6.5 -72q-21 -103 -96 -163q-102 -74 -119 -164l-20 -105 q-14 -61 7 -86.5t58 -25.5q46 0 77.5 13t49 40t26 51.5t15.5 63.5q14 66 14.5 115t-5 67t-11.5 18l47 226q69 0 146 368h243q-21 -98 -52.5 -182t-61.5 -135.5t-59.5 -89.5t-47.5 -54t-26 -18q6 -3 15 -10.5t25 -32.5t26 -58t10 -91.5t-15 -129.5q-37 -174 -162 -277 t-307 -103q-71 0 -123 20t-80 54t-43.5 78t-13.5 92z" />
<glyph unicode="&#xe0b;" horiz-adv-x="899" d="M167.5 226.5q1.5 44.5 12.5 95.5l15 71q33 136 131 260l32 31q33 31 52.5 52t19.5 26q3 7 -0.5 14t-14 7t-22.5 -11q-9 -7 -28.5 -24.5t-28.5 -24.5q-11 -11 -31 -27q-10 13 -35 33q-47 33 -63 33l45 219q41 0 70 -55q8 -16 20 -56q33 37 57 56q71 55 142 55 q52 0 84.5 -33t38.5 -81t-2 -101q-5 -25 -15 -49t-18.5 -39.5t-28 -38.5t-26.5 -30.5t-31 -31t-27 -26.5q-2 -2 -11 -13.5t-14.5 -18.5t-15 -21t-15.5 -26.5t-12.5 -29.5t-9.5 -34l-20 -95q-16 -63 9.5 -86.5t80.5 -23.5q35 0 61 14t41.5 39.5t24.5 50t16 58.5 q14 66 14.5 116t-5.5 69t-11 19l47 226q69 0 146 368h243q-21 -99 -52 -183t-60 -135.5t-57.5 -89.5t-46.5 -53.5t-27 -17.5q6 -3 15 -10t24 -31.5t24.5 -57t9 -91t-15.5 -129.5t-53.5 -139t-94 -123t-131.5 -89t-159 -34q-85 0 -145 21t-91 54t-45 80t-12.5 91.5z" />
<glyph unicode="&#xe0c;" horiz-adv-x="1558" d="M165 135q0 26 7 58l57 266q10 53 41 121q11 22 25 43q-9 9 -25.5 26.5t-23.5 24.5q-49 49 -49 51q52 72 133 137q170 139 375 139q114 0 205 -40.5t138 -119t25 -177.5l-78 -365q7 -24 27 -41q39 -39 133 -39q25 0 42.5 5t39 22t38 54.5t28.5 96.5l122 584h248l-137 -645 q-13 -56 -44 -115.5t-75 -113.5t-106.5 -88.5t-128.5 -34.5q-131 0 -185 94q-25 42 -28 94l-35 -172h-248l133 623q14 73 -29 114t-135 41q-97 0 -147 -26q-26 -15 -33 -27l109 -102q-30 -23 -49 -45q-54 -63 -66 -119l-41 -193q-6 -14 -0.5 -26.5t21.5 -12.5h61l-47 -227 h-96h-29.5t-32 2t-35 5t-31.5 9.5t-30 16t-23 24t-16.5 33.5t-4.5 45z" />
<glyph unicode="&#xe0d;" horiz-adv-x="1568" d="M166 193l57 266q9 46 43 121q13 27 27 43q-9 9 -25.5 26.5t-23.5 24.5q-47 47 -47 51q57 74 135 137q170 139 370 139q112 0 203.5 -41t139.5 -119.5t26 -176.5l-67 -322q-5 -22 -5.5 -40t5 -30t11.5 -21.5t18 -14.5t20.5 -8.5t24 -4.5t23.5 -1.5t23 -0.5q47 0 111 37 q21 15 45 39l143 684h248l-151 -752q-19 -99 -60.5 -182.5t-94.5 -140t-115.5 -96.5t-124 -58t-119.5 -18q-147 0 -242 73q-47 35 -76 74l70 107q16 -28 45 -51q60 -52 151 -52q101 0 180.5 71.5t108.5 197.5l4 18q-31 -57 -69 -98q-93 -97 -199 -97q-74 0 -127.5 32 t-77.5 84t-31.5 119.5t9.5 137.5l59 273q11 40 0.5 67.5t-26 44.5t-42 26.5t-48 13t-42.5 3.5q-97 0 -147 -26q-26 -15 -33 -27l107 -102q-40 -35 -48 -43q-56 -69 -65 -121l-43 -193q-13 -39 12 -39h72l-47 -227h-127q-111 0 -149 53.5t-19 139.5z" />
<glyph unicode="&#xe0e;" horiz-adv-x="1026" d="M-20 -438l47 223q118 0 260 61q59 25 119 62q16 -29 38 -51q48 -52 113 -52q60 0 81 26.5t34 96.5l147 695q13 72 -32.5 113.5t-137.5 41.5q-89 0 -139 -26q-25 -14 -35 -27l109 -102q-21 -15 -43 -37q-46 -54 -62 -127l-57 -266q-24 -111 -84 -152t-172 -41h-115l45 219 h62q7 1 11 3t6.5 6t3.5 8t2.5 11.5l2.5 12.5l45 199q10 53 41 121q11 22 25 43q-9 9 -25.5 26.5t-23.5 24.5q-49 49 -49 51q60 78 133 137q170 139 362 139q56 0 114.5 -15t112 -45.5t93 -70t57 -93.5t4.5 -113l-174 -826q-7 -29 -16 -55t-34.5 -69.5t-58.5 -74t-92 -54 t-131 -23.5q-79 0 -151 57q-36 25 -58 57q-57 -33 -120 -57q-132 -57 -258 -57z" />
<glyph unicode="&#xe0f;" horiz-adv-x="1026" d="M-20 -438l47 223q110 0 219 63q43 22 94 66l49 -86l100 113q0 -22 34.5 -89t74.5 -67l5 -1h9t10 1.5t10.5 5t8.5 10.5t6 17l172 805q13 65 -27 110t-128 45q-94 0 -152 -26q-26 -13 -37 -27l117 -102q-27 -17 -47 -37q-50 -54 -66 -127l-57 -266q-43 -193 -227 -193h-144 l45 219h62q10 1 15 5t7.5 15t3.5 13l45 211q13 64 41 119q14 24 25 41q-9 9 -25.5 26.5t-23.5 24.5q-49 49 -49 51q52 72 133 137q170 139 383 139q107 0 196.5 -41t137.5 -120t26 -176l-176 -828q-4 -22 -14 -50.5t-35 -70t-59 -74t-91.5 -56t-126.5 -23.5q-54 0 -98 59 q-18 20 -35 60l-98 -84l-49 79q-54 -30 -119 -57q-121 -57 -192 -57z" />
<glyph unicode="&#xe10;" horiz-adv-x="993" d="M-20 -430l45 223q126 0 221 76q44 35 71 78l54 -109l100 109q0 -7 13.5 -42.5t40.5 -73.5t53 -38q4 0 12 4q15 15 16 21l33 157h246l-37 -172q-10 -38 -31 -76t-55.5 -74.5t-89.5 -59.5t-121 -23q-81 0 -115 59q-16 26 -22 60l-90 -78l-62 67q-38 -32 -88 -55 q-108 -53 -194 -53zM193 801q36 50 106 100q151 100 358 100q83 0 177 -36q22 7 35.5 17t23 29.5t13.5 35.5t12 51h243q-23 -87 -77 -161t-113 -91q37 -45 57 -106.5t20 -118t-10 -111.5q-24 -113 -72.5 -202t-109.5 -146t-136 -94t-148.5 -52.5t-151.5 -15.5h-92l-15 303 q-2 7 -2.5 14.5t-1 10.5t-4.5 5.5t-12 2.5h-57l47 225h106q23 0 40.5 -2t42.5 -12.5t43 -29t33.5 -54.5t22.5 -86l2 -150q43 0 119.5 83t102.5 200q12 51 8 90t-13.5 67t-29 47.5t-38.5 31.5t-42.5 19t-40 9t-31.5 2q-143 0 -272 -96q-56 -44 -96 -96z" />
<glyph unicode="&#xe11;" horiz-adv-x="1013" d="M84 0l55 266q16 82 51 156t73 123.5t74.5 90t62.5 72t30 52.5q0 2 0.5 6t-4 8t-12.5 4q-23 0 -66 -43q-7 -7 -20.5 -21.5t-20.5 -21.5q-11 22 -22 33q-35 35 -78 35l45 219q41 0 70 -55q8 -16 20 -56q36 40 59 56q71 55 129 55q117 0 86 -152q34 42 89 86q113 88 194 88 q58 0 99 -36t56 -90t18.5 -116.5t-11.5 -115.5l-139 -645l-244 2l121 582q12 59 13 96.5t-8 54.5t-19 22t-27 5q-56 0 -110.5 -35t-95.5 -87.5t-74.5 -115t-53.5 -115.5t-27 -92q-1 -2 -2 -7t-2 -7q-1 -4 -2 -8.5t-1.5 -6.5t-0.5 -3l-59 -283h-246z" />
<glyph unicode="&#xe12;" horiz-adv-x="1552" d="M150 500q51 230 164 363.5t227 133.5q40 0 92 -75q31 -51 43 -74q63 74 65 76q75 75 123 75q68 0 122.5 -50t77.5 -124t7 -145l-82 -381q12 -22 35 -41q45 -41 125 -41q27 0 45 5.5t38 22.5t35 55t27 97l125 584h246l-135 -645q-11 -45 -29 -91.5t-47.5 -94.5t-65 -85.5 t-84.5 -61t-102 -23.5q-131 0 -196 100q-33 52 -41 102l-39 -182h-246l143 680q6 31 -1.5 55t-18 33.5t-17.5 9.5q-27 0 -94 -71q-52 -60 -61 -72q-6 17 -35 72q-3 4 -9.5 14.5t-9.5 15t-9 13t-10 12t-9 8t-9.5 6.5t-9.5 2q-78 0 -133 -278q-6 -26 -8.5 -41t-7 -50.5t-4 -59 t6 -54t18 -49t36.5 -32t58 -13.5q37 0 98 26q9 3 57 27l-47 -223q-28 -20 -47 -27q-53 -24 -108 -24q-177 0 -264 136t-35 384z" />
<glyph unicode="&#xe13;" horiz-adv-x="1556" d="M163 140.5q1 24.5 7 52.5l57 266q8 53 39 121q13 27 27 43q-9 9 -25.5 26.5t-23.5 24.5q-47 47 -47 51q55 71 133 137q159 136 352 139q58 2 117.5 -8.5t115 -37t95 -64.5t57.5 -97t4 -130l-57 -267q-12 -61 -13 -96.5t13.5 -53t35 -22t62.5 -4.5q64 0 117 39 q18 10 51 39l143 682h248l-207 -981h-247l36 172q-29 -54 -71 -96q-96 -96 -224 -96q-62 0 -107 23.5t-67.5 61t-32.5 85.5t-8 94.5t13 91.5l61 287q8 44 -5.5 76t-43 48t-61.5 23.5t-68 7.5q-89 0 -135 -26q-23 -13 -31 -27l107 -102q-30 -23 -48 -43q-55 -68 -65 -121 l-43 -193q-5 -15 0.5 -27t21.5 -12h62l-47 -227h-82h-26.5t-29.5 1t-33 3.5t-31.5 7t-30.5 12t-25.5 17.5t-21.5 24.5t-13 32.5t-5 42.5z" />
<glyph unicode="&#xe14;" horiz-adv-x="1019" d="M133.5 297.5q-8.5 94.5 16.5 202.5q26 119 84.5 216t135 158t163.5 94t176 33q186 0 288.5 -93t69.5 -244l-141 -664h-246l131 625q8 29 4.5 51t-8.5 38.5t-18.5 27.5t-26.5 18t-32 11t-36 5.5t-37 1.5q-18 0 -41 -5.5t-57 -23.5t-63.5 -46.5t-57 -81t-41.5 -121.5 q-69 -299 99 -299q62 0 112 26q13 6 43 27l-45 -221q-30 -21 -45 -27q-58 -26 -123 -26q-95 0 -163 41t-100.5 111.5t-41 165z" />
<glyph unicode="&#xe15;" horiz-adv-x="1019" d="M150 500q51 230 164 363.5t227 133.5q38 0 90 -75l45 -74q31 42 65 76q75 75 123 75q71 0 125.5 -50t76 -124t5.5 -145l-145 -680h-246l143 680q7 35 -2 59t-21 31.5t-22 7.5q-17 0 -84 -71q-10 -13 -32 -37.5t-31 -34.5q-6 17 -35 72q-3 4 -9.5 14.5t-9.5 15t-9 13 t-10 12t-9 8t-9.5 6.5t-9.5 2q-8 0 -16.5 -3.5t-24 -19.5t-30 -44t-32 -84t-32.5 -131q-32 -154 -4.5 -224.5t105.5 -70.5q37 0 98 26q9 3 57 27l-47 -223q-34 -21 -51 -27q-57 -24 -129 -24q-168 0 -245.5 146t-28.5 374z" />
<glyph unicode="&#xe16;" horiz-adv-x="1026" d="M172 193l57 266q10 53 41 121q11 22 25 43q-9 9 -25.5 26.5t-23.5 24.5q-49 49 -49 51q53 70 137 137q170 139 371 139q114 0 205 -40.5t138 -119t25 -177.5l-104 -492q-9 -42 -88 -113q-41 -36 -76 -59h-119l133 623q17 77 -26.5 116t-137.5 39q-97 0 -147 -26 q-26 -15 -33 -27l109 -102q-30 -23 -49 -45q-54 -63 -66 -119l-41 -189q-4 -15 -5 -21t2.5 -12.5t14.5 -7.5l70 -2l-47 -227l-170 2q-66 0 -103 50.5t-18 140.5z" />
<glyph unicode="&#xe17;" horiz-adv-x="1009" d="M76 0l207 981h245l-34 -174q32 56 75 96q102 98 232 98q89 0 155 -53t91 -135.5t6 -169.5l-138 -643h-245l121 582q7 30 9.5 48t-0.5 46t-16 43.5t-43.5 28t-78.5 12.5q-65 0 -138 -43q-17 -10 -59 -43l-146 -674h-243z" />
<glyph unicode="&#xe18;" horiz-adv-x="948" d="M117.5 228.5q-2.5 39.5 9.5 86.5q14 60 14 68v1q-1 0 -2 -3h252q0 -1 -12 -66q-5 -21 -5.5 -38t5 -28.5t10.5 -20t17.5 -13.5t20.5 -8t25.5 -4.5t25.5 -1.5h27h11q28 0 54.5 4.5t55.5 15t49.5 33t26.5 55.5q9 44 -10 72.5t-58 41t-90 23t-105.5 16.5t-104 23.5t-86 42.5 t-51.5 74.5t0 118.5q18 89 89 153.5t174 95.5t228 31q144 0 273 -51q44 -18 94 -51l-49 -237q-33 33 -84 59q-112 59 -283 59q-28 0 -43 -0.5t-41 -2t-41 -5t-32 -10t-26.5 -17t-11.5 -24.5q-5 -21 25.5 -32.5t81.5 -16t113 -14t120.5 -28t104 -58t63 -103t-1.5 -164.5 q-13 -59 -50 -116t-93.5 -104t-138.5 -76t-174 -29q-35 0 -66.5 2t-66 7.5t-63 14t-58 22t-49.5 32.5t-38.5 43.5t-25.5 56t-9.5 71z" />
<glyph unicode="&#xe19;" horiz-adv-x="1009" d="M145 338l134 620h245l-123 -583q-9 -48 -1.5 -79t26.5 -46.5t38.5 -21.5t34.5 -6l15 -1q85 0 158 43q39 24 63 45l139 649h244l-203 -958h-245l35 174q-32 -51 -82 -98q-108 -96 -236 -96q-89 0 -151.5 54t-85 135.5t-5.5 168.5z" />
<glyph unicode="&#xe1a;" horiz-adv-x="989" d="M139 268q0 42 8 82l136 631h245l-133 -639q-16 -63 9.5 -102t62.5 -39h86q57 0 104 37.5t64 103.5l137 643h246l-135 -635q-13 -61 -48 -124.5t-86.5 -119.5t-126 -91t-155.5 -35h-143q-58 0 -104.5 16.5t-77 44.5t-51.5 64.5t-29.5 78.5t-8.5 84z" />
<glyph unicode="&#xe1b;" horiz-adv-x="989" d="M139 251q0 51 8 99l136 631h245l-133 -639q-16 -64 12 -102.5t72 -38.5h86q50 0 95 37.5t61 103.5l192 905h246l-190 -897q-13 -62 -47.5 -125t-87.5 -119t-132 -91t-170 -35h-143q-61 0 -110 23.5t-77 61.5t-45.5 86.5t-17.5 99.5z" />
<glyph unicode="&#xe1c;" horiz-adv-x="1167" d="M209 209q-33 271 18 514q28 132 100 195t165 63h133l-47 -225l-78 2q-18 0 -22 -6t-9 -31q-27 -142 -27 -260q0 -36 4 -82l193 305h115l59 -305q27 34 61 110q84 190 162 492l248 4q-90 -390 -266 -729q-70 -135 -156 -256h-160l-73 332l-215 -332h-160q-30 94 -45 209z " />
<glyph unicode="&#xe1d;" horiz-adv-x="1161" d="M209 211q-33 271 18 512q28 130 95.5 194t158.5 64h142l-48 -225l-77 2q-17 0 -21 -4.5t-10 -30.5q-31 -141 -31 -262q0 -51 8 -82l193 305h115l59 -305q35 50 78 160q90 230 194 706h250q-120 -560 -307 -956q-84 -178 -164 -289h-162l-73 332l-215 -332h-160 q-28 99 -43 211z" />
<glyph unicode="&#xe1e;" horiz-adv-x="1253" d="M221 981h246l45 -563l227 563h164l-8 -563l283 563h245l-489 -981h-217l6 514l-215 -514h-209z" />
<glyph unicode="&#xe1f;" horiz-adv-x="1327" d="M221 981h246l45 -563l227 563h168l-12 -563l416 827h245l-622 -1245h-217l2 494l-203 -494h-217z" />
<glyph unicode="&#xe20;" horiz-adv-x="1026" d="M49 -6l49 229h62q7 1 11 2.5t7 6.5t4 8t3 12t3 12l39 195q8 53 39 121q10 21 29 43q-9 9 -25.5 26.5t-23.5 24.5q-49 49 -49 51q55 71 133 137q162 139 354 139q128 0 224 -41t141.5 -118.5t23.5 -177.5l-104 -492q-10 -49 -88 -115q-38 -33 -74 -57h-121l133 623 q16 81 -34 118t-150 37q-69 0 -119 -26q-27 -16 -41 -27l109 -102q-21 -15 -43 -37q-46 -54 -62 -127l-57 -266q-15 -75 -80 -136t-127 -61z" />
<glyph unicode="&#xe21;" horiz-adv-x="1009" d="M76 0l207 981h245l-131 -629q15 -18 45 -43q48 -41 101 -41q55 0 95 12t63.5 35.5t36 48t22.5 60.5l117 557h245l-135 -645q-11 -50 -44 -109t-83 -115.5t-121.5 -94t-146.5 -37.5q-130 0 -195 96q-31 46 -39 96l-36 -172h-246z" />
<glyph unicode="&#xe22;" horiz-adv-x="958" d="M100.5 226.5q-1.5 39.5 8.5 78.5q29 122 127 197q46 34 98 49q-41 9 -70 35q-65 61 -43 159q24 110 117 185.5t190 75.5q82 0 152 -25q18 -5 59 -23l-49 -237q-50 25 -59 29q-66 28 -94 28h-7q-7 1 -12.5 1t-14 -1.5t-14.5 -5t-12 -10.5t-8 -17q-4 -20 -1 -35t17 -24 t26 -14t41 -7t46.5 -2.5t57.5 -0.5h20l-47 -224q-124 0 -193 -37.5t-80 -95.5q-3 -15 -3.5 -27.5t2.5 -21.5t7 -17t11.5 -13t14 -9.5t17 -6.5t18 -3.5t18.5 -2.5t17.5 -1h16.5q80 0 142.5 36.5t72.5 102.5l135 639h246l-133 -631q-10 -50 -33.5 -99.5t-66 -99t-98.5 -87 t-137 -61t-175 -23.5q-72 0 -129 13t-93 36t-61 54t-34 67.5t-10.5 76z" />
<glyph unicode="&#xe23;" horiz-adv-x="866" d="M88 59l43 205q48 -22 84 -33q96 -30 191 -30q82 0 125 20t59 84q7 32 -14 53t-58 32t-83 26t-89.5 33t-76.5 53t-45.5 87.5t3.5 135.5q26 111 143.5 193.5t276.5 82.5q127 0 209 -40q40 -18 70 -41l-52 -240q-26 30 -61 49q-84 49 -213 49q-115 0 -127 -65q-5 -22 16 -39 t58 -28.5t82.5 -28t88 -37.5t76 -57.5t46.5 -88.5t-2 -129q-10 -44 -27.5 -85t-52.5 -86.5t-81.5 -78t-119 -54t-160.5 -21.5q-138 0 -229 38q-35 13 -80 41z" />
<glyph unicode="&#xe24;" horiz-adv-x="1026" d="M172 193l57 266q10 53 41 121q11 22 25 43q-9 9 -25.5 26.5t-23.5 24.5q-49 49 -49 51q57 71 139 137q170 139 360 139q117 0 210 -41t140.5 -119.5t26.5 -176.5l-196 -922q-9 -44 -86 -113q-41 -36 -76 -59h-121l225 1053q16 83 -34 119t-150 36q-79 0 -125 -26 q-25 -14 -35 -27l105 -102q-37 -32 -48 -45q-52 -64 -63 -119l-41 -189q-4 -15 -5 -21t2.5 -12.5t14.5 -7.5l70 -2l-47 -225h-146q-86 0 -125.5 50t-19.5 141z" />
<glyph unicode="&#xe25;" horiz-adv-x="937" d="M99.5 149q-13.5 55 2.5 125q21 97 100.5 173t174 112.5t180.5 36.5q108 0 154 4q16 3 16 6l4 29q16 80 -20 110.5t-121 30.5q-113 0 -223 -78q-49 -34 -86 -77l-45 217q41 41 108 82q142 81 295 81q88 0 155 -20t107 -56t62.5 -86t22.5 -110t-13 -127l-129 -602h-246 l82 389q-6 -3 -27 -6q-23 -6 -147 -6q-58 0 -102 -26t-54 -77q-7 -31 13.5 -52t76.5 -21q38 0 92 20q37 16 46 21l-50 -234q-12 -7 -36 -14q-47 -14 -123 -14q-69 0 -125 19.5t-93.5 57t-51 92.5z" />
<glyph unicode="&#xe26;" horiz-adv-x="1026" d="M51 0l47 223h62q7 1 11 2.5t7 6.5t4 8t3 12t3 12l39 195q8 53 39 121q10 21 29 43q-9 9 -25.5 26.5t-23.5 24.5q-49 49 -49 51q55 76 131 137q170 139 379 139q70 0 141 -24.5t127 -67t84.5 -107.5t13.5 -138l-196 -922q-9 -44 -86 -113q-41 -36 -76 -59h-121l225 1053 q13 61 -26.5 108t-126.5 47q-96 0 -154 -26q-26 -13 -37 -27l109 -102q-21 -15 -43 -37q-46 -54 -62 -127l-57 -266q-15 -77 -79 -134t-138 -57z" />
<glyph unicode="&#xe27;" horiz-adv-x="933" d="M72 133l139 227q19 -42 59 -79q76 -80 183 -80q27 0 64.5 16t80.5 47.5t79.5 90.5t51.5 134q13 80 4 132.5t-39 83t-61 43t-62 12.5q-101 0 -215 -64q-46 -23 -92 -63l-41 215q53 44 111 76q142 77 278 77q205 0 308.5 -145t54.5 -367q-50 -223 -208.5 -366t-358.5 -143 q-146 0 -252 75q-50 35 -84 78z" />
<glyph unicode="&#xe28;" horiz-adv-x="1030" d="M76 0l139 664q23 100 105 179.5t182.5 118.5t195.5 39q96 0 152 -20q46 18 60 55q5 14 16 62h243q-18 -79 -52 -142t-83 -82q61 -61 43 -210l-141 -664h-246l139 664q11 51 -38 83.5t-140 32.5q-81 0 -132.5 -40t-57.5 -76l-29 -138q43 26 72 37q102 39 170 39l-51 -242 q-107 0 -185 -32q-33 -15 -55 -33l-64 -295h-243z" />
<glyph unicode="&#xe29;" horiz-adv-x="989" d="M147 350l136 631h245l-131 -623q-16 -77 9.5 -117t76.5 -40h86q111 0 146 139l22 78h-184l33 164h184l86 403h248l-86 -403h61l-35 -164h-63l-18 -68q-49 -178 -157 -274t-251 -96h-143q-142 0 -219.5 103t-45.5 267z" />
<glyph unicode="&#xe2a;" horiz-adv-x="962" d="M102 274q16 74 60.5 135.5t103 100.5t124 60.5t128.5 21.5q145 0 176 6q13 1 39 8l6 29q30 141 -141 141q-115 0 -225 -78q-49 -34 -86 -77l-41 225q46 44 108 78q142 77 293 77q57 0 115 -10q38 13 56.5 27.5t23.5 27t10 41.5q1 3 1.5 5.5t0.5 5.5h246 q-27 -122 -180 -189q48 -43 64.5 -125t-3.5 -182l-129 -602h-248l82 389q-34 -7 -45 -8q-50 -6 -168 -6q-44 0 -78.5 -36t-38.5 -65q-7 -31 13.5 -52t76.5 -21q42 0 95 24q22 10 47 25l-49 -242q-6 -2 -47 -14q-54 -14 -95 -14q-95 0 -168 31.5t-110.5 100t-16.5 162.5z" />
<glyph unicode="&#xe2b;" horiz-adv-x="931" d="M76 0l207 981h245l-61 -293l362 293h338l-428 -346q255 -56 199 -340l-64 -295h-247l53 266q22 110 -15 169t-90 69l-178 -150l-78 -354h-243z" />
<glyph unicode="&#xe2c;" horiz-adv-x="1327" d="M227 981h246l45 -563l230 563h165l-12 -563l189 362q18 24 18 49q14 71 -29 121q-29 29 -47 41q59 23 125 66q129 84 152 188h254q-28 -125 -164 -203q-61 -36 -131 -51q25 -8 47 -24q49 -38 41 -103q-4 -30 -20 -68t-32.5 -69t-17.5 -33l-346 -694h-215v494l-203 -494 h-215z" />
<glyph unicode="&#xe2d;" horiz-adv-x="1015" d="M129 367q22 101 75.5 147.5t121.5 46.5h256l-47 -225l-127 4q-17 4 -28 -5t-9 -26q10 -108 155 -108q111 0 181 66.5t104 221.5q31 145 -21 217t-145 72q-96 0 -176 -80q-34 -34 -55 -77h-238q42 111 109 190q166 190 411 190q105 0 182 -33.5t117 -86t59.5 -122.5 t18 -136.5t-15.5 -133.5q-49 -234 -210 -371.5t-370 -137.5q-193 0 -287 111t-61 276z" />
<glyph unicode="&#xe2e;" horiz-adv-x="1015" d="M129 367q14 79 61 136.5t129 57.5h263l-47 -225h-125q-36 0 -39 -31q2 -32 20.5 -54.5t45.5 -32.5t48.5 -13.5t40.5 -3.5q108 0 179.5 66.5t105.5 221.5q30 145 -21.5 218t-146.5 73q-92 0 -172 -80q-38 -38 -57 -77h-238q40 108 109 188q170 190 405 190h17h19t19 -0.5 t22 -1.5t21 -2.5t23.5 -4t22.5 -6.5t24 -9q12 3 21 7.5t16 13t11 12.5t8 18.5t5.5 19t5.5 24.5t5 26h237q-18 -70 -69 -137t-103 -84q114 -143 62 -388q-49 -234 -210 -371.5t-370 -137.5q-193 0 -287 111t-61 276z" />
<glyph unicode="&#xe2f;" horiz-adv-x="948" d="M252 981h242q0 -6 1 -17q4 -92 19 -120q23 -43 98 -43q62 0 118.5 46t96.5 134h234l-135 -631q-19 -88 -50.5 -152.5t-68 -102t-85 -59.5t-93.5 -29t-103 -7l49 223q28 0 37 1t24 13t24.5 39.5t21.5 79.5l57 271q-26 -16 -55 -25q-60 -24 -152 -24q-71 0 -124.5 25.5 t-83.5 65t-48 94.5t-22.5 107.5t-1.5 110.5z" />
<glyph unicode="&#xe30;" horiz-adv-x="694" d="M145 336l27 125h236l-15 -72q-6 -27 9 -38t67 -11h201l-142 -217h-186q-125 0 -171.5 57t-25.5 156zM242 786l24 113h236l-17 -72q-5 -28 9.5 -38.5t66.5 -10.5h201l-139 -219h-199q-232 0 -182 227z" />
<glyph unicode="&#xe31;" d="M-282 1271.5q0 33.5 8 78.5l22 112h242l-15 -67q-5 -28 9 -38.5t65 -10.5h389l-137 -211h-389q-31 0 -56.5 3.5t-51.5 12.5t-42.5 24t-30 39t-13.5 57.5z" />
<glyph unicode="&#xe32;" horiz-adv-x="835" d="M184 666l49 221q38 32 89 57q101 57 210 57q181 0 279.5 -104.5t62.5 -273.5l-133 -623h-245l127 602q10 49 0 85.5t-34.5 55t-50.5 27t-53 8.5q-88 0 -196 -57q-44 -20 -105 -55z" />
<glyph unicode="&#xe33;" horiz-adv-x="835" d="M-227 1352q22 92 99.5 156.5t162.5 64.5q94 0 144 -64.5t30 -156.5q-22 -90 -98 -153.5t-168 -63.5q-87 0 -139.5 65t-30.5 152zM-76 1352q-5 -26 9 -44t40 -18q24 0 46 18t26 44q6 25 -8 43t-39 18t-46.5 -18t-27.5 -43zM184 666l49 221q38 32 89 57q101 57 210 57 q181 0 279.5 -104.5t62.5 -273.5l-133 -623h-245l127 602q10 49 0 85.5t-34.5 55t-50.5 27t-53 8.5q-88 0 -196 -57q-44 -20 -105 -55z" />
<glyph unicode="&#xe34;" d="M-606 1135l135 202h633l-43 -202h-725z" />
<glyph unicode="&#xe35;" d="M-606 1135l137 213h387l25 114h245l-69 -327h-725z" />
<glyph unicode="&#xe36;" d="M-606 1135l135 213h248q1 5 16 30q26 56 89 90.5t120 34.5q52 0 87.5 -18.5t49.5 -46.5t20 -61.5t-3 -63.5q-16 -79 -92 -128.5t-140 -49.5h-530zM-66 1319q-4 -12 4.5 -21.5t20.5 -9.5q25 0 37 31q2 12 -5.5 21.5t-19.5 9.5q-25 0 -37 -31z" />
<glyph unicode="&#xe37;" d="M-606 1135l137 213h223l25 114h164l-25 -114h62l22 114h186l-69 -327h-725z" />
<glyph unicode="&#xe38;" d="M-504 -369l47 215h121q104 0 155 -49t31 -145l-40 -195h-248l26 125q5 19 -4.5 33.5t-29.5 15.5h-58z" />
<glyph unicode="&#xe39;" d="M-795 -371l47 217h148q72 0 127.5 -40t44.5 -101q-7 -32 -6 -42.5t12 -10.5q14 0 22 10t15 41l31 143h248l-46 -204q-6 -27 -16.5 -51.5t-35 -54t-58.5 -51t-91.5 -36t-129.5 -14.5q-117 0 -171.5 41t-41.5 104q5 19 -5 33.5t-30 15.5h-64z" />
<glyph unicode="&#xe3a;" d="M-403 -379l49 225h248l-50 -225h-247z" />
<glyph unicode="&#xe3f;" horiz-adv-x="927" d="M76 0l233 1108h197l37 166h239l-39 -176q113 -20 169 -101.5t34 -179.5q-18 -85 -73 -149t-142 -86q100 -18 148.5 -82t25.5 -164q-25 -121 -139 -218t-254 -114l-37 -176h-239l36 172h-196zM369 219h92q48 0 86.5 12.5t60 32.5t33.5 37.5t16 34.5q3 17 4.5 35t-9 35.5 t-28 31.5t-51.5 22.5t-81 8.5h-72zM467 694h59q142 0 168 103q5 25 -4.5 42.5t-23 26t-35.5 12.5t-31 4.5t-22 0.5h-70z" />
<glyph unicode="&#xe40;" horiz-adv-x="466" d="M115 193l168 788h245l-149 -717q-4 -15 -5 -21t2.5 -12.5t14.5 -7.5h62l-50 -223h-143q-73 0 -120 45.5t-25 147.5z" />
<glyph unicode="&#xe41;" horiz-adv-x="890" d="M115 193l168 788h245l-149 -717q-4 -15 -5 -21t2.5 -12.5t14.5 -7.5h62l-50 -223h-163q-65 0 -104.5 52.5t-20.5 140.5zM530 193l168 788h246l-149 -717q-4 -15 -5 -21t2.5 -12.5t14.5 -7.5h61l-49 -223h-162q-67 0 -106.5 52t-20.5 141z" />
<glyph unicode="&#xe42;" horiz-adv-x="575" d="M223 193l146 688q22 99 22.5 198t5.5 123q23 96 124.5 162t248.5 66h317l-47 -220h-159q-120 0 -179 -8t-63 -31q-6 -38 -2 -63t0 -88.5t-21 -138.5l-129 -619q-10 -39 11 -41h61l-47 -221h-166q-64 0 -102 58t-21 135z" />
<glyph unicode="&#xe43;" horiz-adv-x="724" d="M268 1266q39 48 97 92q114 94 215 94q65 0 119.5 -17t99 -54.5t59.5 -97.5t0 -146q-12 -54 -47.5 -132.5t-56.5 -175.5l-117 -555q-10 -39 10 -41h62l-47 -233h-158q-74 0 -112 57t-19 136l135 636q18 90 57 182.5t45 125.5v5q1 5 1 10t-0.5 12.5t-2.5 14.5t-5.5 14.5 t-9.5 13.5t-14 11t-20 8t-27 3q-65 0 -153 -88q-40 -40 -72 -86z" />
<glyph unicode="&#xe44;" horiz-adv-x="800" d="M256 1210l47 222q26 0 52.5 -12t48.5 -31.5t38 -36.5t29 -34t14 -18q21 34 54 64q70 66 157 66q62 0 106 -31t62 -79.5t23 -108t-10 -117.5l-177 -828q-13 -39 13 -39h61l-47 -227h-152q-83 0 -120 56t-19 137l193 901q1 6 3.5 17.5t4 18.5t3 17.5t1.5 17t-0.5 14.5 t-3 13t-6 9.5t-10 6.5t-15.5 2q-30 0 -96 -82q-2 -3 -24.5 -33t-34.5 -48q-7 34 -33 81q-54 82 -162 82z" />
<glyph unicode="&#xe45;" horiz-adv-x="835" d="M184 666l49 221q39 33 91 57q105 57 229 57q80 0 147 -27t111.5 -76.5t63 -119t-0.5 -155.5l-188 -881q-9 -44 -86 -113q-41 -36 -76 -59h-121l220 1032q6 38 4 66.5t-16 48t-29 31.5t-35.5 18.5t-35 9t-26.5 2.5q-88 0 -196 -57q-44 -20 -105 -55z" />
<glyph unicode="&#xe46;" horiz-adv-x="958" d="M193 705q26 113 121.5 204.5t209.5 91.5q21 0 38.5 -20t39.5 -57q19 -44 31 -76q40 47 69 76q77 77 115 77q48 0 87.5 -19t62.5 -50t38.5 -70.5t15.5 -79.5t-7 -77l-205 -963q-9 -42 -88 -113q-41 -36 -76 -59h-119l232 1094q13 50 8.5 75.5t-9.5 32t-12 6.5 q-14 0 -92 -86q-13 -14 -36.5 -42.5t-34.5 -41.5q-21 46 -39 84q-3 6 -9.5 18t-10 18t-8.5 15.5t-8 14.5t-6.5 10t-6.5 7.5t-5 2.5q-24 0 -40 -39q-5 -15 -9 -34q-11 -46 19 -95q12 -18 30 -30l-124 -197q-62 17 -107 59q-98 98 -65 263z" />
<glyph unicode="&#xe47;" d="M-522 1329q44 207 293 217l163 4q77 0 175 70q35 24 81 70l-51 -238q-27 -10 -71 -20q-90 -21 -164 -21h-144q-101 0 -118 -82q-5 -21 8 -41t41 -20q41 0 71 47q16 23 27 47h57q0 -19 4 -47q11 -47 29 -47q57 0 80 94h160q-19 -89 -88 -158t-162 -69q-39 0 -66 45 q-10 18 -20 47q-12 -18 -41 -47q-49 -45 -100 -45q-89 0 -136 54.5t-28 139.5z" />
<glyph unicode="&#xe48;" d="M-82 1135l70 327h245l-69 -327h-246z" />
<glyph unicode="&#xe49;" d="M-348 1247l45 215h244q31 0 51 -21.5t16 -51.5q-5 -18 3.5 -30t25.5 -11l340 -2l-135 -211h-404q-39 0 -61 15t-15 56t-28 41h-82z" />
<glyph unicode="&#xe4a;" d="M-496 1268q19 90 96 143t150 53q37 0 57 -47q10 -23 13 -47q15 24 33 45q47 47 79 47q51 0 102 -30.5t44 -65.5q-5 -19 7 -20h7h4h281l-135 -211h-262q-35 0 -53.5 25.5t-18 55t3.5 52.5q5 25 -2.5 43t-26.5 18q-16 0 -26.5 -10t-13.5 -20.5t-7 -30.5h-72q8 20 5.5 40.5 t-29.5 20.5q-17 0 -32.5 -18.5t-20.5 -42.5q-10 -38 28 -90q10 -14 39 -43h-211q-14 20 -24 43q-26 47 -15 90z" />
<glyph unicode="&#xe4b;" d="M-172 1190l45 215h102l13 57h245l-12 -59h103l-45 -213h-103l-12 -55h-246l12 55h-102z" />
<glyph unicode="&#xe4c;" d="M-344 1135l22 94q18 78 111 155.5t178 77.5h197l-137 -215h-35q-40 0 -55 -17.5t-23 -60.5l-8 -34h-250z" />
<glyph unicode="&#xe4d;" d="M-227 1350q22 92 99.5 156.5t162.5 64.5q94 0 144 -64.5t30 -156.5q-20 -90 -97 -153.5t-169 -63.5q-87 0 -138.5 64.5t-31.5 152.5zM-76 1350q-6 -26 8.5 -44t40.5 -18q24 0 45 18t27 44q4 25 -10 43t-37 18q-26 0 -47.5 -18t-26.5 -43z" />
<glyph unicode="&#xe4e;" d="M-328 1264q15 72 65.5 120t104.5 65t109 17q11 60 97.5 93.5t187.5 33.5l-27 -120q-64 0 -112 -49.5t-70 -153.5q-114 0 -131 -78q-7 -25 8 -45q6 -9 14 -12h-223q-39 55 -23 129z" />
<glyph unicode="&#xe4f;" horiz-adv-x="1040" d="M162 418q27 119 107 219.5t192.5 158.5t230.5 58q121 0 209 -58t124.5 -158.5t12.5 -219.5q-37 -180 -193 -309t-339 -129q-118 0 -206 59t-125 160t-13 219zM324 418q-22 -113 42 -194t177 -81q114 0 210.5 81t118.5 194q25 116 -36.5 195t-176.5 79q-112 0 -211.5 -80 t-123.5 -194zM412 418q17 77 84.5 131.5t144.5 54.5q78 0 119 -54t24 -132q-12 -77 -78.5 -132t-144.5 -55q-77 0 -120 54t-29 133z" />
<glyph unicode="&#xe50;" horiz-adv-x="1007" d="M131 416q40 179 202 310.5t343 131.5q119 0 210.5 -60.5t131.5 -162.5t16 -219t-111.5 -219t-207.5 -161t-240 -59q-179 0 -280 129t-64 310zM377 418q-20 -92 28 -157.5t134 -65.5t159 65t93 158q21 91 -26.5 156t-131.5 65q-86 0 -162.5 -65t-93.5 -156z" />
<glyph unicode="&#xe51;" horiz-adv-x="1009" d="M142 365q-10 55 5 127q32 148 185 256t332 108q202 0 305 -131.5t59 -337.5q-20 -88 -63 -162t-99 -123t-118 -85.5t-125.5 -56.5t-114.5 -29t-92 -9q-6 0 -64.5 1t-64.5 1l108 213h8q45 0 100 13.5t113.5 41t104 78.5t59.5 117q26 119 -23.5 183.5t-140.5 64.5 q-85 0 -146.5 -44.5t-74.5 -98.5q-13 -46 -3.5 -71t20 -33.5t18.5 -8.5q4 0 8 1t7 3.5t5 5t4 7.5t3.5 9t3 11t2.5 12t3 14t3 15l8 39h248l-20 -93q-6 -26 -17 -53.5t-36.5 -63.5t-59 -63t-88.5 -46t-121 -19q-36 0 -73.5 11.5t-73.5 37t-60 64.5t-34 94z" />
<glyph unicode="&#xe52;" horiz-adv-x="1224" d="M236 1044l47 220h30q72 0 134 -37t98.5 -90.5t53.5 -113t7 -105.5l-112 -537q-19 -95 7.5 -137.5t78.5 -42.5h268q109 0 137 125l41 202q26 115 16 150q-7 27 -32 27q-33 0 -74 -41q-13 -13 -37 -41q-15 35 -18 41q-25 41 -56 41q-22 0 -41.5 -27t-27.5 -64 q-4 -17 2 -29.5t18.5 -19.5t29.5 -12t36 -6l38 -2t36 0h3.5h3.5h3.5h3.5l-49 -221q-56 0 -86 1t-74.5 6.5t-66 16.5t-47 31.5t-33.5 51.5t-8.5 77t12.5 106q7 32 25 70.5t48 81.5t77.5 71.5t102.5 28.5q51 0 78 -59q14 -28 19 -57q21 31 51 57q59 59 115 59q52 0 91 -22.5 t59.5 -58.5t30 -81.5t9 -90t-9.5 -85.5l-47 -221q-32 -151 -148.5 -239t-281.5 -88h-326q-46 0 -91 22.5t-80 65t-49 103t1 136.5l131 617q14 66 -15.5 93t-131.5 27z" />
<glyph unicode="&#xe53;" horiz-adv-x="1216" d="M129.5 220.5q-17.5 84.5 3.5 201.5q43 198 153.5 316t278.5 118q101 0 152 -117q22 -56 28 -116q35 65 74 116q96 117 199 117q136 0 201 -122t24 -312q-40 -173 -133 -309q-41 -61 -90 -113h-232q45 56 86 125q90 146 123 297q21 117 4.5 166t-61.5 49q-57 0 -89 -67.5 t-67 -233.5h-227q33 141 30 221t-57 80q-11 0 -22 -3t-29 -16t-34 -34.5t-32.5 -63.5t-27.5 -98q-47 -221 107 -221q34 0 86 10q24 6 51 12l-43 -196q-16 -16 -37 -25q-45 -25 -107 -25q-67 0 -129 25.5t-114 79.5t-69.5 138.5z" />
<glyph unicode="&#xe54;" horiz-adv-x="1183" d="M131 412q13 61 32 116.5t53.5 114.5t77.5 101.5t107.5 70t141.5 27.5h311q36 0 64 6t56.5 22t48.5 49t30 82l57 267l248 -4l-82 -365q-21 -94 -84 -159.5t-136 -90.5t-145 -20h-321q-83 0 -135.5 -58.5t-77.5 -162.5q-24 -105 1 -146t116 -41l243 -2q-47 28 -86 74 q-82 98 -53 223h254q-30 -133 16 -214t166 -81h103l-47 -221h-713q-89 0 -154 56t-90.5 151.5t-1.5 204.5z" />
<glyph unicode="&#xe55;" horiz-adv-x="1187" d="M129 408q16 77 46 147.5t78 138t121.5 108t162.5 40.5h16q0 15 4 22q15 84 88 144.5t158 60.5q86 0 133.5 -59.5t30.5 -145.5q-6 -6 -4 -6q23 12 39 26.5t25 26t17 33.5t10.5 34.5t8.5 45t10 49.5l41 195h250l-74 -348q-31 -143 -128 -217t-224 -74h-334 q-84 0 -141.5 -59.5t-81.5 -161.5q-23 -98 -0.5 -142.5t106.5 -44.5h256q-45 25 -86 72q-83 100 -55 223h254q-26 -122 27.5 -208.5t132.5 -86.5h125l-45 -221h-715q-89 0 -155.5 63.5t-91.5 157.5t-5 187zM694 848q-6 -26 8.5 -44t40.5 -18h7q24 5 43.5 21.5t23.5 40.5 q5 25 -9.5 43t-39.5 18q-26 0 -47.5 -18t-26.5 -43z" />
<glyph unicode="&#xe56;" horiz-adv-x="1327" d="M236 1044l47 222h43q91 0 158.5 -24t110 -64.5t69.5 -104t38.5 -133t14.5 -160.5q50 31 76 43q92 43 206 43q87 0 156.5 -25t112 -67t69.5 -97t29.5 -116t-8.5 -123q-19 -86 -66.5 -167t-117 -146.5t-164.5 -105t-199 -39.5q-73 0 -133.5 24t-98.5 60.5t-66 87t-42 96 t-22 94.5h251q13 -68 54.5 -104.5t103.5 -36.5q24 0 57.5 12t72.5 37t73 74t49 114q10 51 -0.5 91.5t-36 64t-57 35.5t-64.5 12q-86 0 -142.5 -57t-104.5 -162h-222q0 100 -2 169t-8 139t-17 115.5t-29 86.5t-44.5 63.5t-62.5 35.5t-84 13z" />
<glyph unicode="&#xe57;" horiz-adv-x="1607" d="M133 422q42 191 149.5 307.5t247.5 116.5q44 0 78 -23t51.5 -59t27.5 -68.5t15 -62.5t5 -31l5 11q6 11 13.5 24t19.5 32.5t26.5 38.5t31.5 39.5t37.5 37.5t42 31t47 22t51.5 8q140 0 200 -115t19 -309q-7 -26 -14 -56.5t-9 -41t-7.5 -26.5t-12 -28.5t-18.5 -33.5 q46 6 63.5 39.5t40.5 136.5l113 534q20 86 64.5 150t106 100t130.5 53t149 17h29l-47 -222q-104 0 -139 -21.5t-47 -88.5l-132 -617q-15 -71 -60.5 -133.5t-102 -101t-114.5 -60.5t-103 -22h-357q50 63 90 125q97 151 129 297q24 116 15 157.5t-54 41.5q-58 0 -92 -56 t-61 -184h-205q24 109 12 174.5t-61 65.5q-17 0 -28.5 -4t-30 -20.5t-35.5 -61t-31 -113.5q-23 -106 9 -163.5t89 -57.5q38 0 92 14q9 3 28 8t28 8l-43 -204q-30 -15 -60 -25q-52 -22 -94 -22q-111 0 -188.5 62t-105 163t-3.5 217z" />
<glyph unicode="&#xe58;" horiz-adv-x="1189" d="M133 193q-25 98 0 229q19 83 59.5 158t97.5 134t133.5 93.5t160.5 34.5h278q77 0 127.5 34t73.5 128l55 264h248l-68 -316q-17 -78 -51 -138t-74.5 -95.5t-91 -57.5t-95 -30t-91.5 -8h-254q-113 0 -174 -53t-82 -154q-17 -75 -11 -122.5t21 -69t33 -21.5q56 0 133 125 q34 52 62 125q16 -75 36 -125q54 -125 125 -125q55 0 87 29.5t51 115.5l10 53h248l-11 -53q-13 -58 -31.5 -106.5t-52.5 -98.5t-79.5 -84.5t-114.5 -56.5t-154 -22q-95 0 -147 75q-26 43 -33 76q-16 -34 -53 -76q-67 -75 -146 -75q-78 0 -139 57.5t-86 155.5z" />
<glyph unicode="&#xe59;" horiz-adv-x="1409" d="M133 422q39 177 161 305.5t218 128.5q78 0 122.5 -37t80.5 -104q21 94 81.5 152.5t145.5 58.5q51 0 95.5 -22.5t70 -49.5t51.5 -49.5t45 -22.5q11 0 19.5 9.5t16 34.5t12.5 46.5t14 68.5t16 77l53 250h248l-53 -250q-8 -43 -17 -80t-25 -85.5t-34.5 -87t-47 -78t-62 -66 t-79 -43.5t-98.5 -17t-101 23.5t-75.5 51t-55 47.5t-46.5 15l-3 -1q-2 -1 -6.5 -3.5t-9.5 -7t-10.5 -14t-9.5 -23.5q0 -4 -1 -10.5t-1 -9.5l10 -113q1 -30 6.5 -98.5t15 -186t17.5 -231.5h-242l-43 555q-4 39 -31 64.5t-49 25.5q-15 0 -32 -8t-40 -29t-44 -69t-35 -117 q-23 -106 3.5 -163.5t80.5 -57.5q28 0 90 20q23 8 53 21l-45 -211q-24 -16 -40 -24.5t-50.5 -17.5t-75.5 -9q-91 0 -160.5 60.5t-98.5 163.5t-5 218z" />
<glyph unicode="&#xe5a;" horiz-adv-x="1296" d="M252 981h242q2 -43 4 -64t8.5 -48t17.5 -38.5t31.5 -20.5t50.5 -9q64 0 122.5 46t98.5 134h234l-135 -631q-14 -65 -31 -112t-47.5 -94.5t-71.5 -77t-104.5 -48t-145.5 -18.5l49 223q8 0 20.5 -0.5t17 -1t13 2t11.5 6t9.5 12.5t10 21t9.5 32t11 44t13 60l49 228 q-25 -18 -53 -25q-67 -24 -166 -24q-66 0 -116.5 25t-80 65t-47 94.5t-22.5 108t-2 110.5zM942 0l209 985l246 -4l-207 -981h-248z" />
<glyph unicode="&#xe5b;" horiz-adv-x="1605" d="M151.5 303q-4.5 52 8.5 103q19 85 61.5 162.5t107.5 142t160.5 103t208.5 38.5q124 0 194 -54.5t99 -138.5q29 -90 21 -190h-242q0 47 -12 84q-29 84 -105 84t-148 -59.5t-95 -171.5q-10 -58 0 -98t38 -64t58 -34.5t61 -10.5q68 0 150 63q29 21 74 66l86 -99l104 105 l74 -103l112 109q12 -40 31 -72q20 -35 39.5 -53t46.5 -18q40 0 49 34q8 42 -24 95q-20 28 -37 45h235q19 -16 33 -41q28 -55 16 -123q-14 -76 -97 -151.5t-195 -75.5q-68 0 -103 75q-17 33 -26 76l-107 -102l-72 102l-102 -102l-84 102q-37 -46 -74 -78q-92 -76 -176 -76 q-69 0 -128.5 17.5t-101.5 48t-74 72t-46 89t-18.5 99.5z" />
<glyph unicode="&#x2000;" horiz-adv-x="940" />
<glyph unicode="&#x2001;" horiz-adv-x="1880" />
<glyph unicode="&#x2002;" horiz-adv-x="940" />
<glyph unicode="&#x2003;" horiz-adv-x="1880" />
<glyph unicode="&#x2004;" horiz-adv-x="626" />
<glyph unicode="&#x2005;" horiz-adv-x="470" />
<glyph unicode="&#x2006;" horiz-adv-x="313" />
<glyph unicode="&#x2007;" horiz-adv-x="313" />
<glyph unicode="&#x2008;" horiz-adv-x="235" />
<glyph unicode="&#x2009;" horiz-adv-x="376" />
<glyph unicode="&#x200a;" horiz-adv-x="104" />
<glyph unicode="&#x2010;" horiz-adv-x="692" d="M158 389l43 201h522l-43 -201h-522z" />
<glyph unicode="&#x2011;" horiz-adv-x="692" d="M158 389l43 201h522l-43 -201h-522z" />
<glyph unicode="&#x2012;" horiz-adv-x="692" d="M158 389l43 201h522l-43 -201h-522z" />
<glyph unicode="&#x2013;" horiz-adv-x="907" d="M158 389l43 201h737l-43 -201h-737z" />
<glyph unicode="&#x2014;" horiz-adv-x="1296" d="M158 389l43 201h1126l-43 -201h-1126z" />
<glyph unicode="&#x2018;" horiz-adv-x="415" d="M231 737l35 172q23 107 137 201q53 41 109 74h272q-70 -37 -120 -74q-127 -95 -150 -201l-37 -172h-246z" />
<glyph unicode="&#x2019;" horiz-adv-x="417" d="M23 737q64 33 120 76q123 92 146 199l39 172h250l-39 -172q-23 -106 -136 -199q-52 -43 -108 -76h-272z" />
<glyph unicode="&#x201c;" horiz-adv-x="743" d="M231 737l35 172q23 107 137 201q53 41 109 74h238q-64 -38 -111 -74q-114 -94 -137 -201l-35 -172h-236zM557 737l37 172q20 106 147 201q48 35 121 74h238q-73 -39 -121 -74q-127 -95 -150 -201l-36 -172h-236z" />
<glyph unicode="&#x201d;" horiz-adv-x="745" d="M23 737q64 33 120 76q123 92 146 199l39 172h235l-39 -172q-24 -109 -145 -199q-45 -37 -121 -76h-235zM373 737q40 24 108 76q115 95 137 199l39 172h236l-39 -172q-24 -107 -135 -199q-49 -41 -109 -76h-237z" />
<glyph unicode="&#x2022;" horiz-adv-x="638" d="M178 492q25 101 109 170t184 69q97 0 149.5 -69t32.5 -170q-22 -96 -105 -165t-179 -69q-99 0 -156 69.5t-35 164.5z" />
<glyph unicode="&#x2026;" horiz-adv-x="1275" d="M76 0l47 221h246l-47 -221h-246zM506 0l47 221h246l-47 -221h-246zM936 0l47 221h246l-47 -221h-246z" />
<glyph unicode="&#x202f;" horiz-adv-x="376" />
<glyph unicode="&#x205f;" horiz-adv-x="470" />
<glyph unicode="&#x20ac;" horiz-adv-x="1189" d="M145 330l33 159h107l6 52q16 60 16 61h-104l35 162h137q120 193 273 273.5t339 80.5q216 0 332 -63l-131 -215q-113 61 -256 61q-87 0 -161.5 -35.5t-123.5 -101.5h369l-33 -162h-426q-12 -29 -18 -61q-4 -12 -9 -52h388l-35 -159h-332q19 -40 52.5 -68.5t69.5 -40.5 t63 -17t48 -5q48 0 103 14.5t90 29.5t90 42l41 -211q-176 -94 -395 -94q-112 0 -207 40t-155.5 121t-63.5 189h-142z" />
<glyph unicode="&#x2122;" horiz-adv-x="817" d="M289 1008l10 57h262l-10 -57h-96l-68 -314h-65l67 314h-100zM508 694l78 371h73l60 -268l178 268h68l-80 -371h-58l58 264l-180 -264h-21l-55 264l-58 -264h-63z" />
<glyph unicode="&#x25fc;" horiz-adv-x="839" d="M0 0v840h840v-840h-840z" />
<glyph horiz-adv-x="659" />
<glyph horiz-adv-x="993" d="M203 793q42 61 102 104q147 104 352 104q83 0 177 -36q22 7 35.5 17t23 29.5t13.5 35.5t12 51h243q-23 -87 -77 -161t-113 -91q37 -45 57 -106.5t20 -118t-10 -111.5q-24 -113 -72.5 -202t-109.5 -146t-136 -94t-148.5 -52.5t-151.5 -15.5h-92l-15 303q-2 7 -2.5 14.5 t-1 10.5t-4.5 5.5t-12 2.5h-57l47 225h106q23 0 40.5 -2t42.5 -12.5t43 -29t33.5 -54.5t22.5 -86l2 -150q43 0 119.5 83t102.5 200q12 51 8 90t-13.5 67t-29 47.5t-38.5 31.5t-42.5 19t-40 9t-31.5 2q-143 0 -272 -96q-56 -44 -96 -96z" />
<glyph horiz-adv-x="1552" d="M166 193l57 266q9 46 43 121q13 27 27 43q-9 9 -25.5 26.5t-23.5 24.5q-47 47 -47 51q60 78 133 137q162 139 350 139q121 0 217.5 -41t146 -119.5t27.5 -176.5l-67 -322q-18 -69 -4.5 -105t63.5 -36h86q100 0 135 141l135 639h246l-133 -631q-10 -50 -31 -99.5t-57 -99 t-81 -87t-109.5 -61t-137.5 -23.5h-164q-134 0 -183 103.5t-15 266.5l61 273q13 72 -32.5 113.5t-137.5 41.5q-97 0 -143 -26q-24 -13 -29 -27l107 -102q-29 -18 -48 -37q-48 -52 -65 -127l-45 -193q-13 -39 12 -39h74l-47 -227l-129 -2q-109 0 -147 55t-19 140z" />
<glyph d="M-641 1331q47 215 291 215h123q78 0 172 62q43 28 80 63l-41 -217q-28 -9 -74 -20q-99 -21 -164 -21h-102q-56 0 -85 -23.5t-36 -58.5q-5 -23 1 -42t27 -19q37 0 64 45q11 25 18 47h39q-2 -19 2 -47q4 -14 7.5 -22.5t12 -15.5t21.5 -7q27 0 50 33t30 59h162 q-24 -100 -92 -163.5t-160 -63.5q-37 0 -63 47q-14 32 -17 47q-11 -21 -31 -45q-45 -45 -92 -45q-82 0 -122 53t-21 139z" />
<glyph d="M-117 1665l47 215h230q31 0 51 -21t14 -51q-4 -17 5.5 -29t27.5 -12h250l-137 -213h-287q-46 0 -69 19.5t-17 50.5q7 41 -27 41h-88z" />
<glyph d="M-207 1618q12 49 42.5 89t66.5 61.5t68.5 32.5t54.5 11q29 0 49 -47q7 -15 14 -45q17 27 35 45q47 47 82 47q90 0 127 -92q6 -14 9 -17t13 -3l138 -2l-136 -211h-123q-97 0 -81 82q21 110 -21 110q-31 0 -43 -61h-41q6 20 2 40.5t-20 20.5q-17 0 -32 -18.5t-20 -42.5 q-10 -37 19 -88q12 -21 31 -43h-185q-16 19 -30 43q-29 51 -19 88z" />
<glyph horiz-adv-x="1740" d="M172 193l57 266q10 53 41 121q11 22 25 43q-9 9 -25.5 26.5t-23.5 24.5q-49 49 -49 51q57 71 139 137q170 139 360 139q124 0 221 -46.5t138 -127.5q165 174 387 174q79 0 146 -27t112 -76.5t63.5 -119t-0.5 -155.5l-188 -881q-9 -42 -88 -113q-41 -36 -76 -59h-119 l219 1032q12 46 2.5 77.5t-24.5 51t-39.5 30t-42 14t-33.5 3.5q-69 0 -126.5 -16.5t-90 -39t-55.5 -47t-31 -40t-8 -19.5l-186 -874q-9 -44 -86 -113q-41 -36 -76 -59h-121l225 1053q16 83 -34 119t-150 36q-79 0 -125 -26q-25 -14 -35 -27l103 -102l-6 -5 q-7 -6 -14.5 -13.5l-18.5 -18.5t-21 -24.5t-19.5 -29t-17.5 -34.5t-12 -39l-41 -189q-1 -13 -2 -21t5 -13t11 -7.5t15.5 -3t17.5 0t18 1t17 0.5l-47 -225h-146q-86 0 -125.5 50t-19.5 141z" />
<glyph horiz-adv-x="1740" d="M51 0l47 223h62q16 1 20 8.5t6 24.5l41 203q8 53 39 121q10 21 29 43q-9 9 -25.5 26.5t-23.5 24.5q-49 49 -49 51q55 76 131 137q170 139 379 139q102 0 202 -49.5t142 -130.5q64 73 161.5 126.5t229.5 53.5q79 0 146 -27t112 -76.5t63.5 -119t-0.5 -155.5l-188 -881 q-9 -42 -88 -113q-41 -36 -76 -59h-119l219 1032q12 46 2.5 77.5t-24.5 51t-39.5 30t-42 14t-33.5 3.5q-67 0 -123.5 -15t-89.5 -35.5t-56 -43.5t-31.5 -38t-8.5 -19l-188 -885q-9 -44 -86 -113q-41 -36 -76 -59h-121l225 1053q13 61 -26.5 108t-126.5 47q-96 0 -154 -26 q-26 -13 -37 -27l109 -102q-21 -15 -43 -37q-46 -54 -62 -127l-57 -266q-18 -78 -79.5 -134.5t-137.5 -56.5q-25 0 -77 -1t-77 -1z" />
</font>
</defs>
</svg>
